<svg xmlns="http://www.w3.org/2000/svg" xmlns:xlink="http://www.w3.org/1999/xlink" width="368" zoomAndPan="magnify" viewBox="0 0 276 182.249993" height="243" preserveAspectRatio="xMidYMid meet" version="1.0"><defs><clipPath id="id1"><path d="M 0.566406 0 L 275.433594 0 L 275.433594 181.503906 L 0.566406 181.503906 Z M 0.566406 0 " clip-rule="nonzero"/></clipPath><clipPath id="id2"><path d="M 0.566406 0 L 275.433594 0 L 275.433594 181.503906 L 0.566406 181.503906 Z M 0.566406 0 " clip-rule="nonzero"/></clipPath><clipPath id="id3"><path d="M 64.839844 -143.011719 L 364.695312 10.5 L 211.183594 310.351562 L -88.667969 156.84375 Z M 64.839844 -143.011719 " clip-rule="nonzero"/></clipPath><clipPath id="id4"><path d="M 64.839844 -143.011719 L 364.695312 10.5 L 211.183594 310.351562 L -88.667969 156.84375 Z M 64.839844 -143.011719 " clip-rule="nonzero"/></clipPath><clipPath id="id5"><path d="M 64.839844 -143.011719 L 364.695312 10.5 L 211.183594 310.351562 L -88.667969 156.84375 Z M 64.839844 -143.011719 " clip-rule="evenodd"/></clipPath><linearGradient x1="0.99547" gradientTransform="matrix(299.853513, 153.509032, -153.509032, 299.853513, 64.840682, -143.010673)" y1="0.5" x2="0.0236199" gradientUnits="userSpaceOnUse" y2="0.5" id="id6"><stop stop-opacity="1" stop-color="rgb(21.899414%, 36.647034%, 53.996277%)" offset="0"/><stop stop-opacity="1" stop-color="rgb(21.815491%, 36.769104%, 53.909302%)" offset="0.0078125"/><stop stop-opacity="1" stop-color="rgb(21.64917%, 37.016296%, 53.736877%)" offset="0.015625"/><stop stop-opacity="1" stop-color="rgb(21.481323%, 37.263489%, 53.564453%)" offset="0.0234375"/><stop stop-opacity="1" stop-color="rgb(21.315002%, 37.509155%, 53.392029%)" offset="0.03125"/><stop stop-opacity="1" stop-color="rgb(21.147156%, 37.756348%, 53.219604%)" offset="0.0390625"/><stop stop-opacity="1" stop-color="rgb(20.980835%, 38.00354%, 53.04718%)" offset="0.046875"/><stop stop-opacity="1" stop-color="rgb(20.812988%, 38.250732%, 52.874756%)" offset="0.0546875"/><stop stop-opacity="1" stop-color="rgb(20.646667%, 38.496399%, 52.702332%)" offset="0.0625"/><stop stop-opacity="1" stop-color="rgb(20.478821%, 38.743591%, 52.531433%)" offset="0.0703125"/><stop stop-opacity="1" stop-color="rgb(20.3125%, 38.990784%, 52.359009%)" offset="0.078125"/><stop stop-opacity="1" stop-color="rgb(20.144653%, 39.237976%, 52.186584%)" offset="0.0859375"/><stop stop-opacity="1" stop-color="rgb(19.978333%, 39.483643%, 52.01416%)" offset="0.09375"/><stop stop-opacity="1" stop-color="rgb(19.810486%, 39.730835%, 51.841736%)" offset="0.101562"/><stop stop-opacity="1" stop-color="rgb(19.644165%, 39.978027%, 51.669312%)" offset="0.109375"/><stop stop-opacity="1" stop-color="rgb(19.477844%, 40.223694%, 51.496887%)" offset="0.117187"/><stop stop-opacity="1" stop-color="rgb(19.309998%, 40.470886%, 51.324463%)" offset="0.125"/><stop stop-opacity="1" stop-color="rgb(19.143677%, 40.718079%, 51.152039%)" offset="0.132812"/><stop stop-opacity="1" stop-color="rgb(18.97583%, 40.965271%, 50.979614%)" offset="0.140625"/><stop stop-opacity="1" stop-color="rgb(18.809509%, 41.210938%, 50.80719%)" offset="0.148437"/><stop stop-opacity="1" stop-color="rgb(18.641663%, 41.45813%, 50.634766%)" offset="0.15625"/><stop stop-opacity="1" stop-color="rgb(18.475342%, 41.705322%, 50.462341%)" offset="0.164062"/><stop stop-opacity="1" stop-color="rgb(18.307495%, 41.950989%, 50.289917%)" offset="0.171875"/><stop stop-opacity="1" stop-color="rgb(18.141174%, 42.198181%, 50.117493%)" offset="0.179687"/><stop stop-opacity="1" stop-color="rgb(17.973328%, 42.445374%, 49.945068%)" offset="0.1875"/><stop stop-opacity="1" stop-color="rgb(17.807007%, 42.692566%, 49.772644%)" offset="0.195312"/><stop stop-opacity="1" stop-color="rgb(17.63916%, 42.938232%, 49.60022%)" offset="0.203125"/><stop stop-opacity="1" stop-color="rgb(17.472839%, 43.185425%, 49.427795%)" offset="0.210937"/><stop stop-opacity="1" stop-color="rgb(17.304993%, 43.432617%, 49.255371%)" offset="0.21875"/><stop stop-opacity="1" stop-color="rgb(17.138672%, 43.678284%, 49.082947%)" offset="0.226562"/><stop stop-opacity="1" stop-color="rgb(16.970825%, 43.925476%, 48.912048%)" offset="0.234375"/><stop stop-opacity="1" stop-color="rgb(16.804504%, 44.172668%, 48.739624%)" offset="0.242188"/><stop stop-opacity="1" stop-color="rgb(16.638184%, 44.419861%, 48.5672%)" offset="0.25"/><stop stop-opacity="1" stop-color="rgb(16.470337%, 44.665527%, 48.394775%)" offset="0.257812"/><stop stop-opacity="1" stop-color="rgb(16.304016%, 44.91272%, 48.222351%)" offset="0.265625"/><stop stop-opacity="1" stop-color="rgb(16.136169%, 45.159912%, 48.049927%)" offset="0.273438"/><stop stop-opacity="1" stop-color="rgb(15.969849%, 45.405579%, 47.877502%)" offset="0.28125"/><stop stop-opacity="1" stop-color="rgb(15.802002%, 45.652771%, 47.705078%)" offset="0.289063"/><stop stop-opacity="1" stop-color="rgb(15.635681%, 45.899963%, 47.532654%)" offset="0.296875"/><stop stop-opacity="1" stop-color="rgb(15.467834%, 46.147156%, 47.360229%)" offset="0.304688"/><stop stop-opacity="1" stop-color="rgb(15.301514%, 46.392822%, 47.187805%)" offset="0.3125"/><stop stop-opacity="1" stop-color="rgb(15.133667%, 46.640015%, 47.015381%)" offset="0.320313"/><stop stop-opacity="1" stop-color="rgb(14.967346%, 46.887207%, 46.842957%)" offset="0.328125"/><stop stop-opacity="1" stop-color="rgb(14.7995%, 47.132874%, 46.670532%)" offset="0.335938"/><stop stop-opacity="1" stop-color="rgb(14.633179%, 47.380066%, 46.498108%)" offset="0.34375"/><stop stop-opacity="1" stop-color="rgb(14.465332%, 47.627258%, 46.325684%)" offset="0.351563"/><stop stop-opacity="1" stop-color="rgb(14.299011%, 47.874451%, 46.153259%)" offset="0.359375"/><stop stop-opacity="1" stop-color="rgb(14.13269%, 48.120117%, 45.980835%)" offset="0.367188"/><stop stop-opacity="1" stop-color="rgb(13.964844%, 48.36731%, 45.808411%)" offset="0.375"/><stop stop-opacity="1" stop-color="rgb(13.798523%, 48.614502%, 45.635986%)" offset="0.382813"/><stop stop-opacity="1" stop-color="rgb(13.630676%, 48.860168%, 45.463562%)" offset="0.390625"/><stop stop-opacity="1" stop-color="rgb(13.464355%, 49.107361%, 45.292664%)" offset="0.398438"/><stop stop-opacity="1" stop-color="rgb(13.296509%, 49.354553%, 45.120239%)" offset="0.40625"/><stop stop-opacity="1" stop-color="rgb(13.130188%, 49.601746%, 44.947815%)" offset="0.414063"/><stop stop-opacity="1" stop-color="rgb(12.962341%, 49.847412%, 44.775391%)" offset="0.421875"/><stop stop-opacity="1" stop-color="rgb(12.796021%, 50.094604%, 44.602966%)" offset="0.429688"/><stop stop-opacity="1" stop-color="rgb(12.628174%, 50.341797%, 44.430542%)" offset="0.4375"/><stop stop-opacity="1" stop-color="rgb(12.461853%, 50.587463%, 44.258118%)" offset="0.445313"/><stop stop-opacity="1" stop-color="rgb(12.294006%, 50.834656%, 44.085693%)" offset="0.453125"/><stop stop-opacity="1" stop-color="rgb(12.127686%, 51.081848%, 43.913269%)" offset="0.460938"/><stop stop-opacity="1" stop-color="rgb(11.959839%, 51.329041%, 43.740845%)" offset="0.46875"/><stop stop-opacity="1" stop-color="rgb(11.793518%, 51.574707%, 43.56842%)" offset="0.476563"/><stop stop-opacity="1" stop-color="rgb(11.625671%, 51.821899%, 43.395996%)" offset="0.484375"/><stop stop-opacity="1" stop-color="rgb(11.459351%, 52.069092%, 43.223572%)" offset="0.492188"/><stop stop-opacity="1" stop-color="rgb(11.29303%, 52.314758%, 43.051147%)" offset="0.5"/><stop stop-opacity="1" stop-color="rgb(11.125183%, 52.561951%, 42.878723%)" offset="0.507812"/><stop stop-opacity="1" stop-color="rgb(10.958862%, 52.809143%, 42.706299%)" offset="0.515625"/><stop stop-opacity="1" stop-color="rgb(10.791016%, 53.056335%, 42.533875%)" offset="0.523438"/><stop stop-opacity="1" stop-color="rgb(10.624695%, 53.302002%, 42.36145%)" offset="0.53125"/><stop stop-opacity="1" stop-color="rgb(10.456848%, 53.549194%, 42.189026%)" offset="0.539062"/><stop stop-opacity="1" stop-color="rgb(10.290527%, 53.796387%, 42.016602%)" offset="0.546875"/><stop stop-opacity="1" stop-color="rgb(10.122681%, 54.042053%, 41.844177%)" offset="0.554688"/><stop stop-opacity="1" stop-color="rgb(9.95636%, 54.289246%, 41.673279%)" offset="0.5625"/><stop stop-opacity="1" stop-color="rgb(9.788513%, 54.536438%, 41.500854%)" offset="0.570312"/><stop stop-opacity="1" stop-color="rgb(9.622192%, 54.78363%, 41.32843%)" offset="0.578125"/><stop stop-opacity="1" stop-color="rgb(9.454346%, 55.029297%, 41.156006%)" offset="0.585938"/><stop stop-opacity="1" stop-color="rgb(9.288025%, 55.276489%, 40.983582%)" offset="0.59375"/><stop stop-opacity="1" stop-color="rgb(9.120178%, 55.523682%, 40.811157%)" offset="0.601562"/><stop stop-opacity="1" stop-color="rgb(8.953857%, 55.769348%, 40.638733%)" offset="0.609375"/><stop stop-opacity="1" stop-color="rgb(8.787537%, 56.016541%, 40.466309%)" offset="0.617188"/><stop stop-opacity="1" stop-color="rgb(8.61969%, 56.263733%, 40.293884%)" offset="0.625"/><stop stop-opacity="1" stop-color="rgb(8.453369%, 56.510925%, 40.12146%)" offset="0.632812"/><stop stop-opacity="1" stop-color="rgb(8.285522%, 56.756592%, 39.949036%)" offset="0.640625"/><stop stop-opacity="1" stop-color="rgb(8.119202%, 57.003784%, 39.776611%)" offset="0.648438"/><stop stop-opacity="1" stop-color="rgb(7.951355%, 57.250977%, 39.604187%)" offset="0.65625"/><stop stop-opacity="1" stop-color="rgb(7.785034%, 57.496643%, 39.431763%)" offset="0.664062"/><stop stop-opacity="1" stop-color="rgb(7.617188%, 57.743835%, 39.259338%)" offset="0.671875"/><stop stop-opacity="1" stop-color="rgb(7.450867%, 57.991028%, 39.086914%)" offset="0.679688"/><stop stop-opacity="1" stop-color="rgb(7.28302%, 58.23822%, 38.91449%)" offset="0.6875"/><stop stop-opacity="1" stop-color="rgb(7.116699%, 58.483887%, 38.742065%)" offset="0.695312"/><stop stop-opacity="1" stop-color="rgb(6.948853%, 58.731079%, 38.569641%)" offset="0.703125"/><stop stop-opacity="1" stop-color="rgb(6.782532%, 58.978271%, 38.397217%)" offset="0.710938"/><stop stop-opacity="1" stop-color="rgb(6.614685%, 59.223938%, 38.224792%)" offset="0.71875"/><stop stop-opacity="1" stop-color="rgb(6.448364%, 59.47113%, 38.053894%)" offset="0.726562"/><stop stop-opacity="1" stop-color="rgb(6.280518%, 59.718323%, 37.88147%)" offset="0.734375"/><stop stop-opacity="1" stop-color="rgb(6.114197%, 59.965515%, 37.709045%)" offset="0.742188"/><stop stop-opacity="1" stop-color="rgb(5.947876%, 60.211182%, 37.536621%)" offset="0.75"/><stop stop-opacity="1" stop-color="rgb(5.780029%, 60.458374%, 37.364197%)" offset="0.757812"/><stop stop-opacity="1" stop-color="rgb(5.613708%, 60.705566%, 37.191772%)" offset="0.765625"/><stop stop-opacity="1" stop-color="rgb(5.445862%, 60.951233%, 37.019348%)" offset="0.773438"/><stop stop-opacity="1" stop-color="rgb(5.279541%, 61.198425%, 36.846924%)" offset="0.78125"/><stop stop-opacity="1" stop-color="rgb(5.111694%, 61.445618%, 36.6745%)" offset="0.789062"/><stop stop-opacity="1" stop-color="rgb(4.945374%, 61.69281%, 36.502075%)" offset="0.796875"/><stop stop-opacity="1" stop-color="rgb(4.777527%, 61.938477%, 36.329651%)" offset="0.804688"/><stop stop-opacity="1" stop-color="rgb(4.611206%, 62.185669%, 36.157227%)" offset="0.8125"/><stop stop-opacity="1" stop-color="rgb(4.443359%, 62.432861%, 35.984802%)" offset="0.820312"/><stop stop-opacity="1" stop-color="rgb(4.277039%, 62.680054%, 35.812378%)" offset="0.828125"/><stop stop-opacity="1" stop-color="rgb(4.109192%, 62.92572%, 35.639954%)" offset="0.835938"/><stop stop-opacity="1" stop-color="rgb(3.942871%, 63.172913%, 35.467529%)" offset="0.84375"/><stop stop-opacity="1" stop-color="rgb(3.775024%, 63.420105%, 35.295105%)" offset="0.851562"/><stop stop-opacity="1" stop-color="rgb(3.608704%, 63.665771%, 35.122681%)" offset="0.859375"/><stop stop-opacity="1" stop-color="rgb(3.440857%, 63.912964%, 34.950256%)" offset="0.867188"/><stop stop-opacity="1" stop-color="rgb(3.274536%, 64.160156%, 34.777832%)" offset="0.875"/><stop stop-opacity="1" stop-color="rgb(3.108215%, 64.407349%, 34.605408%)" offset="0.882812"/><stop stop-opacity="1" stop-color="rgb(2.940369%, 64.653015%, 34.434509%)" offset="0.890625"/><stop stop-opacity="1" stop-color="rgb(2.774048%, 64.900208%, 34.262085%)" offset="0.898438"/><stop stop-opacity="1" stop-color="rgb(2.606201%, 65.1474%, 34.089661%)" offset="0.90625"/><stop stop-opacity="1" stop-color="rgb(2.43988%, 65.393066%, 33.917236%)" offset="0.914062"/><stop stop-opacity="1" stop-color="rgb(2.272034%, 65.640259%, 33.744812%)" offset="0.921875"/><stop stop-opacity="1" stop-color="rgb(2.105713%, 65.887451%, 33.572388%)" offset="0.929688"/><stop stop-opacity="1" stop-color="rgb(1.937866%, 66.134644%, 33.399963%)" offset="0.9375"/><stop stop-opacity="1" stop-color="rgb(1.771545%, 66.38031%, 33.227539%)" offset="0.945312"/><stop stop-opacity="1" stop-color="rgb(1.603699%, 66.627502%, 33.055115%)" offset="0.953125"/><stop stop-opacity="1" stop-color="rgb(1.437378%, 66.874695%, 32.88269%)" offset="0.960938"/><stop stop-opacity="1" stop-color="rgb(1.269531%, 67.120361%, 32.710266%)" offset="0.96875"/><stop stop-opacity="1" stop-color="rgb(1.10321%, 67.367554%, 32.537842%)" offset="0.976562"/><stop stop-opacity="1" stop-color="rgb(0.935364%, 67.614746%, 32.365417%)" offset="0.984375"/><stop stop-opacity="1" stop-color="rgb(0.769043%, 67.861938%, 32.192993%)" offset="0.992188"/><stop stop-opacity="1" stop-color="rgb(0.602722%, 68.107605%, 32.020569%)" offset="1"/></linearGradient><clipPath id="id7"><path d="M 100.640625 53.390625 L 175.332031 53.390625 L 175.332031 128.085938 L 100.640625 128.085938 Z M 100.640625 53.390625 " clip-rule="nonzero"/></clipPath></defs><g clip-path="url(#id1)"><path fill="#ffffff" d="M 0.566406 0 L 275.433594 0 L 275.433594 188.972656 L 0.566406 188.972656 Z M 0.566406 0 " fill-opacity="1" fill-rule="nonzero"/><path fill="#ffffff" d="M 0.566406 0 L 275.433594 0 L 275.433594 181.503906 L 0.566406 181.503906 Z M 0.566406 0 " fill-opacity="1" fill-rule="nonzero"/><path fill="#ffffff" d="M 0.566406 0 L 275.433594 0 L 275.433594 181.503906 L 0.566406 181.503906 Z M 0.566406 0 " fill-opacity="1" fill-rule="nonzero"/><path fill="#ffffff" d="M 0.566406 0 L 275.433594 0 L 275.433594 181.503906 L 0.566406 181.503906 Z M 0.566406 0 " fill-opacity="1" fill-rule="nonzero"/></g><g clip-path="url(#id2)"><g clip-path="url(#id3)"><g clip-path="url(#id4)"><g clip-path="url(#id5)"><path fill="url(#id6)" d="M 57.644531 -111.496094 L -73.058594 143.8125 L 218.355469 293 L 349.058594 37.691406 Z M 57.644531 -111.496094 " fill-rule="nonzero"/></g></g></g></g><path fill="#ffffff" d="M 116.203125 80.78125 L 116.824219 80.78125 L 116.824219 82.023438 C 116.824219 82.710938 117.382812 83.269531 118.070312 83.269531 C 118.757812 83.269531 119.3125 82.710938 119.3125 82.023438 L 119.3125 80.78125 L 119.9375 80.78125 C 122.339844 80.78125 124.292969 78.824219 124.292969 76.421875 C 124.292969 74.019531 122.339844 72.066406 119.9375 72.066406 L 119.3125 72.066406 L 119.3125 68.332031 L 119.9375 68.332031 C 120.964844 68.332031 121.804688 69.167969 121.804688 70.199219 L 121.804688 70.820312 C 121.804688 71.507812 122.359375 72.066406 123.046875 72.066406 C 123.734375 72.066406 124.292969 71.507812 124.292969 70.820312 L 124.292969 70.199219 C 124.292969 67.796875 122.339844 65.839844 119.9375 65.839844 L 119.3125 65.839844 L 119.3125 64.597656 C 119.3125 63.910156 118.757812 63.351562 118.070312 63.351562 C 117.382812 63.351562 116.824219 63.910156 116.824219 64.597656 L 116.824219 65.839844 L 116.203125 65.839844 C 113.800781 65.839844 111.84375 67.796875 111.84375 70.199219 C 111.84375 72.601562 113.800781 74.554688 116.203125 74.554688 L 116.824219 74.554688 L 116.824219 78.289062 L 116.203125 78.289062 C 115.171875 78.289062 114.335938 77.453125 114.335938 76.421875 L 114.335938 75.800781 C 114.335938 75.113281 113.777344 74.554688 113.089844 74.554688 C 112.402344 74.554688 111.84375 75.113281 111.84375 75.800781 L 111.84375 76.421875 C 111.84375 78.824219 113.800781 80.78125 116.203125 80.78125 Z M 119.3125 74.554688 L 119.9375 74.554688 C 120.964844 74.554688 121.804688 75.394531 121.804688 76.421875 C 121.804688 77.453125 120.964844 78.289062 119.9375 78.289062 L 119.3125 78.289062 Z M 116.203125 72.066406 C 115.171875 72.066406 114.335938 71.226562 114.335938 70.199219 C 114.335938 69.167969 115.171875 68.332031 116.203125 68.332031 L 116.824219 68.332031 L 116.824219 72.066406 Z M 116.203125 72.066406 " fill-opacity="1" fill-rule="nonzero"/><path fill="#ffffff" d="M 136.742188 65.839844 L 142.964844 65.839844 C 143.652344 65.839844 144.210938 65.285156 144.210938 64.597656 C 144.210938 63.910156 143.652344 63.351562 142.964844 63.351562 L 136.742188 63.351562 C 136.054688 63.351562 135.496094 63.910156 135.496094 64.597656 C 135.496094 65.285156 136.054688 65.839844 136.742188 65.839844 Z M 136.742188 65.839844 " fill-opacity="1" fill-rule="nonzero"/><path fill="#ffffff" d="M 128.027344 70.820312 L 142.964844 70.820312 C 143.652344 70.820312 144.210938 70.261719 144.210938 69.574219 C 144.210938 68.886719 143.652344 68.332031 142.964844 68.332031 L 128.027344 68.332031 C 127.339844 68.332031 126.785156 68.886719 126.785156 69.574219 C 126.785156 70.261719 127.339844 70.820312 128.027344 70.820312 Z M 128.027344 70.820312 " fill-opacity="1" fill-rule="nonzero"/><path fill="#ffffff" d="M 128.027344 75.800781 L 142.964844 75.800781 C 143.652344 75.800781 144.210938 75.242188 144.210938 74.554688 C 144.210938 73.867188 143.652344 73.308594 142.964844 73.308594 L 128.027344 73.308594 C 127.339844 73.308594 126.785156 73.867188 126.785156 74.554688 C 126.785156 75.242188 127.339844 75.800781 128.027344 75.800781 Z M 128.027344 75.800781 " fill-opacity="1" fill-rule="nonzero"/><path fill="#ffffff" d="M 128.027344 80.78125 L 142.964844 80.78125 C 143.652344 80.78125 144.210938 80.222656 144.210938 79.535156 C 144.210938 78.847656 143.652344 78.289062 142.964844 78.289062 L 128.027344 78.289062 C 127.339844 78.289062 126.785156 78.847656 126.785156 79.535156 C 126.785156 80.222656 127.339844 80.78125 128.027344 80.78125 Z M 128.027344 80.78125 " fill-opacity="1" fill-rule="nonzero"/><path fill="#ffffff" d="M 113.089844 99.453125 L 134.253906 99.453125 C 134.941406 99.453125 135.496094 98.894531 135.496094 98.207031 C 135.496094 97.519531 134.941406 96.964844 134.253906 96.964844 L 130.519531 96.964844 L 130.519531 87.003906 C 130.519531 86.316406 129.960938 85.757812 129.273438 85.757812 C 128.585938 85.757812 128.027344 86.316406 128.027344 87.003906 L 128.027344 96.964844 L 126.785156 96.964844 L 126.785156 91.984375 C 126.785156 91.296875 126.226562 90.738281 125.539062 90.738281 C 124.851562 90.738281 124.292969 91.296875 124.292969 91.984375 L 124.292969 96.964844 L 123.046875 96.964844 L 123.046875 90.738281 C 123.046875 90.050781 122.492188 89.492188 121.804688 89.492188 C 121.117188 89.492188 120.558594 90.050781 120.558594 90.738281 L 120.558594 96.964844 L 119.3125 96.964844 L 119.3125 94.472656 C 119.3125 93.785156 118.757812 93.226562 118.070312 93.226562 C 117.382812 93.226562 116.824219 93.785156 116.824219 94.472656 L 116.824219 96.964844 L 114.335938 96.964844 L 114.335938 84.515625 C 114.335938 83.828125 113.777344 83.269531 113.089844 83.269531 C 112.402344 83.269531 111.84375 83.828125 111.84375 84.515625 L 111.84375 98.207031 C 111.84375 98.894531 112.402344 99.453125 113.089844 99.453125 Z M 113.089844 99.453125 " fill-opacity="1" fill-rule="nonzero"/><path fill="#ffffff" d="M 128.027344 113.144531 L 121.804688 113.144531 L 121.804688 106.921875 C 121.804688 106.234375 121.246094 105.675781 120.558594 105.675781 C 115.753906 105.675781 111.84375 109.585938 111.84375 114.390625 C 111.84375 119.195312 115.753906 123.105469 120.558594 123.105469 C 125.363281 123.105469 129.273438 119.195312 129.273438 114.390625 C 129.273438 113.703125 128.714844 113.144531 128.027344 113.144531 Z M 120.558594 120.617188 C 117.125 120.617188 114.335938 117.824219 114.335938 114.390625 C 114.335938 111.386719 116.476562 108.871094 119.3125 108.292969 L 119.3125 114.390625 C 119.3125 115.078125 119.871094 115.636719 120.558594 115.636719 L 126.65625 115.636719 C 126.078125 118.472656 123.566406 120.617188 120.558594 120.617188 Z M 120.558594 120.617188 " fill-opacity="1" fill-rule="nonzero"/><path fill="#ffffff" d="M 123.046875 103.1875 L 123.046875 110.65625 C 123.046875 111.34375 123.605469 111.902344 124.292969 111.902344 L 131.761719 111.902344 C 132.449219 111.902344 133.007812 111.34375 133.007812 110.65625 C 133.007812 105.851562 129.097656 101.941406 124.292969 101.941406 C 123.605469 101.941406 123.046875 102.5 123.046875 103.1875 Z M 125.539062 104.558594 C 127.972656 105.054688 129.894531 106.976562 130.394531 109.410156 L 125.539062 109.410156 Z M 125.539062 104.558594 " fill-opacity="1" fill-rule="nonzero"/><g clip-path="url(#id7)"><path fill="#ffffff" d="M 172.53125 88.25 L 161.640625 88.25 L 161.640625 85.03125 C 162.792969 85.5 164.054688 85.757812 165.375 85.757812 C 170.867188 85.757812 175.332031 81.292969 175.332031 75.800781 C 175.332031 70.308594 170.867188 65.839844 165.375 65.839844 C 162.757812 65.839844 160.378906 66.855469 158.601562 68.507812 L 155.414062 65.324219 L 155.414062 54.636719 C 155.414062 53.949219 154.859375 53.390625 154.171875 53.390625 L 101.886719 53.390625 C 101.199219 53.390625 100.640625 53.949219 100.640625 54.636719 L 100.640625 121.859375 C 100.640625 122.546875 101.199219 123.105469 101.886719 123.105469 L 106.863281 123.105469 L 106.863281 126.839844 C 106.863281 127.527344 107.421875 128.085938 108.109375 128.085938 L 172.53125 128.085938 C 174.078125 128.085938 175.332031 126.828125 175.332031 125.285156 L 175.332031 91.050781 C 175.332031 89.503906 174.078125 88.25 172.53125 88.25 Z M 165.375 68.332031 C 169.492188 68.332031 172.84375 71.679688 172.84375 75.800781 C 172.84375 79.917969 169.492188 83.269531 165.375 83.269531 C 161.257812 83.269531 157.90625 79.917969 157.90625 75.800781 C 157.90625 71.679688 161.257812 68.332031 165.375 68.332031 Z M 156.996094 70.425781 C 156.914062 70.554688 156.832031 70.6875 156.753906 70.820312 L 149.191406 70.820312 L 149.191406 62.621094 Z M 106.863281 59.617188 L 106.863281 120.617188 L 103.128906 120.617188 L 103.128906 55.882812 L 152.925781 55.882812 L 152.925781 62.835938 L 148.828125 58.738281 C 148.59375 58.503906 148.277344 58.371094 147.945312 58.371094 L 108.109375 58.371094 C 107.421875 58.371094 106.863281 58.929688 106.863281 59.617188 Z M 146.71875 125.59375 L 109.355469 125.59375 L 109.355469 60.863281 L 146.703125 60.863281 L 146.703125 72.066406 C 146.703125 72.753906 147.257812 73.308594 147.945312 73.308594 L 155.730469 73.308594 C 155.523438 74.105469 155.414062 74.941406 155.414062 75.800781 C 155.414062 76.675781 155.53125 77.523438 155.742188 78.335938 C 155.640625 78.304688 155.527344 78.289062 155.414062 78.289062 L 149.191406 78.289062 C 148.503906 78.289062 147.945312 78.847656 147.945312 79.535156 C 147.945312 80.222656 148.503906 80.78125 149.191406 80.78125 L 155.414062 80.78125 C 155.847656 80.78125 156.230469 80.558594 156.453125 80.222656 C 157.101562 81.523438 158.027344 82.664062 159.148438 83.566406 L 159.148438 88.25 L 149.503906 88.25 C 147.957031 88.25 146.703125 89.503906 146.703125 91.050781 L 146.703125 125.285156 C 146.703125 125.390625 146.707031 125.492188 146.71875 125.59375 Z M 172.84375 125.285156 C 172.84375 125.457031 172.703125 125.59375 172.53125 125.59375 L 149.503906 125.59375 C 149.332031 125.59375 149.191406 125.457031 149.191406 125.285156 L 149.191406 91.050781 C 149.191406 90.878906 149.332031 90.738281 149.503906 90.738281 L 172.53125 90.738281 C 172.703125 90.738281 172.84375 90.878906 172.84375 91.050781 Z M 172.84375 125.285156 " fill-opacity="1" fill-rule="nonzero"/></g><path fill="#ffffff" d="M 170.355469 91.984375 L 151.679688 91.984375 C 150.992188 91.984375 150.4375 92.539062 150.4375 93.226562 L 150.4375 100.699219 C 150.4375 101.386719 150.992188 101.941406 151.679688 101.941406 L 170.355469 101.941406 C 171.042969 101.941406 171.597656 101.386719 171.597656 100.699219 L 171.597656 93.226562 C 171.597656 92.539062 171.042969 91.984375 170.355469 91.984375 Z M 169.109375 99.453125 L 152.925781 99.453125 L 152.925781 94.472656 L 169.109375 94.472656 Z M 169.109375 99.453125 " fill-opacity="1" fill-rule="nonzero"/><path fill="#ffffff" d="M 155.414062 103.1875 L 151.679688 103.1875 C 150.992188 103.1875 150.4375 103.746094 150.4375 104.433594 L 150.4375 108.167969 C 150.4375 108.855469 150.992188 109.410156 151.679688 109.410156 L 155.414062 109.410156 C 156.101562 109.410156 156.660156 108.855469 156.660156 108.167969 L 156.660156 104.433594 C 156.660156 103.746094 156.101562 103.1875 155.414062 103.1875 Z M 154.171875 106.921875 L 152.925781 106.921875 L 152.925781 105.675781 L 154.171875 105.675781 Z M 154.171875 106.921875 " fill-opacity="1" fill-rule="nonzero"/><path fill="#ffffff" d="M 162.882812 103.1875 L 159.148438 103.1875 C 158.460938 103.1875 157.90625 103.746094 157.90625 104.433594 L 157.90625 108.167969 C 157.90625 108.855469 158.460938 109.410156 159.148438 109.410156 L 162.882812 109.410156 C 163.570312 109.410156 164.128906 108.855469 164.128906 108.167969 L 164.128906 104.433594 C 164.128906 103.746094 163.570312 103.1875 162.882812 103.1875 Z M 161.640625 106.921875 L 160.394531 106.921875 L 160.394531 105.675781 L 161.640625 105.675781 Z M 161.640625 106.921875 " fill-opacity="1" fill-rule="nonzero"/><path fill="#ffffff" d="M 170.355469 103.1875 L 166.621094 103.1875 C 165.933594 103.1875 165.375 103.746094 165.375 104.433594 L 165.375 108.167969 C 165.375 108.855469 165.933594 109.410156 166.621094 109.410156 L 170.355469 109.410156 C 171.042969 109.410156 171.597656 108.855469 171.597656 108.167969 L 171.597656 104.433594 C 171.597656 103.746094 171.042969 103.1875 170.355469 103.1875 Z M 169.109375 106.921875 L 167.863281 106.921875 L 167.863281 105.675781 L 169.109375 105.675781 Z M 169.109375 106.921875 " fill-opacity="1" fill-rule="nonzero"/><path fill="#ffffff" d="M 155.414062 110.65625 L 151.679688 110.65625 C 150.992188 110.65625 150.4375 111.214844 150.4375 111.902344 L 150.4375 115.636719 C 150.4375 116.324219 150.992188 116.882812 151.679688 116.882812 L 155.414062 116.882812 C 156.101562 116.882812 156.660156 116.324219 156.660156 115.636719 L 156.660156 111.902344 C 156.660156 111.214844 156.101562 110.65625 155.414062 110.65625 Z M 154.171875 114.390625 L 152.925781 114.390625 L 152.925781 113.144531 L 154.171875 113.144531 Z M 154.171875 114.390625 " fill-opacity="1" fill-rule="nonzero"/><path fill="#ffffff" d="M 162.882812 110.65625 L 159.148438 110.65625 C 158.460938 110.65625 157.90625 111.214844 157.90625 111.902344 L 157.90625 115.636719 C 157.90625 116.324219 158.460938 116.882812 159.148438 116.882812 L 162.882812 116.882812 C 163.570312 116.882812 164.128906 116.324219 164.128906 115.636719 L 164.128906 111.902344 C 164.128906 111.214844 163.570312 110.65625 162.882812 110.65625 Z M 161.640625 114.390625 L 160.394531 114.390625 L 160.394531 113.144531 L 161.640625 113.144531 Z M 161.640625 114.390625 " fill-opacity="1" fill-rule="nonzero"/><path fill="#ffffff" d="M 170.355469 110.65625 L 166.621094 110.65625 C 165.933594 110.65625 165.375 111.214844 165.375 111.902344 L 165.375 115.636719 C 165.375 116.324219 165.933594 116.882812 166.621094 116.882812 L 170.355469 116.882812 C 171.042969 116.882812 171.597656 116.324219 171.597656 115.636719 L 171.597656 111.902344 C 171.597656 111.214844 171.042969 110.65625 170.355469 110.65625 Z M 169.109375 114.390625 L 167.863281 114.390625 L 167.863281 113.144531 L 169.109375 113.144531 Z M 169.109375 114.390625 " fill-opacity="1" fill-rule="nonzero"/><path fill="#ffffff" d="M 155.414062 118.125 L 151.679688 118.125 C 150.992188 118.125 150.4375 118.683594 150.4375 119.371094 L 150.4375 123.105469 C 150.4375 123.792969 150.992188 124.351562 151.679688 124.351562 L 155.414062 124.351562 C 156.101562 124.351562 156.660156 123.792969 156.660156 123.105469 L 156.660156 119.371094 C 156.660156 118.683594 156.101562 118.125 155.414062 118.125 Z M 154.171875 121.859375 L 152.925781 121.859375 L 152.925781 120.617188 L 154.171875 120.617188 Z M 154.171875 121.859375 " fill-opacity="1" fill-rule="nonzero"/><path fill="#ffffff" d="M 162.882812 118.125 L 159.148438 118.125 C 158.460938 118.125 157.90625 118.683594 157.90625 119.371094 L 157.90625 123.105469 C 157.90625 123.792969 158.460938 124.351562 159.148438 124.351562 L 162.882812 124.351562 C 163.570312 124.351562 164.128906 123.792969 164.128906 123.105469 L 164.128906 119.371094 C 164.128906 118.683594 163.570312 118.125 162.882812 118.125 Z M 161.640625 121.859375 L 160.394531 121.859375 L 160.394531 120.617188 L 161.640625 120.617188 Z M 161.640625 121.859375 " fill-opacity="1" fill-rule="nonzero"/><path fill="#ffffff" d="M 170.355469 118.125 L 166.621094 118.125 C 165.933594 118.125 165.375 118.683594 165.375 119.371094 L 165.375 123.105469 C 165.375 123.792969 165.933594 124.351562 166.621094 124.351562 L 170.355469 124.351562 C 171.042969 124.351562 171.597656 123.792969 171.597656 123.105469 L 171.597656 119.371094 C 171.597656 118.683594 171.042969 118.125 170.355469 118.125 Z M 169.109375 121.859375 L 167.863281 121.859375 L 167.863281 120.617188 L 169.109375 120.617188 Z M 169.109375 121.859375 " fill-opacity="1" fill-rule="nonzero"/><path fill="#ffffff" d="M 156.660156 84.515625 C 156.660156 83.828125 156.101562 83.269531 155.414062 83.269531 L 135.496094 83.269531 C 134.808594 83.269531 134.253906 83.828125 134.253906 84.515625 C 134.253906 85.203125 134.808594 85.757812 135.496094 85.757812 L 155.414062 85.757812 C 156.101562 85.757812 156.660156 85.203125 156.660156 84.515625 Z M 156.660156 84.515625 " fill-opacity="1" fill-rule="nonzero"/><path fill="#ffffff" d="M 142.964844 88.25 L 135.496094 88.25 C 134.808594 88.25 134.253906 88.804688 134.253906 89.492188 C 134.253906 90.179688 134.808594 90.738281 135.496094 90.738281 L 142.964844 90.738281 C 143.652344 90.738281 144.210938 90.179688 144.210938 89.492188 C 144.210938 88.804688 143.652344 88.25 142.964844 88.25 Z M 142.964844 88.25 " fill-opacity="1" fill-rule="nonzero"/><path fill="#ffffff" d="M 139.230469 95.71875 C 139.917969 95.71875 140.476562 95.160156 140.476562 94.472656 C 140.476562 93.785156 139.917969 93.226562 139.230469 93.226562 L 135.496094 93.226562 C 134.808594 93.226562 134.253906 93.785156 134.253906 94.472656 C 134.253906 95.160156 134.808594 95.71875 135.496094 95.71875 Z M 139.230469 95.71875 " fill-opacity="1" fill-rule="nonzero"/><path fill="#ffffff" d="M 165.390625 78.289062 C 165.382812 78.289062 165.378906 78.289062 165.375 78.289062 C 165.367188 78.289062 165.363281 78.289062 165.359375 78.289062 L 164.128906 78.292969 C 164.128906 78.292969 164.128906 78.289062 164.128906 78.289062 C 164.128906 77.601562 163.570312 77.046875 162.882812 77.046875 C 162.195312 77.046875 161.640625 77.601562 161.640625 78.289062 C 161.640625 79.664062 162.757812 80.78125 164.128906 80.78125 C 164.128906 81.46875 164.6875 82.023438 165.375 82.023438 C 166.0625 82.023438 166.621094 81.46875 166.621094 80.78125 C 167.992188 80.78125 169.109375 79.664062 169.109375 78.289062 L 169.109375 77.046875 C 169.109375 75.671875 167.992188 74.554688 166.621094 74.554688 L 164.128906 74.554688 L 164.128906 73.308594 L 166.621094 73.308594 C 166.621094 73.996094 167.175781 74.554688 167.863281 74.554688 C 168.550781 74.554688 169.109375 73.996094 169.109375 73.308594 C 169.109375 71.9375 167.992188 70.820312 166.621094 70.820312 C 166.621094 70.132812 166.0625 69.574219 165.375 69.574219 C 164.6875 69.574219 164.128906 70.132812 164.128906 70.820312 C 162.757812 70.820312 161.640625 71.9375 161.640625 73.308594 L 161.640625 74.554688 C 161.640625 75.929688 162.757812 77.046875 164.128906 77.046875 L 166.621094 77.046875 L 166.621094 78.289062 Z M 165.390625 78.289062 " fill-opacity="1" fill-rule="nonzero"/><path fill="#ffffff" d="M 142.964844 105.675781 L 136.742188 105.675781 C 136.054688 105.675781 135.496094 106.234375 135.496094 106.921875 C 135.496094 107.609375 136.054688 108.167969 136.742188 108.167969 L 142.964844 108.167969 C 143.652344 108.167969 144.210938 107.609375 144.210938 106.921875 C 144.210938 106.234375 143.652344 105.675781 142.964844 105.675781 Z M 142.964844 105.675781 " fill-opacity="1" fill-rule="nonzero"/><path fill="#ffffff" d="M 142.964844 110.65625 L 135.496094 110.65625 C 134.808594 110.65625 134.253906 111.214844 134.253906 111.902344 C 134.253906 112.589844 134.808594 113.144531 135.496094 113.144531 L 142.964844 113.144531 C 143.652344 113.144531 144.210938 112.589844 144.210938 111.902344 C 144.210938 111.214844 143.652344 110.65625 142.964844 110.65625 Z M 142.964844 110.65625 " fill-opacity="1" fill-rule="nonzero"/><path fill="#ffffff" d="M 142.964844 115.636719 L 134.253906 115.636719 C 133.566406 115.636719 133.007812 116.195312 133.007812 116.882812 C 133.007812 117.570312 133.566406 118.125 134.253906 118.125 L 142.964844 118.125 C 143.652344 118.125 144.210938 117.570312 144.210938 116.882812 C 144.210938 116.195312 143.652344 115.636719 142.964844 115.636719 Z M 142.964844 115.636719 " fill-opacity="1" fill-rule="nonzero"/><path fill="#ffffff" d="M 142.964844 120.617188 L 131.761719 120.617188 C 131.074219 120.617188 130.519531 121.171875 130.519531 121.859375 C 130.519531 122.546875 131.074219 123.105469 131.761719 123.105469 L 142.964844 123.105469 C 143.652344 123.105469 144.210938 122.546875 144.210938 121.859375 C 144.210938 121.171875 143.652344 120.617188 142.964844 120.617188 Z M 142.964844 120.617188 " fill-opacity="1" fill-rule="nonzero"/><path fill="#ffffff" d="M 142.964844 100.699219 L 137.988281 100.699219 C 137.300781 100.699219 136.742188 101.253906 136.742188 101.941406 C 136.742188 102.628906 137.300781 103.1875 137.988281 103.1875 L 142.964844 103.1875 C 143.652344 103.1875 144.210938 102.628906 144.210938 101.941406 C 144.210938 101.253906 143.652344 100.699219 142.964844 100.699219 Z M 142.964844 100.699219 " fill-opacity="1" fill-rule="nonzero"/><path fill="#ffffff" d="M 165.375 63.351562 C 166.0625 63.351562 166.621094 62.792969 166.621094 62.105469 L 166.621094 58.371094 C 166.621094 57.683594 166.0625 57.128906 165.375 57.128906 C 164.6875 57.128906 164.128906 57.683594 164.128906 58.371094 L 164.128906 62.105469 C 164.128906 62.792969 164.6875 63.351562 165.375 63.351562 Z M 165.375 63.351562 " fill-opacity="1" fill-rule="nonzero"/><path fill="#ffffff" d="M 169.664062 64.386719 C 169.875 64.527344 170.117188 64.597656 170.351562 64.597656 C 170.753906 64.597656 171.148438 64.402344 171.390625 64.042969 L 173.878906 60.308594 C 174.261719 59.734375 174.105469 58.960938 173.535156 58.582031 C 172.960938 58.199219 172.1875 58.355469 171.808594 58.925781 L 169.316406 62.660156 C 168.9375 63.234375 169.089844 64.007812 169.664062 64.386719 Z M 169.664062 64.386719 " fill-opacity="1" fill-rule="nonzero"/><path fill="#ffffff" d="M 159.359375 64.042969 C 159.597656 64.402344 159.992188 64.597656 160.394531 64.597656 C 160.632812 64.597656 160.875 64.527344 161.085938 64.386719 C 161.65625 64.003906 161.8125 63.234375 161.429688 62.660156 L 158.941406 58.925781 C 158.558594 58.355469 157.785156 58.199219 157.214844 58.582031 C 156.640625 58.960938 156.488281 59.734375 156.871094 60.308594 Z M 159.359375 64.042969 " fill-opacity="1" fill-rule="nonzero"/></svg>