<svg xmlns="http://www.w3.org/2000/svg" xmlns:xlink="http://www.w3.org/1999/xlink" width="368" zoomAndPan="magnify" viewBox="0 0 276 182.249993" height="243" preserveAspectRatio="xMidYMid meet" version="1.0"><defs><clipPath id="id1"><path d="M 0.566406 0 L 275.433594 0 L 275.433594 181.503906 L 0.566406 181.503906 Z M 0.566406 0 " clip-rule="nonzero"/></clipPath><clipPath id="id2"><path d="M 0.566406 0 L 275.433594 0 L 275.433594 181.503906 L 0.566406 181.503906 Z M 0.566406 0 " clip-rule="nonzero"/></clipPath><clipPath id="id3"><path d="M 64.839844 -143.011719 L 364.695312 10.5 L 211.183594 310.351562 L -88.667969 156.84375 Z M 64.839844 -143.011719 " clip-rule="nonzero"/></clipPath><clipPath id="id4"><path d="M 64.839844 -143.011719 L 364.695312 10.5 L 211.183594 310.351562 L -88.667969 156.84375 Z M 64.839844 -143.011719 " clip-rule="nonzero"/></clipPath><clipPath id="id5"><path d="M 64.839844 -143.011719 L 364.695312 10.5 L 211.183594 310.351562 L -88.667969 156.84375 Z M 64.839844 -143.011719 " clip-rule="evenodd"/></clipPath><linearGradient x1="0.99547" gradientTransform="matrix(299.853513, 153.509032, -153.509032, 299.853513, 64.840682, -143.010673)" y1="0.5" x2="0.0236199" gradientUnits="userSpaceOnUse" y2="0.5" id="id6"><stop stop-opacity="1" stop-color="rgb(21.899414%, 36.647034%, 53.996277%)" offset="0"/><stop stop-opacity="1" stop-color="rgb(21.815491%, 36.769104%, 53.909302%)" offset="0.0078125"/><stop stop-opacity="1" stop-color="rgb(21.64917%, 37.016296%, 53.736877%)" offset="0.015625"/><stop stop-opacity="1" stop-color="rgb(21.481323%, 37.263489%, 53.564453%)" offset="0.0234375"/><stop stop-opacity="1" stop-color="rgb(21.315002%, 37.509155%, 53.392029%)" offset="0.03125"/><stop stop-opacity="1" stop-color="rgb(21.147156%, 37.756348%, 53.219604%)" offset="0.0390625"/><stop stop-opacity="1" stop-color="rgb(20.980835%, 38.00354%, 53.04718%)" offset="0.046875"/><stop stop-opacity="1" stop-color="rgb(20.812988%, 38.250732%, 52.874756%)" offset="0.0546875"/><stop stop-opacity="1" stop-color="rgb(20.646667%, 38.496399%, 52.702332%)" offset="0.0625"/><stop stop-opacity="1" stop-color="rgb(20.478821%, 38.743591%, 52.531433%)" offset="0.0703125"/><stop stop-opacity="1" stop-color="rgb(20.3125%, 38.990784%, 52.359009%)" offset="0.078125"/><stop stop-opacity="1" stop-color="rgb(20.144653%, 39.237976%, 52.186584%)" offset="0.0859375"/><stop stop-opacity="1" stop-color="rgb(19.978333%, 39.483643%, 52.01416%)" offset="0.09375"/><stop stop-opacity="1" stop-color="rgb(19.810486%, 39.730835%, 51.841736%)" offset="0.101562"/><stop stop-opacity="1" stop-color="rgb(19.644165%, 39.978027%, 51.669312%)" offset="0.109375"/><stop stop-opacity="1" stop-color="rgb(19.477844%, 40.223694%, 51.496887%)" offset="0.117187"/><stop stop-opacity="1" stop-color="rgb(19.309998%, 40.470886%, 51.324463%)" offset="0.125"/><stop stop-opacity="1" stop-color="rgb(19.143677%, 40.718079%, 51.152039%)" offset="0.132812"/><stop stop-opacity="1" stop-color="rgb(18.97583%, 40.965271%, 50.979614%)" offset="0.140625"/><stop stop-opacity="1" stop-color="rgb(18.809509%, 41.210938%, 50.80719%)" offset="0.148437"/><stop stop-opacity="1" stop-color="rgb(18.641663%, 41.45813%, 50.634766%)" offset="0.15625"/><stop stop-opacity="1" stop-color="rgb(18.475342%, 41.705322%, 50.462341%)" offset="0.164062"/><stop stop-opacity="1" stop-color="rgb(18.307495%, 41.950989%, 50.289917%)" offset="0.171875"/><stop stop-opacity="1" stop-color="rgb(18.141174%, 42.198181%, 50.117493%)" offset="0.179687"/><stop stop-opacity="1" stop-color="rgb(17.973328%, 42.445374%, 49.945068%)" offset="0.1875"/><stop stop-opacity="1" stop-color="rgb(17.807007%, 42.692566%, 49.772644%)" offset="0.195312"/><stop stop-opacity="1" stop-color="rgb(17.63916%, 42.938232%, 49.60022%)" offset="0.203125"/><stop stop-opacity="1" stop-color="rgb(17.472839%, 43.185425%, 49.427795%)" offset="0.210937"/><stop stop-opacity="1" stop-color="rgb(17.304993%, 43.432617%, 49.255371%)" offset="0.21875"/><stop stop-opacity="1" stop-color="rgb(17.138672%, 43.678284%, 49.082947%)" offset="0.226562"/><stop stop-opacity="1" stop-color="rgb(16.970825%, 43.925476%, 48.912048%)" offset="0.234375"/><stop stop-opacity="1" stop-color="rgb(16.804504%, 44.172668%, 48.739624%)" offset="0.242188"/><stop stop-opacity="1" stop-color="rgb(16.638184%, 44.419861%, 48.5672%)" offset="0.25"/><stop stop-opacity="1" stop-color="rgb(16.470337%, 44.665527%, 48.394775%)" offset="0.257812"/><stop stop-opacity="1" stop-color="rgb(16.304016%, 44.91272%, 48.222351%)" offset="0.265625"/><stop stop-opacity="1" stop-color="rgb(16.136169%, 45.159912%, 48.049927%)" offset="0.273438"/><stop stop-opacity="1" stop-color="rgb(15.969849%, 45.405579%, 47.877502%)" offset="0.28125"/><stop stop-opacity="1" stop-color="rgb(15.802002%, 45.652771%, 47.705078%)" offset="0.289063"/><stop stop-opacity="1" stop-color="rgb(15.635681%, 45.899963%, 47.532654%)" offset="0.296875"/><stop stop-opacity="1" stop-color="rgb(15.467834%, 46.147156%, 47.360229%)" offset="0.304688"/><stop stop-opacity="1" stop-color="rgb(15.301514%, 46.392822%, 47.187805%)" offset="0.3125"/><stop stop-opacity="1" stop-color="rgb(15.133667%, 46.640015%, 47.015381%)" offset="0.320313"/><stop stop-opacity="1" stop-color="rgb(14.967346%, 46.887207%, 46.842957%)" offset="0.328125"/><stop stop-opacity="1" stop-color="rgb(14.7995%, 47.132874%, 46.670532%)" offset="0.335938"/><stop stop-opacity="1" stop-color="rgb(14.633179%, 47.380066%, 46.498108%)" offset="0.34375"/><stop stop-opacity="1" stop-color="rgb(14.465332%, 47.627258%, 46.325684%)" offset="0.351563"/><stop stop-opacity="1" stop-color="rgb(14.299011%, 47.874451%, 46.153259%)" offset="0.359375"/><stop stop-opacity="1" stop-color="rgb(14.13269%, 48.120117%, 45.980835%)" offset="0.367188"/><stop stop-opacity="1" stop-color="rgb(13.964844%, 48.36731%, 45.808411%)" offset="0.375"/><stop stop-opacity="1" stop-color="rgb(13.798523%, 48.614502%, 45.635986%)" offset="0.382813"/><stop stop-opacity="1" stop-color="rgb(13.630676%, 48.860168%, 45.463562%)" offset="0.390625"/><stop stop-opacity="1" stop-color="rgb(13.464355%, 49.107361%, 45.292664%)" offset="0.398438"/><stop stop-opacity="1" stop-color="rgb(13.296509%, 49.354553%, 45.120239%)" offset="0.40625"/><stop stop-opacity="1" stop-color="rgb(13.130188%, 49.601746%, 44.947815%)" offset="0.414063"/><stop stop-opacity="1" stop-color="rgb(12.962341%, 49.847412%, 44.775391%)" offset="0.421875"/><stop stop-opacity="1" stop-color="rgb(12.796021%, 50.094604%, 44.602966%)" offset="0.429688"/><stop stop-opacity="1" stop-color="rgb(12.628174%, 50.341797%, 44.430542%)" offset="0.4375"/><stop stop-opacity="1" stop-color="rgb(12.461853%, 50.587463%, 44.258118%)" offset="0.445313"/><stop stop-opacity="1" stop-color="rgb(12.294006%, 50.834656%, 44.085693%)" offset="0.453125"/><stop stop-opacity="1" stop-color="rgb(12.127686%, 51.081848%, 43.913269%)" offset="0.460938"/><stop stop-opacity="1" stop-color="rgb(11.959839%, 51.329041%, 43.740845%)" offset="0.46875"/><stop stop-opacity="1" stop-color="rgb(11.793518%, 51.574707%, 43.56842%)" offset="0.476563"/><stop stop-opacity="1" stop-color="rgb(11.625671%, 51.821899%, 43.395996%)" offset="0.484375"/><stop stop-opacity="1" stop-color="rgb(11.459351%, 52.069092%, 43.223572%)" offset="0.492188"/><stop stop-opacity="1" stop-color="rgb(11.29303%, 52.314758%, 43.051147%)" offset="0.5"/><stop stop-opacity="1" stop-color="rgb(11.125183%, 52.561951%, 42.878723%)" offset="0.507812"/><stop stop-opacity="1" stop-color="rgb(10.958862%, 52.809143%, 42.706299%)" offset="0.515625"/><stop stop-opacity="1" stop-color="rgb(10.791016%, 53.056335%, 42.533875%)" offset="0.523438"/><stop stop-opacity="1" stop-color="rgb(10.624695%, 53.302002%, 42.36145%)" offset="0.53125"/><stop stop-opacity="1" stop-color="rgb(10.456848%, 53.549194%, 42.189026%)" offset="0.539062"/><stop stop-opacity="1" stop-color="rgb(10.290527%, 53.796387%, 42.016602%)" offset="0.546875"/><stop stop-opacity="1" stop-color="rgb(10.122681%, 54.042053%, 41.844177%)" offset="0.554688"/><stop stop-opacity="1" stop-color="rgb(9.95636%, 54.289246%, 41.673279%)" offset="0.5625"/><stop stop-opacity="1" stop-color="rgb(9.788513%, 54.536438%, 41.500854%)" offset="0.570312"/><stop stop-opacity="1" stop-color="rgb(9.622192%, 54.78363%, 41.32843%)" offset="0.578125"/><stop stop-opacity="1" stop-color="rgb(9.454346%, 55.029297%, 41.156006%)" offset="0.585938"/><stop stop-opacity="1" stop-color="rgb(9.288025%, 55.276489%, 40.983582%)" offset="0.59375"/><stop stop-opacity="1" stop-color="rgb(9.120178%, 55.523682%, 40.811157%)" offset="0.601562"/><stop stop-opacity="1" stop-color="rgb(8.953857%, 55.769348%, 40.638733%)" offset="0.609375"/><stop stop-opacity="1" stop-color="rgb(8.787537%, 56.016541%, 40.466309%)" offset="0.617188"/><stop stop-opacity="1" stop-color="rgb(8.61969%, 56.263733%, 40.293884%)" offset="0.625"/><stop stop-opacity="1" stop-color="rgb(8.453369%, 56.510925%, 40.12146%)" offset="0.632812"/><stop stop-opacity="1" stop-color="rgb(8.285522%, 56.756592%, 39.949036%)" offset="0.640625"/><stop stop-opacity="1" stop-color="rgb(8.119202%, 57.003784%, 39.776611%)" offset="0.648438"/><stop stop-opacity="1" stop-color="rgb(7.951355%, 57.250977%, 39.604187%)" offset="0.65625"/><stop stop-opacity="1" stop-color="rgb(7.785034%, 57.496643%, 39.431763%)" offset="0.664062"/><stop stop-opacity="1" stop-color="rgb(7.617188%, 57.743835%, 39.259338%)" offset="0.671875"/><stop stop-opacity="1" stop-color="rgb(7.450867%, 57.991028%, 39.086914%)" offset="0.679688"/><stop stop-opacity="1" stop-color="rgb(7.28302%, 58.23822%, 38.91449%)" offset="0.6875"/><stop stop-opacity="1" stop-color="rgb(7.116699%, 58.483887%, 38.742065%)" offset="0.695312"/><stop stop-opacity="1" stop-color="rgb(6.948853%, 58.731079%, 38.569641%)" offset="0.703125"/><stop stop-opacity="1" stop-color="rgb(6.782532%, 58.978271%, 38.397217%)" offset="0.710938"/><stop stop-opacity="1" stop-color="rgb(6.614685%, 59.223938%, 38.224792%)" offset="0.71875"/><stop stop-opacity="1" stop-color="rgb(6.448364%, 59.47113%, 38.053894%)" offset="0.726562"/><stop stop-opacity="1" stop-color="rgb(6.280518%, 59.718323%, 37.88147%)" offset="0.734375"/><stop stop-opacity="1" stop-color="rgb(6.114197%, 59.965515%, 37.709045%)" offset="0.742188"/><stop stop-opacity="1" stop-color="rgb(5.947876%, 60.211182%, 37.536621%)" offset="0.75"/><stop stop-opacity="1" stop-color="rgb(5.780029%, 60.458374%, 37.364197%)" offset="0.757812"/><stop stop-opacity="1" stop-color="rgb(5.613708%, 60.705566%, 37.191772%)" offset="0.765625"/><stop stop-opacity="1" stop-color="rgb(5.445862%, 60.951233%, 37.019348%)" offset="0.773438"/><stop stop-opacity="1" stop-color="rgb(5.279541%, 61.198425%, 36.846924%)" offset="0.78125"/><stop stop-opacity="1" stop-color="rgb(5.111694%, 61.445618%, 36.6745%)" offset="0.789062"/><stop stop-opacity="1" stop-color="rgb(4.945374%, 61.69281%, 36.502075%)" offset="0.796875"/><stop stop-opacity="1" stop-color="rgb(4.777527%, 61.938477%, 36.329651%)" offset="0.804688"/><stop stop-opacity="1" stop-color="rgb(4.611206%, 62.185669%, 36.157227%)" offset="0.8125"/><stop stop-opacity="1" stop-color="rgb(4.443359%, 62.432861%, 35.984802%)" offset="0.820312"/><stop stop-opacity="1" stop-color="rgb(4.277039%, 62.680054%, 35.812378%)" offset="0.828125"/><stop stop-opacity="1" stop-color="rgb(4.109192%, 62.92572%, 35.639954%)" offset="0.835938"/><stop stop-opacity="1" stop-color="rgb(3.942871%, 63.172913%, 35.467529%)" offset="0.84375"/><stop stop-opacity="1" stop-color="rgb(3.775024%, 63.420105%, 35.295105%)" offset="0.851562"/><stop stop-opacity="1" stop-color="rgb(3.608704%, 63.665771%, 35.122681%)" offset="0.859375"/><stop stop-opacity="1" stop-color="rgb(3.440857%, 63.912964%, 34.950256%)" offset="0.867188"/><stop stop-opacity="1" stop-color="rgb(3.274536%, 64.160156%, 34.777832%)" offset="0.875"/><stop stop-opacity="1" stop-color="rgb(3.108215%, 64.407349%, 34.605408%)" offset="0.882812"/><stop stop-opacity="1" stop-color="rgb(2.940369%, 64.653015%, 34.434509%)" offset="0.890625"/><stop stop-opacity="1" stop-color="rgb(2.774048%, 64.900208%, 34.262085%)" offset="0.898438"/><stop stop-opacity="1" stop-color="rgb(2.606201%, 65.1474%, 34.089661%)" offset="0.90625"/><stop stop-opacity="1" stop-color="rgb(2.43988%, 65.393066%, 33.917236%)" offset="0.914062"/><stop stop-opacity="1" stop-color="rgb(2.272034%, 65.640259%, 33.744812%)" offset="0.921875"/><stop stop-opacity="1" stop-color="rgb(2.105713%, 65.887451%, 33.572388%)" offset="0.929688"/><stop stop-opacity="1" stop-color="rgb(1.937866%, 66.134644%, 33.399963%)" offset="0.9375"/><stop stop-opacity="1" stop-color="rgb(1.771545%, 66.38031%, 33.227539%)" offset="0.945312"/><stop stop-opacity="1" stop-color="rgb(1.603699%, 66.627502%, 33.055115%)" offset="0.953125"/><stop stop-opacity="1" stop-color="rgb(1.437378%, 66.874695%, 32.88269%)" offset="0.960938"/><stop stop-opacity="1" stop-color="rgb(1.269531%, 67.120361%, 32.710266%)" offset="0.96875"/><stop stop-opacity="1" stop-color="rgb(1.10321%, 67.367554%, 32.537842%)" offset="0.976562"/><stop stop-opacity="1" stop-color="rgb(0.935364%, 67.614746%, 32.365417%)" offset="0.984375"/><stop stop-opacity="1" stop-color="rgb(0.769043%, 67.861938%, 32.192993%)" offset="0.992188"/><stop stop-opacity="1" stop-color="rgb(0.602722%, 68.107605%, 32.020569%)" offset="1"/></linearGradient><clipPath id="id7"><path d="M 92 44.644531 L 180.777344 44.644531 L 180.777344 133.53125 L 92 133.53125 Z M 92 44.644531 " clip-rule="nonzero"/></clipPath></defs><g clip-path="url(#id1)"><path fill="#ffffff" d="M 0.566406 0 L 275.433594 0 L 275.433594 188.972656 L 0.566406 188.972656 Z M 0.566406 0 " fill-opacity="1" fill-rule="nonzero"/><path fill="#ffffff" d="M 0.566406 0 L 275.433594 0 L 275.433594 181.503906 L 0.566406 181.503906 Z M 0.566406 0 " fill-opacity="1" fill-rule="nonzero"/><path fill="#ffffff" d="M 0.566406 0 L 275.433594 0 L 275.433594 181.503906 L 0.566406 181.503906 Z M 0.566406 0 " fill-opacity="1" fill-rule="nonzero"/><path fill="#ffffff" d="M 0.566406 0 L 275.433594 0 L 275.433594 181.503906 L 0.566406 181.503906 Z M 0.566406 0 " fill-opacity="1" fill-rule="nonzero"/></g><g clip-path="url(#id2)"><g clip-path="url(#id3)"><g clip-path="url(#id4)"><g clip-path="url(#id5)"><path fill="url(#id6)" d="M 57.644531 -111.496094 L -73.058594 143.8125 L 218.355469 293 L 349.058594 37.691406 Z M 57.644531 -111.496094 " fill-rule="nonzero"/></g></g></g></g><g clip-path="url(#id7)"><path fill="#ffffff" d="M 177.679688 117.140625 C 177.679688 117.953125 177.015625 118.617188 176.203125 118.617188 L 174.726562 118.617188 C 173.097656 118.617188 171.773438 119.945312 171.773438 121.570312 L 171.773438 130.429688 L 157.214844 119.511719 C 156.460938 118.933594 155.507812 118.617188 154.542969 118.617188 L 142.390625 118.617188 C 144.167969 115.054688 145.195312 111.050781 145.195312 106.804688 C 145.195312 100.496094 142.976562 94.699219 139.289062 90.136719 L 139.289062 84.660156 C 139.289062 83.84375 139.953125 83.183594 140.765625 83.183594 L 176.203125 83.183594 C 177.015625 83.183594 177.679688 83.84375 177.679688 84.660156 Z M 135.960938 47.792969 C 136.203125 47.730469 136.464844 47.730469 136.707031 47.792969 L 168.820312 56.203125 L 168.820312 63.011719 L 159.828125 67.558594 C 158.523438 63.085938 147.050781 61.035156 136.335938 61.035156 C 125.621094 61.035156 114.148438 63.085938 112.84375 67.558594 L 95.019531 58.542969 Z M 171.773438 61.519531 L 171.773438 56.980469 L 177.6875 58.527344 Z M 115.664062 77.875 L 115.664062 68.417969 C 115.664062 67.089844 122.695312 63.988281 136.335938 63.988281 C 149.976562 63.988281 157.007812 67.089844 157.007812 68.417969 L 157.007812 77.875 C 152.691406 75.453125 144.300781 74.324219 136.335938 74.324219 C 128.371094 74.324219 119.980469 75.453125 115.664062 77.875 Z M 136.335938 84.660156 L 136.335938 87.050781 C 131.628906 82.824219 125.429688 80.230469 118.617188 80.230469 C 118.175781 80.230469 117.742188 80.273438 117.296875 80.292969 C 120.089844 78.898438 126.480469 77.277344 136.335938 77.277344 C 146.039062 77.277344 152.375 78.84375 155.238281 80.230469 L 140.765625 80.230469 C 138.320312 80.230469 136.335938 82.214844 136.335938 84.660156 Z M 139.214844 105.328125 C 138.886719 100.742188 137.0625 96.566406 134.226562 93.285156 L 136.308594 91.203125 C 139.679688 95.023438 141.832031 99.929688 142.167969 105.328125 Z M 120.09375 127.402344 C 124.679688 127.078125 128.855469 125.25 132.136719 122.414062 L 134.21875 124.496094 C 130.402344 127.867188 125.492188 130.019531 120.09375 130.355469 Z M 105.097656 122.414062 C 108.382812 125.25 112.558594 127.078125 117.140625 127.402344 L 117.140625 130.355469 C 111.742188 130.019531 106.835938 127.867188 103.015625 124.496094 Z M 114.257812 83.601562 C 114.265625 83.601562 114.277344 83.601562 114.28125 83.601562 C 114.429688 83.601562 114.582031 83.578125 114.726562 83.535156 C 114.730469 83.535156 114.730469 83.527344 114.730469 83.527344 C 115.527344 83.402344 116.328125 83.308594 117.140625 83.257812 L 117.140625 86.210938 C 112.558594 86.539062 108.382812 88.359375 105.097656 91.199219 L 103.015625 89.117188 C 106.144531 86.355469 109.996094 84.40625 114.257812 83.601562 Z M 118.617188 124.523438 C 108.847656 124.523438 100.902344 116.574219 100.902344 106.804688 C 100.902344 97.035156 108.847656 89.085938 118.617188 89.085938 C 128.386719 89.085938 136.335938 97.035156 136.335938 106.804688 C 136.335938 116.574219 128.386719 124.523438 118.617188 124.523438 Z M 134.21875 89.117188 L 132.136719 91.199219 C 128.855469 88.359375 124.679688 86.539062 120.09375 86.210938 L 120.09375 83.257812 C 125.492188 83.589844 130.402344 85.742188 134.21875 89.117188 Z M 100.929688 91.203125 L 103.011719 93.285156 C 100.175781 96.566406 98.34375 100.742188 98.023438 105.328125 L 95.070312 105.328125 C 95.402344 99.929688 97.554688 95.023438 100.929688 91.203125 Z M 95.070312 108.28125 L 98.023438 108.28125 C 98.34375 112.867188 100.175781 117.042969 103.011719 120.324219 L 100.929688 122.40625 C 97.554688 118.589844 95.402344 113.679688 95.070312 108.28125 Z M 136.308594 122.40625 L 134.226562 120.324219 C 137.0625 117.042969 138.886719 112.867188 139.214844 108.28125 L 142.167969 108.28125 C 141.832031 113.679688 139.679688 118.589844 136.308594 122.40625 Z M 170.296875 74.324219 C 169.480469 74.324219 168.820312 73.660156 168.820312 72.847656 C 168.820312 72.035156 169.480469 71.371094 170.296875 71.371094 C 171.109375 71.371094 171.773438 72.035156 171.773438 72.847656 C 171.773438 73.660156 171.109375 74.324219 170.296875 74.324219 Z M 176.203125 80.230469 L 159.960938 80.230469 L 159.960938 70.800781 L 168.820312 66.324219 L 168.820312 68.6875 C 167.105469 69.300781 165.867188 70.925781 165.867188 72.847656 C 165.867188 75.292969 167.851562 77.277344 170.296875 77.277344 C 172.742188 77.277344 174.726562 75.292969 174.726562 72.847656 C 174.726562 70.925781 173.484375 69.300781 171.773438 68.6875 L 171.773438 64.828125 L 179.03125 61.15625 C 180.128906 60.585938 180.75 59.429688 180.613281 58.214844 C 180.476562 56.992188 179.605469 56 178.40625 55.6875 L 137.449219 44.9375 C 136.722656 44.746094 135.949219 44.746094 135.21875 44.9375 L 94.269531 55.6875 C 93.0625 56 92.199219 56.992188 92.058594 58.214844 C 91.925781 59.429688 92.542969 60.585938 93.65625 61.160156 L 112.710938 70.800781 L 112.710938 80.914062 C 107.78125 82.039062 103.363281 84.519531 99.890625 87.96875 C 99.875 87.984375 99.84375 87.996094 99.828125 88.015625 C 99.8125 88.03125 99.800781 88.0625 99.78125 88.078125 C 95 92.886719 92.042969 99.503906 92.042969 106.804688 C 92.042969 114.105469 95 120.722656 99.78125 125.53125 C 99.800781 125.550781 99.8125 125.578125 99.828125 125.597656 C 99.84375 125.613281 99.875 125.625 99.890625 125.640625 C 104.703125 130.421875 111.316406 133.382812 118.617188 133.382812 C 125.921875 133.382812 132.535156 130.421875 137.34375 125.640625 C 137.363281 125.625 137.390625 125.613281 137.410156 125.597656 C 137.425781 125.578125 137.4375 125.550781 137.457031 125.53125 C 138.660156 124.320312 139.746094 122.996094 140.703125 121.570312 L 154.542969 121.570312 C 154.867188 121.570312 155.171875 121.667969 155.425781 121.863281 L 170.007812 132.792969 C 170.527344 133.179688 171.144531 133.382812 171.765625 133.382812 C 172.214844 133.382812 172.671875 133.277344 173.097656 133.066406 C 174.101562 132.558594 174.726562 131.546875 174.726562 130.429688 L 174.726562 121.570312 L 176.203125 121.570312 C 178.648438 121.570312 180.628906 119.585938 180.628906 117.140625 L 180.628906 84.660156 C 180.628906 82.214844 178.648438 80.230469 176.203125 80.230469 " fill-opacity="1" fill-rule="nonzero"/></g><path fill="#ffffff" d="M 123.046875 112.710938 C 123.046875 114.632812 121.808594 116.257812 120.09375 116.871094 L 120.09375 108.554688 C 121.808594 109.164062 123.046875 110.789062 123.046875 112.710938 Z M 114.1875 100.898438 C 114.1875 98.980469 115.429688 97.351562 117.140625 96.742188 L 117.140625 105.058594 C 115.429688 104.445312 114.1875 102.820312 114.1875 100.898438 Z M 123.046875 100.898438 C 123.046875 101.710938 123.710938 102.375 124.523438 102.375 C 125.335938 102.375 126 101.710938 126 100.898438 C 126 97.335938 123.464844 94.351562 120.09375 93.667969 L 120.09375 93.515625 C 120.09375 92.703125 119.433594 92.039062 118.617188 92.039062 C 117.804688 92.039062 117.140625 92.703125 117.140625 93.515625 L 117.140625 93.667969 C 113.773438 94.351562 111.234375 97.335938 111.234375 100.898438 C 111.234375 104.464844 113.773438 107.445312 117.140625 108.132812 L 117.140625 116.871094 C 115.429688 116.257812 114.1875 114.632812 114.1875 112.710938 C 114.1875 111.898438 113.527344 111.234375 112.710938 111.234375 C 111.898438 111.234375 111.234375 111.898438 111.234375 112.710938 C 111.234375 116.277344 113.773438 119.257812 117.140625 119.945312 L 117.140625 120.09375 C 117.140625 120.90625 117.804688 121.570312 118.617188 121.570312 C 119.433594 121.570312 120.09375 120.90625 120.09375 120.09375 L 120.09375 119.945312 C 123.464844 119.257812 126 116.277344 126 112.710938 C 126 109.148438 123.464844 106.164062 120.09375 105.480469 L 120.09375 96.742188 C 121.808594 97.351562 123.046875 98.980469 123.046875 100.898438 " fill-opacity="1" fill-rule="nonzero"/><path fill="#ffffff" d="M 171.773438 87.609375 L 145.195312 87.609375 C 144.382812 87.609375 143.71875 88.273438 143.71875 89.085938 C 143.71875 89.902344 144.382812 90.5625 145.195312 90.5625 L 171.773438 90.5625 C 172.585938 90.5625 173.25 89.902344 173.25 89.085938 C 173.25 88.273438 172.585938 87.609375 171.773438 87.609375 " fill-opacity="1" fill-rule="nonzero"/><path fill="#ffffff" d="M 171.773438 99.421875 L 149.625 99.421875 C 148.8125 99.421875 148.148438 100.085938 148.148438 100.898438 C 148.148438 101.710938 148.8125 102.375 149.625 102.375 L 171.773438 102.375 C 172.585938 102.375 173.25 101.710938 173.25 100.898438 C 173.25 100.085938 172.585938 99.421875 171.773438 99.421875 " fill-opacity="1" fill-rule="nonzero"/><path fill="#ffffff" d="M 162.914062 111.234375 L 149.625 111.234375 C 148.8125 111.234375 148.148438 111.898438 148.148438 112.710938 C 148.148438 113.523438 148.8125 114.1875 149.625 114.1875 L 162.914062 114.1875 C 163.726562 114.1875 164.390625 113.523438 164.390625 112.710938 C 164.390625 111.898438 163.726562 111.234375 162.914062 111.234375 " fill-opacity="1" fill-rule="nonzero"/><path fill="#ffffff" d="M 171.773438 93.515625 L 170.296875 93.515625 C 169.480469 93.515625 168.820312 94.179688 168.820312 94.992188 C 168.820312 95.808594 169.480469 96.46875 170.296875 96.46875 L 171.773438 96.46875 C 172.585938 96.46875 173.25 95.808594 173.25 94.992188 C 173.25 94.179688 172.585938 93.515625 171.773438 93.515625 " fill-opacity="1" fill-rule="nonzero"/><path fill="#ffffff" d="M 164.390625 96.46875 C 165.203125 96.46875 165.867188 95.808594 165.867188 94.992188 C 165.867188 94.179688 165.203125 93.515625 164.390625 93.515625 L 148.148438 93.515625 C 147.335938 93.515625 146.671875 94.179688 146.671875 94.992188 C 146.671875 95.808594 147.335938 96.46875 148.148438 96.46875 L 164.390625 96.46875 " fill-opacity="1" fill-rule="nonzero"/><path fill="#ffffff" d="M 149.625 108.28125 L 151.101562 108.28125 C 151.914062 108.28125 152.578125 107.617188 152.578125 106.804688 C 152.578125 105.992188 151.914062 105.328125 151.101562 105.328125 L 149.625 105.328125 C 148.8125 105.328125 148.148438 105.992188 148.148438 106.804688 C 148.148438 107.617188 148.8125 108.28125 149.625 108.28125 " fill-opacity="1" fill-rule="nonzero"/><path fill="#ffffff" d="M 171.773438 105.328125 L 157.007812 105.328125 C 156.195312 105.328125 155.53125 105.992188 155.53125 106.804688 C 155.53125 107.617188 156.195312 108.28125 157.007812 108.28125 L 171.773438 108.28125 C 172.585938 108.28125 173.25 107.617188 173.25 106.804688 C 173.25 105.992188 172.585938 105.328125 171.773438 105.328125 " fill-opacity="1" fill-rule="nonzero"/></svg>