<svg xmlns="http://www.w3.org/2000/svg" xmlns:xlink="http://www.w3.org/1999/xlink" width="368" zoomAndPan="magnify" viewBox="0 0 276 182.249993" height="243" preserveAspectRatio="xMidYMid meet" version="1.0"><defs><clipPath id="id1"><path d="M 0.566406 0 L 275.433594 0 L 275.433594 181.503906 L 0.566406 181.503906 Z M 0.566406 0 " clip-rule="nonzero"/></clipPath><clipPath id="id2"><path d="M 0.566406 0 L 275.433594 0 L 275.433594 181.503906 L 0.566406 181.503906 Z M 0.566406 0 " clip-rule="nonzero"/></clipPath><clipPath id="id3"><path d="M 64.839844 -143.011719 L 364.695312 10.5 L 211.183594 310.351562 L -88.667969 156.84375 Z M 64.839844 -143.011719 " clip-rule="nonzero"/></clipPath><clipPath id="id4"><path d="M 64.839844 -143.011719 L 364.695312 10.5 L 211.183594 310.351562 L -88.667969 156.84375 Z M 64.839844 -143.011719 " clip-rule="nonzero"/></clipPath><clipPath id="id5"><path d="M 64.839844 -143.011719 L 364.695312 10.5 L 211.183594 310.351562 L -88.667969 156.84375 Z M 64.839844 -143.011719 " clip-rule="evenodd"/></clipPath><linearGradient x1="0.99547" gradientTransform="matrix(299.853513, 153.509032, -153.509032, 299.853513, 64.840682, -143.010673)" y1="0.5" x2="0.0236199" gradientUnits="userSpaceOnUse" y2="0.5" id="id6"><stop stop-opacity="1" stop-color="rgb(21.899414%, 36.647034%, 53.996277%)" offset="0"/><stop stop-opacity="1" stop-color="rgb(21.815491%, 36.769104%, 53.909302%)" offset="0.0078125"/><stop stop-opacity="1" stop-color="rgb(21.64917%, 37.016296%, 53.736877%)" offset="0.015625"/><stop stop-opacity="1" stop-color="rgb(21.481323%, 37.263489%, 53.564453%)" offset="0.0234375"/><stop stop-opacity="1" stop-color="rgb(21.315002%, 37.509155%, 53.392029%)" offset="0.03125"/><stop stop-opacity="1" stop-color="rgb(21.147156%, 37.756348%, 53.219604%)" offset="0.0390625"/><stop stop-opacity="1" stop-color="rgb(20.980835%, 38.00354%, 53.04718%)" offset="0.046875"/><stop stop-opacity="1" stop-color="rgb(20.812988%, 38.250732%, 52.874756%)" offset="0.0546875"/><stop stop-opacity="1" stop-color="rgb(20.646667%, 38.496399%, 52.702332%)" offset="0.0625"/><stop stop-opacity="1" stop-color="rgb(20.478821%, 38.743591%, 52.531433%)" offset="0.0703125"/><stop stop-opacity="1" stop-color="rgb(20.3125%, 38.990784%, 52.359009%)" offset="0.078125"/><stop stop-opacity="1" stop-color="rgb(20.144653%, 39.237976%, 52.186584%)" offset="0.0859375"/><stop stop-opacity="1" stop-color="rgb(19.978333%, 39.483643%, 52.01416%)" offset="0.09375"/><stop stop-opacity="1" stop-color="rgb(19.810486%, 39.730835%, 51.841736%)" offset="0.101562"/><stop stop-opacity="1" stop-color="rgb(19.644165%, 39.978027%, 51.669312%)" offset="0.109375"/><stop stop-opacity="1" stop-color="rgb(19.477844%, 40.223694%, 51.496887%)" offset="0.117187"/><stop stop-opacity="1" stop-color="rgb(19.309998%, 40.470886%, 51.324463%)" offset="0.125"/><stop stop-opacity="1" stop-color="rgb(19.143677%, 40.718079%, 51.152039%)" offset="0.132812"/><stop stop-opacity="1" stop-color="rgb(18.97583%, 40.965271%, 50.979614%)" offset="0.140625"/><stop stop-opacity="1" stop-color="rgb(18.809509%, 41.210938%, 50.80719%)" offset="0.148437"/><stop stop-opacity="1" stop-color="rgb(18.641663%, 41.45813%, 50.634766%)" offset="0.15625"/><stop stop-opacity="1" stop-color="rgb(18.475342%, 41.705322%, 50.462341%)" offset="0.164062"/><stop stop-opacity="1" stop-color="rgb(18.307495%, 41.950989%, 50.289917%)" offset="0.171875"/><stop stop-opacity="1" stop-color="rgb(18.141174%, 42.198181%, 50.117493%)" offset="0.179687"/><stop stop-opacity="1" stop-color="rgb(17.973328%, 42.445374%, 49.945068%)" offset="0.1875"/><stop stop-opacity="1" stop-color="rgb(17.807007%, 42.692566%, 49.772644%)" offset="0.195312"/><stop stop-opacity="1" stop-color="rgb(17.63916%, 42.938232%, 49.60022%)" offset="0.203125"/><stop stop-opacity="1" stop-color="rgb(17.472839%, 43.185425%, 49.427795%)" offset="0.210937"/><stop stop-opacity="1" stop-color="rgb(17.304993%, 43.432617%, 49.255371%)" offset="0.21875"/><stop stop-opacity="1" stop-color="rgb(17.138672%, 43.678284%, 49.082947%)" offset="0.226562"/><stop stop-opacity="1" stop-color="rgb(16.970825%, 43.925476%, 48.912048%)" offset="0.234375"/><stop stop-opacity="1" stop-color="rgb(16.804504%, 44.172668%, 48.739624%)" offset="0.242188"/><stop stop-opacity="1" stop-color="rgb(16.638184%, 44.419861%, 48.5672%)" offset="0.25"/><stop stop-opacity="1" stop-color="rgb(16.470337%, 44.665527%, 48.394775%)" offset="0.257812"/><stop stop-opacity="1" stop-color="rgb(16.304016%, 44.91272%, 48.222351%)" offset="0.265625"/><stop stop-opacity="1" stop-color="rgb(16.136169%, 45.159912%, 48.049927%)" offset="0.273438"/><stop stop-opacity="1" stop-color="rgb(15.969849%, 45.405579%, 47.877502%)" offset="0.28125"/><stop stop-opacity="1" stop-color="rgb(15.802002%, 45.652771%, 47.705078%)" offset="0.289063"/><stop stop-opacity="1" stop-color="rgb(15.635681%, 45.899963%, 47.532654%)" offset="0.296875"/><stop stop-opacity="1" stop-color="rgb(15.467834%, 46.147156%, 47.360229%)" offset="0.304688"/><stop stop-opacity="1" stop-color="rgb(15.301514%, 46.392822%, 47.187805%)" offset="0.3125"/><stop stop-opacity="1" stop-color="rgb(15.133667%, 46.640015%, 47.015381%)" offset="0.320313"/><stop stop-opacity="1" stop-color="rgb(14.967346%, 46.887207%, 46.842957%)" offset="0.328125"/><stop stop-opacity="1" stop-color="rgb(14.7995%, 47.132874%, 46.670532%)" offset="0.335938"/><stop stop-opacity="1" stop-color="rgb(14.633179%, 47.380066%, 46.498108%)" offset="0.34375"/><stop stop-opacity="1" stop-color="rgb(14.465332%, 47.627258%, 46.325684%)" offset="0.351563"/><stop stop-opacity="1" stop-color="rgb(14.299011%, 47.874451%, 46.153259%)" offset="0.359375"/><stop stop-opacity="1" stop-color="rgb(14.13269%, 48.120117%, 45.980835%)" offset="0.367188"/><stop stop-opacity="1" stop-color="rgb(13.964844%, 48.36731%, 45.808411%)" offset="0.375"/><stop stop-opacity="1" stop-color="rgb(13.798523%, 48.614502%, 45.635986%)" offset="0.382813"/><stop stop-opacity="1" stop-color="rgb(13.630676%, 48.860168%, 45.463562%)" offset="0.390625"/><stop stop-opacity="1" stop-color="rgb(13.464355%, 49.107361%, 45.292664%)" offset="0.398438"/><stop stop-opacity="1" stop-color="rgb(13.296509%, 49.354553%, 45.120239%)" offset="0.40625"/><stop stop-opacity="1" stop-color="rgb(13.130188%, 49.601746%, 44.947815%)" offset="0.414063"/><stop stop-opacity="1" stop-color="rgb(12.962341%, 49.847412%, 44.775391%)" offset="0.421875"/><stop stop-opacity="1" stop-color="rgb(12.796021%, 50.094604%, 44.602966%)" offset="0.429688"/><stop stop-opacity="1" stop-color="rgb(12.628174%, 50.341797%, 44.430542%)" offset="0.4375"/><stop stop-opacity="1" stop-color="rgb(12.461853%, 50.587463%, 44.258118%)" offset="0.445313"/><stop stop-opacity="1" stop-color="rgb(12.294006%, 50.834656%, 44.085693%)" offset="0.453125"/><stop stop-opacity="1" stop-color="rgb(12.127686%, 51.081848%, 43.913269%)" offset="0.460938"/><stop stop-opacity="1" stop-color="rgb(11.959839%, 51.329041%, 43.740845%)" offset="0.46875"/><stop stop-opacity="1" stop-color="rgb(11.793518%, 51.574707%, 43.56842%)" offset="0.476563"/><stop stop-opacity="1" stop-color="rgb(11.625671%, 51.821899%, 43.395996%)" offset="0.484375"/><stop stop-opacity="1" stop-color="rgb(11.459351%, 52.069092%, 43.223572%)" offset="0.492188"/><stop stop-opacity="1" stop-color="rgb(11.29303%, 52.314758%, 43.051147%)" offset="0.5"/><stop stop-opacity="1" stop-color="rgb(11.125183%, 52.561951%, 42.878723%)" offset="0.507812"/><stop stop-opacity="1" stop-color="rgb(10.958862%, 52.809143%, 42.706299%)" offset="0.515625"/><stop stop-opacity="1" stop-color="rgb(10.791016%, 53.056335%, 42.533875%)" offset="0.523438"/><stop stop-opacity="1" stop-color="rgb(10.624695%, 53.302002%, 42.36145%)" offset="0.53125"/><stop stop-opacity="1" stop-color="rgb(10.456848%, 53.549194%, 42.189026%)" offset="0.539062"/><stop stop-opacity="1" stop-color="rgb(10.290527%, 53.796387%, 42.016602%)" offset="0.546875"/><stop stop-opacity="1" stop-color="rgb(10.122681%, 54.042053%, 41.844177%)" offset="0.554688"/><stop stop-opacity="1" stop-color="rgb(9.95636%, 54.289246%, 41.673279%)" offset="0.5625"/><stop stop-opacity="1" stop-color="rgb(9.788513%, 54.536438%, 41.500854%)" offset="0.570312"/><stop stop-opacity="1" stop-color="rgb(9.622192%, 54.78363%, 41.32843%)" offset="0.578125"/><stop stop-opacity="1" stop-color="rgb(9.454346%, 55.029297%, 41.156006%)" offset="0.585938"/><stop stop-opacity="1" stop-color="rgb(9.288025%, 55.276489%, 40.983582%)" offset="0.59375"/><stop stop-opacity="1" stop-color="rgb(9.120178%, 55.523682%, 40.811157%)" offset="0.601562"/><stop stop-opacity="1" stop-color="rgb(8.953857%, 55.769348%, 40.638733%)" offset="0.609375"/><stop stop-opacity="1" stop-color="rgb(8.787537%, 56.016541%, 40.466309%)" offset="0.617188"/><stop stop-opacity="1" stop-color="rgb(8.61969%, 56.263733%, 40.293884%)" offset="0.625"/><stop stop-opacity="1" stop-color="rgb(8.453369%, 56.510925%, 40.12146%)" offset="0.632812"/><stop stop-opacity="1" stop-color="rgb(8.285522%, 56.756592%, 39.949036%)" offset="0.640625"/><stop stop-opacity="1" stop-color="rgb(8.119202%, 57.003784%, 39.776611%)" offset="0.648438"/><stop stop-opacity="1" stop-color="rgb(7.951355%, 57.250977%, 39.604187%)" offset="0.65625"/><stop stop-opacity="1" stop-color="rgb(7.785034%, 57.496643%, 39.431763%)" offset="0.664062"/><stop stop-opacity="1" stop-color="rgb(7.617188%, 57.743835%, 39.259338%)" offset="0.671875"/><stop stop-opacity="1" stop-color="rgb(7.450867%, 57.991028%, 39.086914%)" offset="0.679688"/><stop stop-opacity="1" stop-color="rgb(7.28302%, 58.23822%, 38.91449%)" offset="0.6875"/><stop stop-opacity="1" stop-color="rgb(7.116699%, 58.483887%, 38.742065%)" offset="0.695312"/><stop stop-opacity="1" stop-color="rgb(6.948853%, 58.731079%, 38.569641%)" offset="0.703125"/><stop stop-opacity="1" stop-color="rgb(6.782532%, 58.978271%, 38.397217%)" offset="0.710938"/><stop stop-opacity="1" stop-color="rgb(6.614685%, 59.223938%, 38.224792%)" offset="0.71875"/><stop stop-opacity="1" stop-color="rgb(6.448364%, 59.47113%, 38.053894%)" offset="0.726562"/><stop stop-opacity="1" stop-color="rgb(6.280518%, 59.718323%, 37.88147%)" offset="0.734375"/><stop stop-opacity="1" stop-color="rgb(6.114197%, 59.965515%, 37.709045%)" offset="0.742188"/><stop stop-opacity="1" stop-color="rgb(5.947876%, 60.211182%, 37.536621%)" offset="0.75"/><stop stop-opacity="1" stop-color="rgb(5.780029%, 60.458374%, 37.364197%)" offset="0.757812"/><stop stop-opacity="1" stop-color="rgb(5.613708%, 60.705566%, 37.191772%)" offset="0.765625"/><stop stop-opacity="1" stop-color="rgb(5.445862%, 60.951233%, 37.019348%)" offset="0.773438"/><stop stop-opacity="1" stop-color="rgb(5.279541%, 61.198425%, 36.846924%)" offset="0.78125"/><stop stop-opacity="1" stop-color="rgb(5.111694%, 61.445618%, 36.6745%)" offset="0.789062"/><stop stop-opacity="1" stop-color="rgb(4.945374%, 61.69281%, 36.502075%)" offset="0.796875"/><stop stop-opacity="1" stop-color="rgb(4.777527%, 61.938477%, 36.329651%)" offset="0.804688"/><stop stop-opacity="1" stop-color="rgb(4.611206%, 62.185669%, 36.157227%)" offset="0.8125"/><stop stop-opacity="1" stop-color="rgb(4.443359%, 62.432861%, 35.984802%)" offset="0.820312"/><stop stop-opacity="1" stop-color="rgb(4.277039%, 62.680054%, 35.812378%)" offset="0.828125"/><stop stop-opacity="1" stop-color="rgb(4.109192%, 62.92572%, 35.639954%)" offset="0.835938"/><stop stop-opacity="1" stop-color="rgb(3.942871%, 63.172913%, 35.467529%)" offset="0.84375"/><stop stop-opacity="1" stop-color="rgb(3.775024%, 63.420105%, 35.295105%)" offset="0.851562"/><stop stop-opacity="1" stop-color="rgb(3.608704%, 63.665771%, 35.122681%)" offset="0.859375"/><stop stop-opacity="1" stop-color="rgb(3.440857%, 63.912964%, 34.950256%)" offset="0.867188"/><stop stop-opacity="1" stop-color="rgb(3.274536%, 64.160156%, 34.777832%)" offset="0.875"/><stop stop-opacity="1" stop-color="rgb(3.108215%, 64.407349%, 34.605408%)" offset="0.882812"/><stop stop-opacity="1" stop-color="rgb(2.940369%, 64.653015%, 34.434509%)" offset="0.890625"/><stop stop-opacity="1" stop-color="rgb(2.774048%, 64.900208%, 34.262085%)" offset="0.898438"/><stop stop-opacity="1" stop-color="rgb(2.606201%, 65.1474%, 34.089661%)" offset="0.90625"/><stop stop-opacity="1" stop-color="rgb(2.43988%, 65.393066%, 33.917236%)" offset="0.914062"/><stop stop-opacity="1" stop-color="rgb(2.272034%, 65.640259%, 33.744812%)" offset="0.921875"/><stop stop-opacity="1" stop-color="rgb(2.105713%, 65.887451%, 33.572388%)" offset="0.929688"/><stop stop-opacity="1" stop-color="rgb(1.937866%, 66.134644%, 33.399963%)" offset="0.9375"/><stop stop-opacity="1" stop-color="rgb(1.771545%, 66.38031%, 33.227539%)" offset="0.945312"/><stop stop-opacity="1" stop-color="rgb(1.603699%, 66.627502%, 33.055115%)" offset="0.953125"/><stop stop-opacity="1" stop-color="rgb(1.437378%, 66.874695%, 32.88269%)" offset="0.960938"/><stop stop-opacity="1" stop-color="rgb(1.269531%, 67.120361%, 32.710266%)" offset="0.96875"/><stop stop-opacity="1" stop-color="rgb(1.10321%, 67.367554%, 32.537842%)" offset="0.976562"/><stop stop-opacity="1" stop-color="rgb(0.935364%, 67.614746%, 32.365417%)" offset="0.984375"/><stop stop-opacity="1" stop-color="rgb(0.769043%, 67.861938%, 32.192993%)" offset="0.992188"/><stop stop-opacity="1" stop-color="rgb(0.602722%, 68.107605%, 32.020569%)" offset="1"/></linearGradient><clipPath id="id7"><path d="M 97.761719 50.511719 L 178.429688 50.511719 L 178.429688 131.179688 L 97.761719 131.179688 Z M 97.761719 50.511719 " clip-rule="nonzero"/></clipPath></defs><g clip-path="url(#id1)"><path fill="#ffffff" d="M 0.566406 0 L 275.433594 0 L 275.433594 188.972656 L 0.566406 188.972656 Z M 0.566406 0 " fill-opacity="1" fill-rule="nonzero"/><path fill="#ffffff" d="M 0.566406 0 L 275.433594 0 L 275.433594 181.503906 L 0.566406 181.503906 Z M 0.566406 0 " fill-opacity="1" fill-rule="nonzero"/><path fill="#ffffff" d="M 0.566406 0 L 275.433594 0 L 275.433594 181.503906 L 0.566406 181.503906 Z M 0.566406 0 " fill-opacity="1" fill-rule="nonzero"/><path fill="#ffffff" d="M 0.566406 0 L 275.433594 0 L 275.433594 181.503906 L 0.566406 181.503906 Z M 0.566406 0 " fill-opacity="1" fill-rule="nonzero"/></g><g clip-path="url(#id2)"><g clip-path="url(#id3)"><g clip-path="url(#id4)"><g clip-path="url(#id5)"><path fill="url(#id6)" d="M 57.644531 -111.496094 L -73.058594 143.8125 L 218.355469 293 L 349.058594 37.691406 Z M 57.644531 -111.496094 " fill-rule="nonzero"/></g></g></g></g><g clip-path="url(#id7)"><path fill="#ffffff" d="M 107.171875 55.101562 L 107.171875 58.578125 C 107.171875 59.320312 106.566406 59.921875 105.828125 59.921875 L 102.351562 59.921875 Z M 154.226562 54.546875 L 154.226562 94.328125 C 151.9375 95.011719 149.832031 96.125 148 97.566406 L 123.304688 97.566406 C 122.566406 97.566406 121.960938 98.171875 121.960938 98.914062 C 121.960938 99.652344 122.566406 100.257812 123.304688 100.257812 L 145.210938 100.257812 C 144.507812 101.09375 143.882812 101.996094 143.332031 102.945312 L 130.027344 102.945312 C 129.285156 102.945312 128.683594 103.550781 128.683594 104.289062 C 128.683594 105.03125 129.285156 105.636719 130.027344 105.636719 L 142.050781 105.636719 C 141.710938 106.507812 141.429688 107.398438 141.230469 108.324219 L 123.304688 108.324219 C 122.566406 108.324219 121.960938 108.929688 121.960938 109.667969 C 121.960938 110.410156 122.566406 111.011719 123.304688 111.011719 L 140.851562 111.011719 C 140.820312 111.460938 140.785156 111.902344 140.785156 112.355469 C 140.785156 112.8125 140.820312 113.253906 140.851562 113.703125 L 123.304688 113.703125 C 122.566406 113.703125 121.960938 114.304688 121.960938 115.046875 C 121.960938 115.785156 122.566406 116.390625 123.304688 116.390625 L 141.230469 116.390625 C 142.027344 120.035156 143.882812 123.28125 146.457031 125.800781 L 101.792969 125.800781 C 101.054688 125.800781 100.449219 125.199219 100.449219 124.457031 L 100.449219 62.613281 L 105.828125 62.613281 C 108.054688 62.613281 109.859375 60.804688 109.859375 58.578125 L 109.859375 53.199219 L 152.882812 53.199219 C 153.625 53.199219 154.226562 53.804688 154.226562 54.546875 Z M 175.738281 112.355469 C 175.738281 121.253906 168.503906 128.492188 159.605469 128.492188 C 150.710938 128.492188 143.472656 121.253906 143.472656 112.355469 C 143.472656 103.460938 150.710938 96.222656 159.605469 96.222656 C 168.503906 96.222656 175.738281 103.460938 175.738281 112.355469 Z M 101.792969 128.492188 L 149.964844 128.492188 C 152.785156 130.1875 156.078125 131.179688 159.605469 131.179688 C 169.984375 131.179688 178.429688 122.734375 178.429688 112.355469 C 178.429688 101.980469 169.984375 93.535156 159.605469 93.535156 C 158.691406 93.535156 157.800781 93.625 156.917969 93.75 L 156.917969 54.546875 C 156.917969 52.320312 155.109375 50.511719 152.882812 50.511719 L 109.632812 50.511719 C 108.554688 50.511719 107.539062 50.933594 106.773438 51.699219 L 98.949219 59.523438 C 98.179688 60.289062 97.761719 61.304688 97.761719 62.386719 L 97.761719 124.457031 C 97.761719 126.683594 99.566406 128.492188 101.792969 128.492188 " fill-opacity="1" fill-rule="nonzero"/></g><path fill="#ffffff" d="M 142.128906 89.5 L 142.128906 86.8125 L 146.160156 86.8125 L 146.160156 89.5 Z M 108.515625 76.058594 L 112.550781 76.058594 L 112.550781 89.5 L 108.515625 89.5 Z M 142.128906 78.746094 L 142.128906 76.058594 L 146.160156 76.058594 L 146.160156 78.746094 Z M 142.128906 81.433594 L 146.160156 81.433594 L 146.160156 84.125 L 142.128906 84.125 Z M 135.40625 84.125 L 135.40625 81.433594 L 139.4375 81.433594 L 139.4375 84.125 Z M 135.40625 86.8125 L 139.4375 86.8125 L 139.4375 89.5 L 135.40625 89.5 Z M 128.683594 86.8125 L 132.714844 86.8125 L 132.714844 89.5 L 128.683594 89.5 Z M 121.960938 86.8125 L 125.996094 86.8125 L 125.996094 89.5 L 121.960938 89.5 Z M 115.238281 86.8125 L 119.273438 86.8125 L 119.273438 89.5 L 115.238281 89.5 Z M 125.996094 78.746094 L 121.960938 78.746094 L 121.960938 76.058594 L 125.996094 76.058594 Z M 128.683594 81.433594 L 132.714844 81.433594 L 132.714844 84.125 L 128.683594 84.125 Z M 121.960938 81.433594 L 125.996094 81.433594 L 125.996094 84.125 L 121.960938 84.125 Z M 115.238281 81.433594 L 119.273438 81.433594 L 119.273438 84.125 L 115.238281 84.125 Z M 132.714844 78.746094 L 128.683594 78.746094 L 128.683594 76.058594 L 132.714844 76.058594 Z M 139.4375 76.058594 L 139.4375 78.746094 L 135.40625 78.746094 L 135.40625 76.058594 Z M 119.273438 76.058594 L 119.273438 78.746094 L 115.238281 78.746094 L 115.238281 76.058594 Z M 146.160156 69.335938 L 146.160156 73.367188 L 108.515625 73.367188 L 108.515625 69.335938 Z M 108.515625 66.644531 C 107.035156 66.644531 105.828125 67.851562 105.828125 69.335938 L 105.828125 89.5 C 105.828125 90.984375 107.035156 92.191406 108.515625 92.191406 L 146.160156 92.191406 C 147.640625 92.191406 148.851562 90.984375 148.851562 89.5 L 148.851562 69.335938 C 148.851562 67.851562 147.640625 66.644531 146.160156 66.644531 L 108.515625 66.644531 " fill-opacity="1" fill-rule="nonzero"/><path fill="#ffffff" d="M 115.238281 115.046875 C 115.238281 116.796875 114.109375 118.277344 112.550781 118.832031 L 112.550781 111.257812 C 114.109375 111.816406 115.238281 113.296875 115.238281 115.046875 Z M 107.171875 104.289062 C 107.171875 102.542969 108.300781 101.0625 109.859375 100.503906 L 109.859375 108.078125 C 108.300781 107.519531 107.171875 106.039062 107.171875 104.289062 Z M 115.238281 104.289062 C 115.238281 105.03125 115.84375 105.636719 116.582031 105.636719 C 117.324219 105.636719 117.925781 105.03125 117.925781 104.289062 C 117.925781 101.046875 115.617188 98.328125 112.550781 97.703125 L 112.550781 97.566406 C 112.550781 96.828125 111.945312 96.222656 111.203125 96.222656 C 110.464844 96.222656 109.859375 96.828125 109.859375 97.566406 L 109.859375 97.703125 C 106.792969 98.328125 104.484375 101.046875 104.484375 104.289062 C 104.484375 107.535156 106.792969 110.25 109.859375 110.875 L 109.859375 118.832031 C 108.300781 118.277344 107.171875 116.796875 107.171875 115.046875 C 107.171875 114.304688 106.566406 113.703125 105.828125 113.703125 C 105.085938 113.703125 104.484375 114.304688 104.484375 115.046875 C 104.484375 118.292969 106.792969 121.007812 109.859375 121.632812 L 109.859375 121.769531 C 109.859375 122.507812 110.464844 123.113281 111.203125 123.113281 C 111.945312 123.113281 112.550781 122.507812 112.550781 121.769531 L 112.550781 121.632812 C 115.617188 121.007812 117.925781 118.292969 117.925781 115.046875 C 117.925781 111.800781 115.617188 109.085938 112.550781 108.460938 L 112.550781 100.503906 C 114.109375 101.0625 115.238281 102.542969 115.238281 104.289062 " fill-opacity="1" fill-rule="nonzero"/><path fill="#ffffff" d="M 123.304688 105.636719 L 124.648438 105.636719 C 125.390625 105.636719 125.996094 105.03125 125.996094 104.289062 C 125.996094 103.550781 125.390625 102.945312 124.648438 102.945312 L 123.304688 102.945312 C 122.566406 102.945312 121.960938 103.550781 121.960938 104.289062 C 121.960938 105.03125 122.566406 105.636719 123.304688 105.636719 " fill-opacity="1" fill-rule="nonzero"/><path fill="#ffffff" d="M 123.304688 121.769531 L 135.40625 121.769531 C 136.144531 121.769531 136.75 121.164062 136.75 120.425781 C 136.75 119.683594 136.144531 119.078125 135.40625 119.078125 L 123.304688 119.078125 C 122.566406 119.078125 121.960938 119.683594 121.960938 120.425781 C 121.960938 121.164062 122.566406 121.769531 123.304688 121.769531 " fill-opacity="1" fill-rule="nonzero"/><path fill="#ffffff" d="M 155.964844 122.71875 C 156.21875 122.972656 156.558594 123.113281 156.917969 123.113281 C 156.976562 123.113281 157.03125 123.109375 157.089844 123.101562 C 157.5 123.050781 157.867188 122.804688 158.078125 122.445312 L 167.488281 106.3125 C 167.863281 105.671875 167.644531 104.847656 167.003906 104.472656 C 166.363281 104.101562 165.539062 104.316406 165.167969 104.957031 L 156.632812 119.582031 L 153.835938 116.785156 C 153.308594 116.257812 152.457031 116.257812 151.933594 116.785156 C 151.40625 117.308594 151.40625 118.160156 151.933594 118.6875 L 155.964844 122.71875 " fill-opacity="1" fill-rule="nonzero"/></svg>