<svg xmlns="http://www.w3.org/2000/svg" xmlns:xlink="http://www.w3.org/1999/xlink" width="368" zoomAndPan="magnify" viewBox="0 0 276 182.249993" height="243" preserveAspectRatio="xMidYMid meet" version="1.0"><defs><clipPath id="id1"><path d="M 0.566406 0 L 275.433594 0 L 275.433594 181.503906 L 0.566406 181.503906 Z M 0.566406 0 " clip-rule="nonzero"/></clipPath><clipPath id="id2"><path d="M 0.566406 0 L 275.433594 0 L 275.433594 181.503906 L 0.566406 181.503906 Z M 0.566406 0 " clip-rule="nonzero"/></clipPath><clipPath id="id3"><path d="M 64.839844 -143.011719 L 364.695312 10.5 L 211.183594 310.351562 L -88.667969 156.84375 Z M 64.839844 -143.011719 " clip-rule="nonzero"/></clipPath><clipPath id="id4"><path d="M 64.839844 -143.011719 L 364.695312 10.5 L 211.183594 310.351562 L -88.667969 156.84375 Z M 64.839844 -143.011719 " clip-rule="nonzero"/></clipPath><clipPath id="id5"><path d="M 64.839844 -143.011719 L 364.695312 10.5 L 211.183594 310.351562 L -88.667969 156.84375 Z M 64.839844 -143.011719 " clip-rule="evenodd"/></clipPath><linearGradient x1="0.99547" gradientTransform="matrix(299.853513, 153.509032, -153.509032, 299.853513, 64.840682, -143.010673)" y1="0.5" x2="0.0236199" gradientUnits="userSpaceOnUse" y2="0.5" id="id6"><stop stop-opacity="1" stop-color="rgb(21.899414%, 36.647034%, 53.996277%)" offset="0"/><stop stop-opacity="1" stop-color="rgb(21.815491%, 36.769104%, 53.909302%)" offset="0.0078125"/><stop stop-opacity="1" stop-color="rgb(21.64917%, 37.016296%, 53.736877%)" offset="0.015625"/><stop stop-opacity="1" stop-color="rgb(21.481323%, 37.263489%, 53.564453%)" offset="0.0234375"/><stop stop-opacity="1" stop-color="rgb(21.315002%, 37.509155%, 53.392029%)" offset="0.03125"/><stop stop-opacity="1" stop-color="rgb(21.147156%, 37.756348%, 53.219604%)" offset="0.0390625"/><stop stop-opacity="1" stop-color="rgb(20.980835%, 38.00354%, 53.04718%)" offset="0.046875"/><stop stop-opacity="1" stop-color="rgb(20.812988%, 38.250732%, 52.874756%)" offset="0.0546875"/><stop stop-opacity="1" stop-color="rgb(20.646667%, 38.496399%, 52.702332%)" offset="0.0625"/><stop stop-opacity="1" stop-color="rgb(20.478821%, 38.743591%, 52.531433%)" offset="0.0703125"/><stop stop-opacity="1" stop-color="rgb(20.3125%, 38.990784%, 52.359009%)" offset="0.078125"/><stop stop-opacity="1" stop-color="rgb(20.144653%, 39.237976%, 52.186584%)" offset="0.0859375"/><stop stop-opacity="1" stop-color="rgb(19.978333%, 39.483643%, 52.01416%)" offset="0.09375"/><stop stop-opacity="1" stop-color="rgb(19.810486%, 39.730835%, 51.841736%)" offset="0.101562"/><stop stop-opacity="1" stop-color="rgb(19.644165%, 39.978027%, 51.669312%)" offset="0.109375"/><stop stop-opacity="1" stop-color="rgb(19.477844%, 40.223694%, 51.496887%)" offset="0.117187"/><stop stop-opacity="1" stop-color="rgb(19.309998%, 40.470886%, 51.324463%)" offset="0.125"/><stop stop-opacity="1" stop-color="rgb(19.143677%, 40.718079%, 51.152039%)" offset="0.132812"/><stop stop-opacity="1" stop-color="rgb(18.97583%, 40.965271%, 50.979614%)" offset="0.140625"/><stop stop-opacity="1" stop-color="rgb(18.809509%, 41.210938%, 50.80719%)" offset="0.148437"/><stop stop-opacity="1" stop-color="rgb(18.641663%, 41.45813%, 50.634766%)" offset="0.15625"/><stop stop-opacity="1" stop-color="rgb(18.475342%, 41.705322%, 50.462341%)" offset="0.164062"/><stop stop-opacity="1" stop-color="rgb(18.307495%, 41.950989%, 50.289917%)" offset="0.171875"/><stop stop-opacity="1" stop-color="rgb(18.141174%, 42.198181%, 50.117493%)" offset="0.179687"/><stop stop-opacity="1" stop-color="rgb(17.973328%, 42.445374%, 49.945068%)" offset="0.1875"/><stop stop-opacity="1" stop-color="rgb(17.807007%, 42.692566%, 49.772644%)" offset="0.195312"/><stop stop-opacity="1" stop-color="rgb(17.63916%, 42.938232%, 49.60022%)" offset="0.203125"/><stop stop-opacity="1" stop-color="rgb(17.472839%, 43.185425%, 49.427795%)" offset="0.210937"/><stop stop-opacity="1" stop-color="rgb(17.304993%, 43.432617%, 49.255371%)" offset="0.21875"/><stop stop-opacity="1" stop-color="rgb(17.138672%, 43.678284%, 49.082947%)" offset="0.226562"/><stop stop-opacity="1" stop-color="rgb(16.970825%, 43.925476%, 48.912048%)" offset="0.234375"/><stop stop-opacity="1" stop-color="rgb(16.804504%, 44.172668%, 48.739624%)" offset="0.242188"/><stop stop-opacity="1" stop-color="rgb(16.638184%, 44.419861%, 48.5672%)" offset="0.25"/><stop stop-opacity="1" stop-color="rgb(16.470337%, 44.665527%, 48.394775%)" offset="0.257812"/><stop stop-opacity="1" stop-color="rgb(16.304016%, 44.91272%, 48.222351%)" offset="0.265625"/><stop stop-opacity="1" stop-color="rgb(16.136169%, 45.159912%, 48.049927%)" offset="0.273438"/><stop stop-opacity="1" stop-color="rgb(15.969849%, 45.405579%, 47.877502%)" offset="0.28125"/><stop stop-opacity="1" stop-color="rgb(15.802002%, 45.652771%, 47.705078%)" offset="0.289063"/><stop stop-opacity="1" stop-color="rgb(15.635681%, 45.899963%, 47.532654%)" offset="0.296875"/><stop stop-opacity="1" stop-color="rgb(15.467834%, 46.147156%, 47.360229%)" offset="0.304688"/><stop stop-opacity="1" stop-color="rgb(15.301514%, 46.392822%, 47.187805%)" offset="0.3125"/><stop stop-opacity="1" stop-color="rgb(15.133667%, 46.640015%, 47.015381%)" offset="0.320313"/><stop stop-opacity="1" stop-color="rgb(14.967346%, 46.887207%, 46.842957%)" offset="0.328125"/><stop stop-opacity="1" stop-color="rgb(14.7995%, 47.132874%, 46.670532%)" offset="0.335938"/><stop stop-opacity="1" stop-color="rgb(14.633179%, 47.380066%, 46.498108%)" offset="0.34375"/><stop stop-opacity="1" stop-color="rgb(14.465332%, 47.627258%, 46.325684%)" offset="0.351563"/><stop stop-opacity="1" stop-color="rgb(14.299011%, 47.874451%, 46.153259%)" offset="0.359375"/><stop stop-opacity="1" stop-color="rgb(14.13269%, 48.120117%, 45.980835%)" offset="0.367188"/><stop stop-opacity="1" stop-color="rgb(13.964844%, 48.36731%, 45.808411%)" offset="0.375"/><stop stop-opacity="1" stop-color="rgb(13.798523%, 48.614502%, 45.635986%)" offset="0.382813"/><stop stop-opacity="1" stop-color="rgb(13.630676%, 48.860168%, 45.463562%)" offset="0.390625"/><stop stop-opacity="1" stop-color="rgb(13.464355%, 49.107361%, 45.292664%)" offset="0.398438"/><stop stop-opacity="1" stop-color="rgb(13.296509%, 49.354553%, 45.120239%)" offset="0.40625"/><stop stop-opacity="1" stop-color="rgb(13.130188%, 49.601746%, 44.947815%)" offset="0.414063"/><stop stop-opacity="1" stop-color="rgb(12.962341%, 49.847412%, 44.775391%)" offset="0.421875"/><stop stop-opacity="1" stop-color="rgb(12.796021%, 50.094604%, 44.602966%)" offset="0.429688"/><stop stop-opacity="1" stop-color="rgb(12.628174%, 50.341797%, 44.430542%)" offset="0.4375"/><stop stop-opacity="1" stop-color="rgb(12.461853%, 50.587463%, 44.258118%)" offset="0.445313"/><stop stop-opacity="1" stop-color="rgb(12.294006%, 50.834656%, 44.085693%)" offset="0.453125"/><stop stop-opacity="1" stop-color="rgb(12.127686%, 51.081848%, 43.913269%)" offset="0.460938"/><stop stop-opacity="1" stop-color="rgb(11.959839%, 51.329041%, 43.740845%)" offset="0.46875"/><stop stop-opacity="1" stop-color="rgb(11.793518%, 51.574707%, 43.56842%)" offset="0.476563"/><stop stop-opacity="1" stop-color="rgb(11.625671%, 51.821899%, 43.395996%)" offset="0.484375"/><stop stop-opacity="1" stop-color="rgb(11.459351%, 52.069092%, 43.223572%)" offset="0.492188"/><stop stop-opacity="1" stop-color="rgb(11.29303%, 52.314758%, 43.051147%)" offset="0.5"/><stop stop-opacity="1" stop-color="rgb(11.125183%, 52.561951%, 42.878723%)" offset="0.507812"/><stop stop-opacity="1" stop-color="rgb(10.958862%, 52.809143%, 42.706299%)" offset="0.515625"/><stop stop-opacity="1" stop-color="rgb(10.791016%, 53.056335%, 42.533875%)" offset="0.523438"/><stop stop-opacity="1" stop-color="rgb(10.624695%, 53.302002%, 42.36145%)" offset="0.53125"/><stop stop-opacity="1" stop-color="rgb(10.456848%, 53.549194%, 42.189026%)" offset="0.539062"/><stop stop-opacity="1" stop-color="rgb(10.290527%, 53.796387%, 42.016602%)" offset="0.546875"/><stop stop-opacity="1" stop-color="rgb(10.122681%, 54.042053%, 41.844177%)" offset="0.554688"/><stop stop-opacity="1" stop-color="rgb(9.95636%, 54.289246%, 41.673279%)" offset="0.5625"/><stop stop-opacity="1" stop-color="rgb(9.788513%, 54.536438%, 41.500854%)" offset="0.570312"/><stop stop-opacity="1" stop-color="rgb(9.622192%, 54.78363%, 41.32843%)" offset="0.578125"/><stop stop-opacity="1" stop-color="rgb(9.454346%, 55.029297%, 41.156006%)" offset="0.585938"/><stop stop-opacity="1" stop-color="rgb(9.288025%, 55.276489%, 40.983582%)" offset="0.59375"/><stop stop-opacity="1" stop-color="rgb(9.120178%, 55.523682%, 40.811157%)" offset="0.601562"/><stop stop-opacity="1" stop-color="rgb(8.953857%, 55.769348%, 40.638733%)" offset="0.609375"/><stop stop-opacity="1" stop-color="rgb(8.787537%, 56.016541%, 40.466309%)" offset="0.617188"/><stop stop-opacity="1" stop-color="rgb(8.61969%, 56.263733%, 40.293884%)" offset="0.625"/><stop stop-opacity="1" stop-color="rgb(8.453369%, 56.510925%, 40.12146%)" offset="0.632812"/><stop stop-opacity="1" stop-color="rgb(8.285522%, 56.756592%, 39.949036%)" offset="0.640625"/><stop stop-opacity="1" stop-color="rgb(8.119202%, 57.003784%, 39.776611%)" offset="0.648438"/><stop stop-opacity="1" stop-color="rgb(7.951355%, 57.250977%, 39.604187%)" offset="0.65625"/><stop stop-opacity="1" stop-color="rgb(7.785034%, 57.496643%, 39.431763%)" offset="0.664062"/><stop stop-opacity="1" stop-color="rgb(7.617188%, 57.743835%, 39.259338%)" offset="0.671875"/><stop stop-opacity="1" stop-color="rgb(7.450867%, 57.991028%, 39.086914%)" offset="0.679688"/><stop stop-opacity="1" stop-color="rgb(7.28302%, 58.23822%, 38.91449%)" offset="0.6875"/><stop stop-opacity="1" stop-color="rgb(7.116699%, 58.483887%, 38.742065%)" offset="0.695312"/><stop stop-opacity="1" stop-color="rgb(6.948853%, 58.731079%, 38.569641%)" offset="0.703125"/><stop stop-opacity="1" stop-color="rgb(6.782532%, 58.978271%, 38.397217%)" offset="0.710938"/><stop stop-opacity="1" stop-color="rgb(6.614685%, 59.223938%, 38.224792%)" offset="0.71875"/><stop stop-opacity="1" stop-color="rgb(6.448364%, 59.47113%, 38.053894%)" offset="0.726562"/><stop stop-opacity="1" stop-color="rgb(6.280518%, 59.718323%, 37.88147%)" offset="0.734375"/><stop stop-opacity="1" stop-color="rgb(6.114197%, 59.965515%, 37.709045%)" offset="0.742188"/><stop stop-opacity="1" stop-color="rgb(5.947876%, 60.211182%, 37.536621%)" offset="0.75"/><stop stop-opacity="1" stop-color="rgb(5.780029%, 60.458374%, 37.364197%)" offset="0.757812"/><stop stop-opacity="1" stop-color="rgb(5.613708%, 60.705566%, 37.191772%)" offset="0.765625"/><stop stop-opacity="1" stop-color="rgb(5.445862%, 60.951233%, 37.019348%)" offset="0.773438"/><stop stop-opacity="1" stop-color="rgb(5.279541%, 61.198425%, 36.846924%)" offset="0.78125"/><stop stop-opacity="1" stop-color="rgb(5.111694%, 61.445618%, 36.6745%)" offset="0.789062"/><stop stop-opacity="1" stop-color="rgb(4.945374%, 61.69281%, 36.502075%)" offset="0.796875"/><stop stop-opacity="1" stop-color="rgb(4.777527%, 61.938477%, 36.329651%)" offset="0.804688"/><stop stop-opacity="1" stop-color="rgb(4.611206%, 62.185669%, 36.157227%)" offset="0.8125"/><stop stop-opacity="1" stop-color="rgb(4.443359%, 62.432861%, 35.984802%)" offset="0.820312"/><stop stop-opacity="1" stop-color="rgb(4.277039%, 62.680054%, 35.812378%)" offset="0.828125"/><stop stop-opacity="1" stop-color="rgb(4.109192%, 62.92572%, 35.639954%)" offset="0.835938"/><stop stop-opacity="1" stop-color="rgb(3.942871%, 63.172913%, 35.467529%)" offset="0.84375"/><stop stop-opacity="1" stop-color="rgb(3.775024%, 63.420105%, 35.295105%)" offset="0.851562"/><stop stop-opacity="1" stop-color="rgb(3.608704%, 63.665771%, 35.122681%)" offset="0.859375"/><stop stop-opacity="1" stop-color="rgb(3.440857%, 63.912964%, 34.950256%)" offset="0.867188"/><stop stop-opacity="1" stop-color="rgb(3.274536%, 64.160156%, 34.777832%)" offset="0.875"/><stop stop-opacity="1" stop-color="rgb(3.108215%, 64.407349%, 34.605408%)" offset="0.882812"/><stop stop-opacity="1" stop-color="rgb(2.940369%, 64.653015%, 34.434509%)" offset="0.890625"/><stop stop-opacity="1" stop-color="rgb(2.774048%, 64.900208%, 34.262085%)" offset="0.898438"/><stop stop-opacity="1" stop-color="rgb(2.606201%, 65.1474%, 34.089661%)" offset="0.90625"/><stop stop-opacity="1" stop-color="rgb(2.43988%, 65.393066%, 33.917236%)" offset="0.914062"/><stop stop-opacity="1" stop-color="rgb(2.272034%, 65.640259%, 33.744812%)" offset="0.921875"/><stop stop-opacity="1" stop-color="rgb(2.105713%, 65.887451%, 33.572388%)" offset="0.929688"/><stop stop-opacity="1" stop-color="rgb(1.937866%, 66.134644%, 33.399963%)" offset="0.9375"/><stop stop-opacity="1" stop-color="rgb(1.771545%, 66.38031%, 33.227539%)" offset="0.945312"/><stop stop-opacity="1" stop-color="rgb(1.603699%, 66.627502%, 33.055115%)" offset="0.953125"/><stop stop-opacity="1" stop-color="rgb(1.437378%, 66.874695%, 32.88269%)" offset="0.960938"/><stop stop-opacity="1" stop-color="rgb(1.269531%, 67.120361%, 32.710266%)" offset="0.96875"/><stop stop-opacity="1" stop-color="rgb(1.10321%, 67.367554%, 32.537842%)" offset="0.976562"/><stop stop-opacity="1" stop-color="rgb(0.935364%, 67.614746%, 32.365417%)" offset="0.984375"/><stop stop-opacity="1" stop-color="rgb(0.769043%, 67.861938%, 32.192993%)" offset="0.992188"/><stop stop-opacity="1" stop-color="rgb(0.602722%, 68.107605%, 32.020569%)" offset="1"/></linearGradient><clipPath id="id7"><path d="M 95.757812 48.507812 L 150 48.507812 L 150 103 L 95.757812 103 Z M 95.757812 48.507812 " clip-rule="nonzero"/></clipPath><clipPath id="id8"><path d="M 115 106 L 180.160156 106 L 180.160156 132.910156 L 115 132.910156 Z M 115 106 " clip-rule="nonzero"/></clipPath></defs><g clip-path="url(#id1)"><path fill="#ffffff" d="M 0.566406 0 L 275.433594 0 L 275.433594 188.972656 L 0.566406 188.972656 Z M 0.566406 0 " fill-opacity="1" fill-rule="nonzero"/><path fill="#ffffff" d="M 0.566406 0 L 275.433594 0 L 275.433594 181.503906 L 0.566406 181.503906 Z M 0.566406 0 " fill-opacity="1" fill-rule="nonzero"/><path fill="#ffffff" d="M 0.566406 0 L 275.433594 0 L 275.433594 181.503906 L 0.566406 181.503906 Z M 0.566406 0 " fill-opacity="1" fill-rule="nonzero"/><path fill="#ffffff" d="M 0.566406 0 L 275.433594 0 L 275.433594 181.503906 L 0.566406 181.503906 Z M 0.566406 0 " fill-opacity="1" fill-rule="nonzero"/></g><g clip-path="url(#id2)"><g clip-path="url(#id3)"><g clip-path="url(#id4)"><g clip-path="url(#id5)"><path fill="url(#id6)" d="M 57.644531 -111.496094 L -73.058594 143.8125 L 218.355469 293 L 349.058594 37.691406 Z M 57.644531 -111.496094 " fill-rule="nonzero"/></g></g></g></g><g clip-path="url(#id7)"><path fill="#ffffff" d="M 98.636719 64.097656 C 98.636719 63.324219 99.265625 62.691406 100.039062 62.691406 L 116.894531 62.691406 C 117.667969 62.691406 118.296875 63.324219 118.296875 64.097656 L 118.296875 66.90625 L 114.082031 66.90625 C 113.308594 66.90625 112.679688 67.535156 112.679688 68.308594 C 112.679688 69.082031 113.308594 69.714844 114.082031 69.714844 L 118.296875 69.714844 L 118.296875 76.734375 L 114.082031 76.734375 C 113.308594 76.734375 112.679688 77.367188 112.679688 78.140625 C 112.679688 78.914062 113.308594 79.546875 114.082031 79.546875 L 118.296875 79.546875 L 118.296875 82.355469 C 118.296875 83.128906 117.667969 83.757812 116.894531 83.757812 L 100.039062 83.757812 C 99.265625 83.757812 98.636719 83.128906 98.636719 82.355469 Z M 125.175781 59.605469 C 125.707031 58.894531 126.546875 58.480469 127.425781 58.480469 L 128.570312 58.480469 L 130.027344 61.289062 L 128.128906 61.289062 C 127.355469 61.289062 126.722656 61.917969 126.722656 62.691406 C 126.722656 63.464844 127.355469 64.097656 128.128906 64.097656 L 143.574219 64.097656 C 144.347656 64.097656 144.980469 64.726562 144.980469 65.5 C 144.980469 66.273438 144.347656 66.90625 143.574219 66.90625 C 142.800781 66.90625 142.171875 67.535156 142.171875 68.308594 C 142.171875 69.082031 142.800781 69.714844 143.574219 69.714844 L 144.980469 69.714844 C 145.753906 69.714844 146.382812 70.34375 146.382812 71.117188 C 146.382812 71.890625 145.753906 72.523438 144.980469 72.523438 C 144.207031 72.523438 143.574219 73.152344 143.574219 73.925781 C 143.574219 74.699219 144.207031 75.332031 144.980469 75.332031 C 145.753906 75.332031 146.382812 75.960938 146.382812 76.734375 C 146.382812 77.507812 145.753906 78.140625 144.980469 78.140625 L 143.574219 78.140625 C 142.800781 78.140625 142.171875 78.769531 142.171875 79.546875 C 142.171875 80.320312 142.800781 80.949219 143.574219 80.949219 C 144.347656 80.949219 144.980469 81.582031 144.980469 82.355469 C 144.980469 83.128906 144.347656 83.757812 143.574219 83.757812 L 126.976562 83.757812 C 126.109375 83.757812 125.242188 83.550781 124.464844 83.164062 L 121.105469 81.488281 L 121.105469 64.597656 Z M 130.953125 56.683594 C 130.980469 56.613281 131.039062 56.488281 131.199219 56.40625 L 132.511719 55.753906 C 132.761719 56.226562 133.242188 56.5 133.746094 56.5 C 133.957031 56.5 134.171875 56.449219 134.375 56.351562 C 135.066406 56.003906 135.347656 55.160156 135 54.46875 L 134.390625 53.246094 C 134.386719 53.246094 134.386719 53.242188 134.386719 53.242188 L 133.738281 51.945312 C 134.25 51.710938 135.351562 51.457031 136.554688 51.457031 C 137.753906 51.457031 138.859375 51.710938 139.367188 51.945312 L 138.71875 53.242188 C 138.71875 53.242188 138.71875 53.246094 138.714844 53.246094 L 138.105469 54.46875 C 137.761719 55.160156 138.039062 56.003906 138.730469 56.351562 C 138.933594 56.449219 139.148438 56.5 139.363281 56.5 C 139.867188 56.5 140.34375 56.226562 140.597656 55.753906 L 141.914062 56.410156 C 142.066406 56.488281 142.128906 56.613281 142.15625 56.683594 C 142.183594 56.769531 142.199219 56.898438 142.117188 57.046875 L 139.917969 61.289062 L 133.191406 61.289062 L 130.980469 57.035156 C 130.910156 56.898438 130.925781 56.769531 130.953125 56.683594 Z M 136.554688 99.207031 C 129.203125 99.207031 126.722656 97.785156 126.722656 93.589844 C 126.722656 91.488281 127.410156 88.921875 128.542969 86.566406 L 133.449219 86.566406 C 134.238281 87.449219 135.339844 87.972656 136.554688 87.972656 C 137.328125 87.972656 137.957031 88.601562 137.957031 89.375 C 137.957031 90.148438 137.328125 90.78125 136.554688 90.78125 C 136.054688 90.78125 135.589844 90.511719 135.347656 90.089844 C 134.960938 89.414062 134.105469 89.179688 133.433594 89.5625 C 132.753906 89.941406 132.523438 90.800781 132.90625 91.472656 C 133.40625 92.355469 134.21875 92.984375 135.148438 93.3125 L 135.148438 93.589844 C 135.148438 94.363281 135.78125 94.992188 136.554688 94.992188 C 137.328125 94.992188 137.957031 94.363281 137.957031 93.589844 L 137.957031 93.332031 C 139.585938 92.75 140.765625 91.203125 140.765625 89.375 C 140.765625 88.289062 140.34375 87.3125 139.667969 86.566406 L 143.574219 86.566406 C 143.90625 86.566406 144.222656 86.523438 144.53125 86.445312 C 145.703125 88.84375 146.382812 91.4375 146.382812 93.589844 C 146.382812 97.785156 143.90625 99.207031 136.554688 99.207031 Z M 100.039062 86.566406 L 116.894531 86.566406 C 118.488281 86.566406 119.855469 85.667969 120.574219 84.363281 L 123.207031 85.679688 C 123.929688 86.035156 124.710938 86.28125 125.503906 86.425781 C 124.492188 88.855469 123.914062 91.378906 123.914062 93.589844 C 123.914062 102.015625 132.136719 102.015625 136.554688 102.015625 C 140.96875 102.015625 149.191406 102.015625 149.191406 93.589844 C 149.191406 90.9375 148.34375 87.761719 146.898438 84.914062 C 147.449219 84.203125 147.789062 83.320312 147.789062 82.355469 C 147.789062 81.601562 147.589844 80.898438 147.246094 80.285156 C 148.414062 79.535156 149.191406 78.222656 149.191406 76.734375 C 149.191406 75.65625 148.789062 74.671875 148.117188 73.925781 C 148.789062 73.179688 149.191406 72.199219 149.191406 71.117188 C 149.191406 69.632812 148.414062 68.320312 147.246094 67.570312 C 147.589844 66.953125 147.789062 66.253906 147.789062 65.5 C 147.789062 63.175781 145.902344 61.289062 143.574219 61.289062 L 143.082031 61.289062 L 144.601562 58.351562 C 145.023438 57.570312 145.101562 56.667969 144.828125 55.824219 C 144.550781 54.972656 143.960938 54.289062 143.164062 53.894531 L 141.863281 53.246094 L 141.878906 53.207031 C 142.21875 52.515625 142.277344 51.738281 142.019531 51.011719 C 141.765625 50.289062 141.238281 49.71875 140.546875 49.394531 C 138.539062 48.472656 134.5625 48.472656 132.566406 49.394531 C 131.867188 49.71875 131.34375 50.289062 131.089844 51.011719 C 130.832031 51.738281 130.886719 52.515625 131.226562 53.207031 L 131.242188 53.246094 L 129.949219 53.886719 C 129.203125 54.261719 128.644531 54.890625 128.347656 55.671875 L 127.425781 55.671875 C 125.664062 55.671875 123.984375 56.511719 122.964844 57.875 L 120.097656 61.390625 C 119.324219 60.476562 118.183594 59.882812 116.894531 59.882812 L 100.039062 59.882812 C 97.714844 59.882812 95.828125 61.769531 95.828125 64.097656 L 95.828125 82.355469 C 95.828125 84.679688 97.714844 86.566406 100.039062 86.566406 " fill-opacity="1" fill-rule="nonzero"/></g><g clip-path="url(#id8)"><path fill="#ffffff" d="M 177.28125 124.484375 C 177.28125 125.257812 176.648438 125.890625 175.875 125.890625 L 171.664062 125.890625 C 170.890625 125.890625 170.257812 125.257812 170.257812 124.484375 L 170.257812 123.082031 L 173.066406 123.082031 C 173.839844 123.082031 174.472656 122.449219 174.472656 121.675781 C 174.472656 120.902344 173.839844 120.273438 173.066406 120.273438 L 170.257812 120.273438 L 170.257812 114.652344 L 173.066406 114.652344 C 173.839844 114.652344 174.472656 114.023438 174.472656 113.25 C 174.472656 112.476562 173.839844 111.84375 173.066406 111.84375 L 170.257812 111.84375 L 170.257812 110.441406 C 170.257812 109.667969 170.890625 109.035156 171.664062 109.035156 L 175.875 109.035156 C 176.648438 109.035156 177.28125 109.667969 177.28125 110.441406 Z M 138.046875 117.464844 L 145.894531 117.464844 L 142.238281 119.9375 C 142.183594 119.976562 142.105469 119.976562 142.039062 119.9375 Z M 167.4375 122.773438 C 167.125 122.777344 166.792969 122.824219 166.453125 122.925781 L 144.414062 129.976562 C 143.5 130.25 142.511719 130.070312 141.78125 129.5 L 118.652344 110.957031 C 118.429688 110.78125 118.296875 110.5 118.296875 110.214844 C 118.296875 110.050781 118.339844 109.898438 118.414062 109.761719 C 118.59375 109.441406 118.929688 109.265625 119.246094 109.265625 C 119.382812 109.265625 119.515625 109.292969 119.636719 109.359375 L 140.554688 122.316406 C 141.550781 122.941406 142.828125 122.921875 143.8125 122.261719 L 150.90625 117.464844 L 154.8125 117.464844 C 155.585938 117.464844 156.214844 116.832031 156.214844 116.058594 C 156.214844 115.285156 155.585938 114.652344 154.8125 114.652344 L 133.871094 114.652344 C 133.617188 114.652344 133.378906 114.550781 133.203125 114.378906 C 133.027344 114.203125 132.933594 113.972656 132.933594 113.714844 C 132.933594 113.265625 133.273438 112.867188 133.707031 112.792969 L 158.457031 109.152344 C 159.859375 108.933594 161.277344 109.0625 162.46875 109.480469 L 167.449219 111.808594 Z M 175.875 106.226562 L 171.664062 106.226562 C 169.902344 106.226562 168.394531 107.320312 167.761719 108.855469 L 163.539062 106.886719 C 161.78125 106.261719 159.875 106.085938 158.035156 106.375 L 133.273438 110.023438 C 131.8125 110.261719 130.671875 111.300781 130.277344 112.652344 L 121.054688 106.941406 C 119.25 105.933594 116.964844 106.585938 115.953125 108.40625 C 115.648438 108.964844 115.488281 109.589844 115.488281 110.214844 C 115.488281 111.351562 116.019531 112.453125 116.902344 113.152344 L 140.042969 131.703125 C 141.058594 132.492188 142.296875 132.90625 143.566406 132.90625 C 144.128906 132.90625 144.6875 132.824219 145.25 132.660156 L 167.296875 125.609375 C 167.382812 125.582031 167.5 125.597656 167.621094 125.609375 C 168.121094 127.386719 169.730469 128.699219 171.664062 128.699219 L 175.875 128.699219 C 178.203125 128.699219 180.089844 126.8125 180.089844 124.484375 L 180.089844 110.441406 C 180.089844 108.113281 178.203125 106.226562 175.875 106.226562 " fill-opacity="1" fill-rule="nonzero"/></g></svg>