<svg xmlns="http://www.w3.org/2000/svg" xmlns:xlink="http://www.w3.org/1999/xlink" width="368" zoomAndPan="magnify" viewBox="0 0 276 182.249993" height="243" preserveAspectRatio="xMidYMid meet" version="1.0"><defs><clipPath id="id1"><path d="M 0.566406 0 L 275.433594 0 L 275.433594 181.503906 L 0.566406 181.503906 Z M 0.566406 0 " clip-rule="nonzero"/></clipPath><clipPath id="id2"><path d="M 0.566406 0 L 275.433594 0 L 275.433594 181.503906 L 0.566406 181.503906 Z M 0.566406 0 " clip-rule="nonzero"/></clipPath><clipPath id="id3"><path d="M 64.839844 -143.011719 L 364.695312 10.5 L 211.183594 310.351562 L -88.667969 156.84375 Z M 64.839844 -143.011719 " clip-rule="nonzero"/></clipPath><clipPath id="id4"><path d="M 64.839844 -143.011719 L 364.695312 10.5 L 211.183594 310.351562 L -88.667969 156.84375 Z M 64.839844 -143.011719 " clip-rule="nonzero"/></clipPath><clipPath id="id5"><path d="M 64.839844 -143.011719 L 364.695312 10.5 L 211.183594 310.351562 L -88.667969 156.84375 Z M 64.839844 -143.011719 " clip-rule="evenodd"/></clipPath><linearGradient x1="0.99547" gradientTransform="matrix(299.853513, 153.509032, -153.509032, 299.853513, 64.840682, -143.010673)" y1="0.5" x2="0.0236199" gradientUnits="userSpaceOnUse" y2="0.5" id="id6"><stop stop-opacity="1" stop-color="rgb(21.899414%, 36.647034%, 53.996277%)" offset="0"/><stop stop-opacity="1" stop-color="rgb(21.815491%, 36.769104%, 53.909302%)" offset="0.0078125"/><stop stop-opacity="1" stop-color="rgb(21.64917%, 37.016296%, 53.736877%)" offset="0.015625"/><stop stop-opacity="1" stop-color="rgb(21.481323%, 37.263489%, 53.564453%)" offset="0.0234375"/><stop stop-opacity="1" stop-color="rgb(21.315002%, 37.509155%, 53.392029%)" offset="0.03125"/><stop stop-opacity="1" stop-color="rgb(21.147156%, 37.756348%, 53.219604%)" offset="0.0390625"/><stop stop-opacity="1" stop-color="rgb(20.980835%, 38.00354%, 53.04718%)" offset="0.046875"/><stop stop-opacity="1" stop-color="rgb(20.812988%, 38.250732%, 52.874756%)" offset="0.0546875"/><stop stop-opacity="1" stop-color="rgb(20.646667%, 38.496399%, 52.702332%)" offset="0.0625"/><stop stop-opacity="1" stop-color="rgb(20.478821%, 38.743591%, 52.531433%)" offset="0.0703125"/><stop stop-opacity="1" stop-color="rgb(20.3125%, 38.990784%, 52.359009%)" offset="0.078125"/><stop stop-opacity="1" stop-color="rgb(20.144653%, 39.237976%, 52.186584%)" offset="0.0859375"/><stop stop-opacity="1" stop-color="rgb(19.978333%, 39.483643%, 52.01416%)" offset="0.09375"/><stop stop-opacity="1" stop-color="rgb(19.810486%, 39.730835%, 51.841736%)" offset="0.101562"/><stop stop-opacity="1" stop-color="rgb(19.644165%, 39.978027%, 51.669312%)" offset="0.109375"/><stop stop-opacity="1" stop-color="rgb(19.477844%, 40.223694%, 51.496887%)" offset="0.117187"/><stop stop-opacity="1" stop-color="rgb(19.309998%, 40.470886%, 51.324463%)" offset="0.125"/><stop stop-opacity="1" stop-color="rgb(19.143677%, 40.718079%, 51.152039%)" offset="0.132812"/><stop stop-opacity="1" stop-color="rgb(18.97583%, 40.965271%, 50.979614%)" offset="0.140625"/><stop stop-opacity="1" stop-color="rgb(18.809509%, 41.210938%, 50.80719%)" offset="0.148437"/><stop stop-opacity="1" stop-color="rgb(18.641663%, 41.45813%, 50.634766%)" offset="0.15625"/><stop stop-opacity="1" stop-color="rgb(18.475342%, 41.705322%, 50.462341%)" offset="0.164062"/><stop stop-opacity="1" stop-color="rgb(18.307495%, 41.950989%, 50.289917%)" offset="0.171875"/><stop stop-opacity="1" stop-color="rgb(18.141174%, 42.198181%, 50.117493%)" offset="0.179687"/><stop stop-opacity="1" stop-color="rgb(17.973328%, 42.445374%, 49.945068%)" offset="0.1875"/><stop stop-opacity="1" stop-color="rgb(17.807007%, 42.692566%, 49.772644%)" offset="0.195312"/><stop stop-opacity="1" stop-color="rgb(17.63916%, 42.938232%, 49.60022%)" offset="0.203125"/><stop stop-opacity="1" stop-color="rgb(17.472839%, 43.185425%, 49.427795%)" offset="0.210937"/><stop stop-opacity="1" stop-color="rgb(17.304993%, 43.432617%, 49.255371%)" offset="0.21875"/><stop stop-opacity="1" stop-color="rgb(17.138672%, 43.678284%, 49.082947%)" offset="0.226562"/><stop stop-opacity="1" stop-color="rgb(16.970825%, 43.925476%, 48.912048%)" offset="0.234375"/><stop stop-opacity="1" stop-color="rgb(16.804504%, 44.172668%, 48.739624%)" offset="0.242188"/><stop stop-opacity="1" stop-color="rgb(16.638184%, 44.419861%, 48.5672%)" offset="0.25"/><stop stop-opacity="1" stop-color="rgb(16.470337%, 44.665527%, 48.394775%)" offset="0.257812"/><stop stop-opacity="1" stop-color="rgb(16.304016%, 44.91272%, 48.222351%)" offset="0.265625"/><stop stop-opacity="1" stop-color="rgb(16.136169%, 45.159912%, 48.049927%)" offset="0.273438"/><stop stop-opacity="1" stop-color="rgb(15.969849%, 45.405579%, 47.877502%)" offset="0.28125"/><stop stop-opacity="1" stop-color="rgb(15.802002%, 45.652771%, 47.705078%)" offset="0.289063"/><stop stop-opacity="1" stop-color="rgb(15.635681%, 45.899963%, 47.532654%)" offset="0.296875"/><stop stop-opacity="1" stop-color="rgb(15.467834%, 46.147156%, 47.360229%)" offset="0.304688"/><stop stop-opacity="1" stop-color="rgb(15.301514%, 46.392822%, 47.187805%)" offset="0.3125"/><stop stop-opacity="1" stop-color="rgb(15.133667%, 46.640015%, 47.015381%)" offset="0.320313"/><stop stop-opacity="1" stop-color="rgb(14.967346%, 46.887207%, 46.842957%)" offset="0.328125"/><stop stop-opacity="1" stop-color="rgb(14.7995%, 47.132874%, 46.670532%)" offset="0.335938"/><stop stop-opacity="1" stop-color="rgb(14.633179%, 47.380066%, 46.498108%)" offset="0.34375"/><stop stop-opacity="1" stop-color="rgb(14.465332%, 47.627258%, 46.325684%)" offset="0.351563"/><stop stop-opacity="1" stop-color="rgb(14.299011%, 47.874451%, 46.153259%)" offset="0.359375"/><stop stop-opacity="1" stop-color="rgb(14.13269%, 48.120117%, 45.980835%)" offset="0.367188"/><stop stop-opacity="1" stop-color="rgb(13.964844%, 48.36731%, 45.808411%)" offset="0.375"/><stop stop-opacity="1" stop-color="rgb(13.798523%, 48.614502%, 45.635986%)" offset="0.382813"/><stop stop-opacity="1" stop-color="rgb(13.630676%, 48.860168%, 45.463562%)" offset="0.390625"/><stop stop-opacity="1" stop-color="rgb(13.464355%, 49.107361%, 45.292664%)" offset="0.398438"/><stop stop-opacity="1" stop-color="rgb(13.296509%, 49.354553%, 45.120239%)" offset="0.40625"/><stop stop-opacity="1" stop-color="rgb(13.130188%, 49.601746%, 44.947815%)" offset="0.414063"/><stop stop-opacity="1" stop-color="rgb(12.962341%, 49.847412%, 44.775391%)" offset="0.421875"/><stop stop-opacity="1" stop-color="rgb(12.796021%, 50.094604%, 44.602966%)" offset="0.429688"/><stop stop-opacity="1" stop-color="rgb(12.628174%, 50.341797%, 44.430542%)" offset="0.4375"/><stop stop-opacity="1" stop-color="rgb(12.461853%, 50.587463%, 44.258118%)" offset="0.445313"/><stop stop-opacity="1" stop-color="rgb(12.294006%, 50.834656%, 44.085693%)" offset="0.453125"/><stop stop-opacity="1" stop-color="rgb(12.127686%, 51.081848%, 43.913269%)" offset="0.460938"/><stop stop-opacity="1" stop-color="rgb(11.959839%, 51.329041%, 43.740845%)" offset="0.46875"/><stop stop-opacity="1" stop-color="rgb(11.793518%, 51.574707%, 43.56842%)" offset="0.476563"/><stop stop-opacity="1" stop-color="rgb(11.625671%, 51.821899%, 43.395996%)" offset="0.484375"/><stop stop-opacity="1" stop-color="rgb(11.459351%, 52.069092%, 43.223572%)" offset="0.492188"/><stop stop-opacity="1" stop-color="rgb(11.29303%, 52.314758%, 43.051147%)" offset="0.5"/><stop stop-opacity="1" stop-color="rgb(11.125183%, 52.561951%, 42.878723%)" offset="0.507812"/><stop stop-opacity="1" stop-color="rgb(10.958862%, 52.809143%, 42.706299%)" offset="0.515625"/><stop stop-opacity="1" stop-color="rgb(10.791016%, 53.056335%, 42.533875%)" offset="0.523438"/><stop stop-opacity="1" stop-color="rgb(10.624695%, 53.302002%, 42.36145%)" offset="0.53125"/><stop stop-opacity="1" stop-color="rgb(10.456848%, 53.549194%, 42.189026%)" offset="0.539062"/><stop stop-opacity="1" stop-color="rgb(10.290527%, 53.796387%, 42.016602%)" offset="0.546875"/><stop stop-opacity="1" stop-color="rgb(10.122681%, 54.042053%, 41.844177%)" offset="0.554688"/><stop stop-opacity="1" stop-color="rgb(9.95636%, 54.289246%, 41.673279%)" offset="0.5625"/><stop stop-opacity="1" stop-color="rgb(9.788513%, 54.536438%, 41.500854%)" offset="0.570312"/><stop stop-opacity="1" stop-color="rgb(9.622192%, 54.78363%, 41.32843%)" offset="0.578125"/><stop stop-opacity="1" stop-color="rgb(9.454346%, 55.029297%, 41.156006%)" offset="0.585938"/><stop stop-opacity="1" stop-color="rgb(9.288025%, 55.276489%, 40.983582%)" offset="0.59375"/><stop stop-opacity="1" stop-color="rgb(9.120178%, 55.523682%, 40.811157%)" offset="0.601562"/><stop stop-opacity="1" stop-color="rgb(8.953857%, 55.769348%, 40.638733%)" offset="0.609375"/><stop stop-opacity="1" stop-color="rgb(8.787537%, 56.016541%, 40.466309%)" offset="0.617188"/><stop stop-opacity="1" stop-color="rgb(8.61969%, 56.263733%, 40.293884%)" offset="0.625"/><stop stop-opacity="1" stop-color="rgb(8.453369%, 56.510925%, 40.12146%)" offset="0.632812"/><stop stop-opacity="1" stop-color="rgb(8.285522%, 56.756592%, 39.949036%)" offset="0.640625"/><stop stop-opacity="1" stop-color="rgb(8.119202%, 57.003784%, 39.776611%)" offset="0.648438"/><stop stop-opacity="1" stop-color="rgb(7.951355%, 57.250977%, 39.604187%)" offset="0.65625"/><stop stop-opacity="1" stop-color="rgb(7.785034%, 57.496643%, 39.431763%)" offset="0.664062"/><stop stop-opacity="1" stop-color="rgb(7.617188%, 57.743835%, 39.259338%)" offset="0.671875"/><stop stop-opacity="1" stop-color="rgb(7.450867%, 57.991028%, 39.086914%)" offset="0.679688"/><stop stop-opacity="1" stop-color="rgb(7.28302%, 58.23822%, 38.91449%)" offset="0.6875"/><stop stop-opacity="1" stop-color="rgb(7.116699%, 58.483887%, 38.742065%)" offset="0.695312"/><stop stop-opacity="1" stop-color="rgb(6.948853%, 58.731079%, 38.569641%)" offset="0.703125"/><stop stop-opacity="1" stop-color="rgb(6.782532%, 58.978271%, 38.397217%)" offset="0.710938"/><stop stop-opacity="1" stop-color="rgb(6.614685%, 59.223938%, 38.224792%)" offset="0.71875"/><stop stop-opacity="1" stop-color="rgb(6.448364%, 59.47113%, 38.053894%)" offset="0.726562"/><stop stop-opacity="1" stop-color="rgb(6.280518%, 59.718323%, 37.88147%)" offset="0.734375"/><stop stop-opacity="1" stop-color="rgb(6.114197%, 59.965515%, 37.709045%)" offset="0.742188"/><stop stop-opacity="1" stop-color="rgb(5.947876%, 60.211182%, 37.536621%)" offset="0.75"/><stop stop-opacity="1" stop-color="rgb(5.780029%, 60.458374%, 37.364197%)" offset="0.757812"/><stop stop-opacity="1" stop-color="rgb(5.613708%, 60.705566%, 37.191772%)" offset="0.765625"/><stop stop-opacity="1" stop-color="rgb(5.445862%, 60.951233%, 37.019348%)" offset="0.773438"/><stop stop-opacity="1" stop-color="rgb(5.279541%, 61.198425%, 36.846924%)" offset="0.78125"/><stop stop-opacity="1" stop-color="rgb(5.111694%, 61.445618%, 36.6745%)" offset="0.789062"/><stop stop-opacity="1" stop-color="rgb(4.945374%, 61.69281%, 36.502075%)" offset="0.796875"/><stop stop-opacity="1" stop-color="rgb(4.777527%, 61.938477%, 36.329651%)" offset="0.804688"/><stop stop-opacity="1" stop-color="rgb(4.611206%, 62.185669%, 36.157227%)" offset="0.8125"/><stop stop-opacity="1" stop-color="rgb(4.443359%, 62.432861%, 35.984802%)" offset="0.820312"/><stop stop-opacity="1" stop-color="rgb(4.277039%, 62.680054%, 35.812378%)" offset="0.828125"/><stop stop-opacity="1" stop-color="rgb(4.109192%, 62.92572%, 35.639954%)" offset="0.835938"/><stop stop-opacity="1" stop-color="rgb(3.942871%, 63.172913%, 35.467529%)" offset="0.84375"/><stop stop-opacity="1" stop-color="rgb(3.775024%, 63.420105%, 35.295105%)" offset="0.851562"/><stop stop-opacity="1" stop-color="rgb(3.608704%, 63.665771%, 35.122681%)" offset="0.859375"/><stop stop-opacity="1" stop-color="rgb(3.440857%, 63.912964%, 34.950256%)" offset="0.867188"/><stop stop-opacity="1" stop-color="rgb(3.274536%, 64.160156%, 34.777832%)" offset="0.875"/><stop stop-opacity="1" stop-color="rgb(3.108215%, 64.407349%, 34.605408%)" offset="0.882812"/><stop stop-opacity="1" stop-color="rgb(2.940369%, 64.653015%, 34.434509%)" offset="0.890625"/><stop stop-opacity="1" stop-color="rgb(2.774048%, 64.900208%, 34.262085%)" offset="0.898438"/><stop stop-opacity="1" stop-color="rgb(2.606201%, 65.1474%, 34.089661%)" offset="0.90625"/><stop stop-opacity="1" stop-color="rgb(2.43988%, 65.393066%, 33.917236%)" offset="0.914062"/><stop stop-opacity="1" stop-color="rgb(2.272034%, 65.640259%, 33.744812%)" offset="0.921875"/><stop stop-opacity="1" stop-color="rgb(2.105713%, 65.887451%, 33.572388%)" offset="0.929688"/><stop stop-opacity="1" stop-color="rgb(1.937866%, 66.134644%, 33.399963%)" offset="0.9375"/><stop stop-opacity="1" stop-color="rgb(1.771545%, 66.38031%, 33.227539%)" offset="0.945312"/><stop stop-opacity="1" stop-color="rgb(1.603699%, 66.627502%, 33.055115%)" offset="0.953125"/><stop stop-opacity="1" stop-color="rgb(1.437378%, 66.874695%, 32.88269%)" offset="0.960938"/><stop stop-opacity="1" stop-color="rgb(1.269531%, 67.120361%, 32.710266%)" offset="0.96875"/><stop stop-opacity="1" stop-color="rgb(1.10321%, 67.367554%, 32.537842%)" offset="0.976562"/><stop stop-opacity="1" stop-color="rgb(0.935364%, 67.614746%, 32.365417%)" offset="0.984375"/><stop stop-opacity="1" stop-color="rgb(0.769043%, 67.861938%, 32.192993%)" offset="0.992188"/><stop stop-opacity="1" stop-color="rgb(0.602722%, 68.107605%, 32.020569%)" offset="1"/></linearGradient><clipPath id="id7"><path d="M 95 48.238281 L 164 48.238281 L 164 133.386719 L 95 133.386719 Z M 95 48.238281 " clip-rule="nonzero"/></clipPath><clipPath id="id8"><path d="M 159 102 L 181 102 L 181 133.386719 L 159 133.386719 Z M 159 102 " clip-rule="nonzero"/></clipPath></defs><g clip-path="url(#id1)"><path fill="#ffffff" d="M 0.566406 0 L 275.433594 0 L 275.433594 188.972656 L 0.566406 188.972656 Z M 0.566406 0 " fill-opacity="1" fill-rule="nonzero"/><path fill="#ffffff" d="M 0.566406 0 L 275.433594 0 L 275.433594 181.503906 L 0.566406 181.503906 Z M 0.566406 0 " fill-opacity="1" fill-rule="nonzero"/><path fill="#ffffff" d="M 0.566406 0 L 275.433594 0 L 275.433594 181.503906 L 0.566406 181.503906 Z M 0.566406 0 " fill-opacity="1" fill-rule="nonzero"/><path fill="#ffffff" d="M 0.566406 0 L 275.433594 0 L 275.433594 181.503906 L 0.566406 181.503906 Z M 0.566406 0 " fill-opacity="1" fill-rule="nonzero"/></g><g clip-path="url(#id2)"><g clip-path="url(#id3)"><g clip-path="url(#id4)"><g clip-path="url(#id5)"><path fill="url(#id6)" d="M 57.644531 -111.496094 L -73.058594 143.8125 L 218.355469 293 L 349.058594 37.691406 Z M 57.644531 -111.496094 " fill-rule="nonzero"/></g></g></g></g><g clip-path="url(#id7)"><path fill="#ffffff" d="M 113.039062 63.195312 C 114.003906 63.445312 115.050781 63.324219 116.003906 62.863281 C 119.03125 61.335938 122.285156 60.335938 125.636719 59.890625 L 125.636719 65.097656 C 125.636719 67.246094 127.15625 69.125 129.171875 69.464844 C 130.410156 69.675781 131.679688 69.332031 132.636719 68.515625 C 133.59375 67.707031 134.148438 66.519531 134.148438 65.269531 L 134.132812 62.5 C 134.132812 62.480469 134.148438 62.457031 134.148438 62.429688 L 134.148438 59.886719 C 137.519531 60.339844 140.761719 61.34375 143.796875 62.867188 C 144.734375 63.324219 145.78125 63.445312 146.734375 63.195312 L 161.105469 59.585938 L 157.503906 73.953125 C 157.253906 74.917969 157.371094 75.96875 157.835938 76.914062 C 159.976562 81.195312 161.105469 86 161.105469 90.8125 C 161.105469 99.589844 157.375 108.015625 150.871094 113.925781 C 147.589844 116.90625 143.824219 119.097656 139.773438 120.449219 C 139.734375 120.460938 139.691406 120.453125 139.660156 120.464844 C 139.628906 120.476562 139.621094 120.5 139.597656 120.503906 C 135.546875 121.828125 131.21875 122.3125 126.796875 121.886719 C 112.878906 120.539062 101.214844 109.550781 99.0625 95.761719 C 98.058594 89.234375 99.058594 82.714844 101.957031 76.902344 C 102.410156 75.96875 102.527344 74.925781 102.285156 73.964844 L 98.675781 59.589844 Z M 128.476562 51.078125 L 131.3125 51.078125 L 131.3125 65.269531 C 131.3125 65.683594 131.125 66.078125 130.808594 66.355469 C 130.621094 66.511719 130.214844 66.765625 129.644531 66.664062 C 128.988281 66.554688 128.476562 65.867188 128.476562 65.097656 Z M 149.753906 130.550781 L 147 130.550781 C 145.820312 130.550781 144.777344 129.835938 144.359375 128.730469 L 142.019531 122.660156 C 145.855469 121.199219 149.429688 119.019531 152.59375 116.179688 L 152.59375 127.710938 C 152.59375 129.273438 151.320312 130.550781 149.753906 130.550781 Z M 115.414062 128.714844 C 115.003906 129.8125 113.933594 130.550781 112.753906 130.550781 L 110.03125 130.550781 C 108.46875 130.550781 107.195312 129.273438 107.195312 127.710938 L 107.195312 116.230469 C 110.253906 118.964844 113.800781 121.140625 117.699219 122.628906 Z M 99.535156 74.660156 C 99.613281 74.976562 99.566406 75.328125 99.414062 75.644531 C 96.253906 81.976562 95.160156 89.082031 96.257812 96.195312 C 97.285156 102.769531 100.175781 108.675781 104.355469 113.398438 L 104.355469 127.710938 C 104.355469 130.84375 106.898438 133.386719 110.03125 133.386719 L 112.753906 133.386719 C 115.109375 133.386719 117.246094 131.914062 118.066406 129.710938 L 120.394531 123.527344 C 122.371094 124.089844 124.417969 124.507812 126.523438 124.710938 C 127.664062 124.816406 128.808594 124.871094 129.9375 124.871094 C 133.15625 124.871094 136.304688 124.429688 139.324219 123.558594 L 141.707031 129.757812 C 142.5625 131.964844 144.640625 133.386719 147 133.386719 L 149.753906 133.386719 C 152.886719 133.386719 155.429688 130.84375 155.429688 127.710938 L 155.429688 113.324219 C 160.878906 107.140625 163.941406 99.121094 163.941406 90.8125 C 163.941406 85.5625 162.707031 80.320312 160.378906 75.65625 C 160.21875 75.324219 160.175781 74.976562 160.253906 74.652344 L 163.859375 60.273438 C 164.097656 59.296875 163.820312 58.292969 163.113281 57.585938 C 162.402344 56.875 161.398438 56.59375 160.417969 56.835938 L 146.042969 60.445312 C 145.726562 60.523438 145.371094 60.476562 145.0625 60.324219 C 141.742188 58.660156 138.191406 57.5625 134.5 57.0625 C 134.382812 57.050781 134.265625 57.058594 134.148438 57.058594 L 134.148438 51.078125 C 134.148438 49.511719 132.875 48.238281 131.3125 48.238281 L 128.476562 48.238281 C 126.910156 48.238281 125.636719 49.511719 125.636719 51.078125 L 125.636719 57.058594 C 125.519531 57.058594 125.40625 57.050781 125.289062 57.0625 C 121.597656 57.5625 118.042969 58.660156 114.742188 60.316406 C 114.410156 60.484375 114.058594 60.523438 113.738281 60.445312 L 99.363281 56.835938 C 98.394531 56.597656 97.382812 56.875 96.675781 57.585938 C 95.964844 58.292969 95.6875 59.296875 95.933594 60.277344 L 99.535156 74.660156 " fill-opacity="1" fill-rule="nonzero"/></g><path fill="#ffffff" d="M 129.894531 87.976562 C 138.5 87.976562 145.5 93.070312 145.5 99.328125 C 145.5 105.585938 138.5 110.679688 129.894531 110.679688 C 121.285156 110.679688 114.289062 105.585938 114.289062 99.328125 C 114.289062 93.070312 121.285156 87.976562 129.894531 87.976562 Z M 111.449219 99.328125 C 111.449219 107.15625 119.722656 113.519531 129.894531 113.519531 C 140.0625 113.519531 148.335938 107.15625 148.335938 99.328125 C 148.335938 91.5 140.0625 85.136719 129.894531 85.136719 C 119.722656 85.136719 111.449219 91.5 111.449219 99.328125 " fill-opacity="1" fill-rule="nonzero"/><path fill="#ffffff" d="M 124.21875 96.488281 C 124.792969 96.488281 125.636719 97.597656 125.636719 99.328125 C 125.636719 101.058594 124.792969 102.167969 124.21875 102.167969 C 123.640625 102.167969 122.800781 101.058594 122.800781 99.328125 C 122.800781 97.597656 123.640625 96.488281 124.21875 96.488281 Z M 124.21875 105.003906 C 126.605469 105.003906 128.476562 102.511719 128.476562 99.328125 C 128.476562 96.144531 126.605469 93.652344 124.21875 93.652344 C 121.828125 93.652344 119.960938 96.144531 119.960938 99.328125 C 119.960938 102.511719 121.828125 105.003906 124.21875 105.003906 " fill-opacity="1" fill-rule="nonzero"/><path fill="#ffffff" d="M 135.566406 96.488281 C 136.144531 96.488281 136.988281 97.597656 136.988281 99.328125 C 136.988281 101.058594 136.144531 102.167969 135.566406 102.167969 C 134.992188 102.167969 134.148438 101.058594 134.148438 99.328125 C 134.148438 97.597656 134.992188 96.488281 135.566406 96.488281 Z M 135.566406 105.003906 C 137.957031 105.003906 139.824219 102.511719 139.824219 99.328125 C 139.824219 96.144531 137.957031 93.652344 135.566406 93.652344 C 133.179688 93.652344 131.3125 96.144531 131.3125 99.328125 C 131.3125 102.511719 133.179688 105.003906 135.566406 105.003906 " fill-opacity="1" fill-rule="nonzero"/><path fill="#ffffff" d="M 117.125 76.621094 C 118.6875 76.621094 119.960938 77.894531 119.960938 79.460938 C 119.960938 81.023438 118.6875 82.296875 117.125 82.296875 C 115.5625 82.296875 114.289062 81.023438 114.289062 79.460938 C 114.289062 77.894531 115.5625 76.621094 117.125 76.621094 Z M 117.125 85.136719 C 120.257812 85.136719 122.800781 82.59375 122.800781 79.460938 C 122.800781 76.328125 120.257812 73.78125 117.125 73.78125 C 113.992188 73.78125 111.449219 76.328125 111.449219 79.460938 C 111.449219 82.59375 113.992188 85.136719 117.125 85.136719 " fill-opacity="1" fill-rule="nonzero"/><path fill="#ffffff" d="M 142.660156 76.621094 C 144.226562 76.621094 145.5 77.894531 145.5 79.460938 C 145.5 81.023438 144.226562 82.296875 142.660156 82.296875 C 141.097656 82.296875 139.824219 81.023438 139.824219 79.460938 C 139.824219 77.894531 141.097656 76.621094 142.660156 76.621094 Z M 142.660156 85.136719 C 145.792969 85.136719 148.335938 82.59375 148.335938 79.460938 C 148.335938 76.328125 145.792969 73.78125 142.660156 73.78125 C 139.53125 73.78125 136.988281 76.328125 136.988281 79.460938 C 136.988281 82.59375 139.53125 85.136719 142.660156 85.136719 " fill-opacity="1" fill-rule="nonzero"/><g clip-path="url(#id8)"><path fill="#ffffff" d="M 173.875 113.519531 L 165.363281 113.519531 L 165.363281 110.679688 L 176.710938 110.679688 L 176.71875 113.519531 Z M 173.878906 119.195312 L 162.523438 119.195312 L 162.523438 116.359375 L 173.875 116.359375 Z M 178.128906 122.035156 L 178.136719 124.871094 L 166.78125 124.871094 L 166.78125 122.035156 Z M 173.878906 130.550781 L 162.523438 130.550781 L 162.523438 127.710938 L 173.875 127.710938 Z M 166.78125 105.003906 L 178.128906 105.003906 L 178.136719 107.84375 L 166.78125 107.84375 Z M 178.128906 102.167969 L 166.78125 102.167969 C 165.21875 102.167969 163.941406 103.441406 163.941406 105.003906 L 163.941406 107.84375 C 163.941406 107.96875 163.964844 108.09375 163.980469 108.21875 C 163.117188 108.703125 162.523438 109.621094 162.523438 110.679688 L 162.523438 113.519531 C 160.960938 113.519531 159.6875 114.792969 159.6875 116.359375 L 159.6875 119.195312 C 159.6875 120.757812 160.960938 122.035156 162.523438 122.035156 L 163.941406 122.035156 L 163.941406 124.871094 L 162.523438 124.871094 C 160.960938 124.871094 159.6875 126.148438 159.6875 127.710938 L 159.6875 130.550781 C 159.6875 132.113281 160.960938 133.386719 162.523438 133.386719 L 173.875 133.386719 C 175.4375 133.386719 176.710938 132.113281 176.710938 130.550781 L 176.710938 127.710938 L 178.128906 127.710938 C 179.695312 127.710938 180.96875 126.4375 180.96875 124.871094 L 180.96875 122.035156 C 180.96875 120.472656 179.695312 119.195312 178.128906 119.195312 L 176.710938 119.195312 L 176.710938 116.359375 C 178.273438 116.359375 179.550781 115.082031 179.550781 113.519531 L 179.550781 110.679688 C 179.550781 110.554688 179.527344 110.433594 179.511719 110.304688 C 180.375 109.820312 180.96875 108.902344 180.96875 107.84375 L 180.96875 105.003906 C 180.96875 103.441406 179.695312 102.167969 178.128906 102.167969 " fill-opacity="1" fill-rule="nonzero"/></g><path fill="#ffffff" d="M 103.96875 71.40625 C 104.132812 72.046875 104.707031 72.46875 105.335938 72.46875 C 105.453125 72.46875 105.574219 72.457031 105.695312 72.425781 C 106.449219 72.230469 106.910156 71.453125 106.71875 70.695312 L 105.785156 67.097656 C 105.746094 66.949219 105.8125 66.84375 105.875 66.785156 C 105.933594 66.726562 106.035156 66.660156 106.171875 66.699219 L 109.78125 67.625 C 110.539062 67.824219 111.316406 67.363281 111.511719 66.609375 C 111.703125 65.84375 111.25 65.074219 110.492188 64.875 L 106.878906 63.949219 C 105.785156 63.671875 104.660156 63.980469 103.867188 64.78125 C 103.070312 65.574219 102.761719 66.699219 103.035156 67.796875 L 103.96875 71.40625 " fill-opacity="1" fill-rule="nonzero"/><path fill="#ffffff" d="M 150.003906 67.625 L 153.601562 66.699219 C 153.761719 66.664062 153.855469 66.726562 153.914062 66.785156 C 153.972656 66.84375 154.039062 66.949219 154 67.085938 L 153.074219 70.695312 C 152.875 71.453125 153.335938 72.230469 154.089844 72.425781 C 154.210938 72.457031 154.328125 72.46875 154.449219 72.46875 C 155.082031 72.46875 155.652344 72.046875 155.824219 71.40625 L 156.75 67.789062 C 157.027344 66.699219 156.714844 65.574219 155.917969 64.78125 C 155.125 63.980469 154 63.675781 152.902344 63.949219 L 149.296875 64.875 C 148.535156 65.074219 148.082031 65.84375 148.277344 66.609375 C 148.476562 67.367188 149.25 67.824219 150.003906 67.625 " fill-opacity="1" fill-rule="nonzero"/></svg>