<svg xmlns="http://www.w3.org/2000/svg" xmlns:xlink="http://www.w3.org/1999/xlink" width="1080" zoomAndPan="magnify" viewBox="0 0 810 809.999993" height="1080" preserveAspectRatio="xMidYMid meet" version="1.0"><defs><filter x="0%" y="0%" width="100%" height="100%" id="id1"><feColorMatrix values="0 0 0 0 1 0 0 0 0 1 0 0 0 0 1 0 0 0 1 0" color-interpolation-filters="sRGB"/></filter><clipPath id="id2"><path d="M 221 129 L 342 129 L 342 384.429688 L 221 384.429688 Z M 221 129 " clip-rule="nonzero"/></clipPath><clipPath id="id3"><path d="M 283 40.5 L 361 40.5 L 361 138 L 283 138 Z M 283 40.5 " clip-rule="nonzero"/></clipPath><clipPath id="id4"><path d="M 443 150.199219 L 482 150.199219 L 482 204 L 443 204 Z M 443 150.199219 " clip-rule="nonzero"/></clipPath><mask id="id5"><g filter="url(#id1)"><rect x="-81" width="972" fill="#000000" y="-80.999999" height="971.999992" fill-opacity="0.098"/></g></mask><clipPath id="id6"><path d="M 0.199219 0.359375 L 42 0.359375 L 42 39 L 0.199219 39 Z M 0.199219 0.359375 " clip-rule="nonzero"/></clipPath><clipPath id="id7"><rect x="0" width="43" y="0" height="40"/></clipPath></defs><g clip-path="url(#id2)"><path fill="#444142" d="M 281.839844 307.839844 C 281.34375 307.347656 280.917969 306.59375 280.914062 305.847656 C 283.433594 305.414062 286.09375 307.359375 287.820312 309.441406 C 287.90625 309.546875 287.992188 309.660156 288.078125 309.765625 C 288.058594 309.902344 288.042969 310.035156 288.023438 310.167969 C 286.957031 310 285.90625 309.761719 284.878906 309.4375 C 283.90625 309.128906 282.675781 308.667969 281.839844 307.839844 Z M 341.476562 231.742188 L 339.21875 231.882812 C 339.761719 240.71875 338.570312 249.835938 335.773438 258.238281 C 333.726562 264.382812 331.238281 268.550781 327.9375 271.34375 C 325.1875 273.675781 321.863281 275.074219 318.34375 276.554688 C 315.621094 277.699219 312.808594 278.882812 310.269531 280.546875 C 305.136719 283.90625 301.480469 288.980469 298.328125 293.855469 C 299.765625 290.34375 301.167969 286.835938 302.554688 283.378906 C 304.234375 279.179688 305.914062 274.984375 307.636719 270.816406 C 309.3125 266.757812 311.042969 262.554688 311.632812 258.042969 C 312.222656 253.503906 311.59375 248.894531 310.960938 244.925781 C 310.253906 240.542969 309.398438 236.042969 308.566406 231.695312 C 305.054688 213.253906 301.417969 194.1875 308.039062 176.992188 C 309.722656 172.625 312.070312 168.429688 314.339844 164.375 C 316.074219 161.285156 317.863281 158.089844 319.375 154.804688 C 322.410156 148.183594 325.285156 138.457031 321.722656 129.707031 L 319.625 130.5625 C 322.878906 138.558594 320.167969 147.644531 317.316406 153.855469 C 315.84375 157.0625 314.074219 160.21875 312.363281 163.269531 C 310.054688 167.390625 307.664062 171.65625 305.925781 176.179688 C 299.074219 193.976562 302.769531 213.367188 306.34375 232.117188 C 307.167969 236.453125 308.023438 240.9375 308.71875 245.285156 C 309.332031 249.09375 309.9375 253.515625 309.386719 257.75 C 308.835938 261.96875 307.164062 266.027344 305.539062 269.953125 C 303.816406 274.125 302.136719 278.328125 300.453125 282.535156 C 297.554688 289.777344 294.578125 297.214844 291.386719 304.472656 C 291.230469 304.742188 291.085938 305.011719 290.9375 305.285156 C 292.132812 295.789062 293.105469 286.070312 292.421875 276.382812 C 291.515625 263.476562 287.59375 252.339844 281.09375 244.164062 C 280.667969 243.632812 280.230469 243.105469 279.789062 242.578125 C 278.148438 240.609375 276.59375 238.746094 275.769531 236.515625 C 274.800781 233.890625 274.933594 230.953125 275.058594 228.109375 L 276.945312 185.789062 L 274.683594 185.683594 L 272.792969 228.007812 C 272.667969 230.933594 272.515625 234.25 273.644531 237.304688 C 274.601562 239.894531 276.355469 242 278.050781 244.03125 C 278.480469 244.546875 278.90625 245.058594 279.320312 245.578125 C 285.539062 253.390625 289.289062 264.09375 290.164062 276.539062 C 290.878906 286.691406 289.734375 296.960938 288.441406 306.964844 C 286.117188 304.660156 282.847656 302.902344 279.636719 303.976562 L 279.117188 304.152344 L 278.953125 304.675781 C 278.480469 306.222656 279.023438 308.058594 280.34375 309.359375 C 281.5 310.503906 283.03125 311.089844 284.238281 311.46875 C 285.308594 311.8125 286.410156 312.066406 287.527344 312.253906 C 285.507812 318.046875 280.207031 323.195312 271.722656 327.585938 C 269.929688 328.511719 268.050781 329.40625 266.234375 330.269531 C 260.132812 333.175781 253.824219 336.179688 249.0625 341.175781 C 245.300781 345.125 242.796875 350.027344 240.378906 354.769531 C 239.417969 356.652344 238.421875 358.597656 237.371094 360.445312 C 234.25 365.917969 228.976562 372.667969 221.597656 373.773438 L 221.914062 375.882812 C 230.136719 374.652344 235.867188 367.386719 239.222656 361.5 C 240.300781 359.613281 241.304688 357.644531 242.277344 355.738281 C 244.625 351.136719 247.058594 346.375 250.605469 342.644531 C 255.097656 337.9375 261.222656 335.019531 267.152344 332.195312 C 268.980469 331.328125 270.875 330.421875 272.703125 329.480469 C 280.132812 325.636719 285.265625 321.179688 288.070312 316.179688 C 287.210938 318.355469 285.953125 320.15625 285.164062 321.160156 C 283.851562 322.828125 282.320312 324.398438 280.839844 325.914062 C 278.972656 327.828125 277.046875 329.808594 275.460938 332.0625 C 271.851562 337.199219 270.292969 343.332031 268.785156 349.261719 C 267.839844 352.980469 266.867188 356.824219 265.394531 360.347656 C 261.945312 368.601562 255.394531 375.65625 247.417969 379.699219 L 248.382812 381.605469 C 256.804688 377.335938 263.722656 369.886719 267.363281 361.171875 C 268.894531 357.5 269.890625 353.582031 270.851562 349.785156 C 272.378906 343.777344 273.820312 338.105469 277.203125 333.289062 C 278.691406 331.175781 280.558594 329.261719 282.363281 327.40625 C 283.886719 325.847656 285.457031 324.234375 286.839844 322.476562 C 288.792969 319.996094 290.09375 317.414062 290.714844 314.90625 C 291.507812 316.628906 292.460938 318.28125 293.40625 319.902344 C 294.449219 321.699219 295.535156 323.554688 296.335938 325.4375 C 298.851562 331.328125 298.9375 338.195312 299.011719 344.253906 C 299.035156 346.25 299.0625 348.308594 298.335938 350.101562 C 297.789062 351.441406 296.84375 352.601562 295.839844 353.824219 C 295.601562 354.117188 295.367188 354.40625 295.136719 354.695312 C 289.039062 362.386719 286.328125 372.757812 287.882812 382.445312 L 287.960938 382.925781 L 290.289062 384.382812 L 291.417969 382.574219 L 289.914062 381.632812 C 288.617188 372.664062 291.175781 363.125 296.804688 356.023438 C 297.03125 355.738281 297.261719 355.457031 297.492188 355.175781 C 298.550781 353.882812 299.644531 352.546875 300.3125 350.902344 C 301.199219 348.714844 301.167969 346.332031 301.140625 344.226562 C 301.066406 337.96875 300.976562 330.878906 298.296875 324.597656 C 297.441406 322.59375 296.328125 320.679688 295.25 318.828125 C 294.785156 318.035156 294.332031 317.25 293.898438 316.46875 C 294.195312 316.6875 294.476562 316.914062 294.796875 317.101562 C 296.808594 318.296875 299.039062 318.710938 301.535156 319.097656 C 305.15625 319.65625 308.8125 320.152344 312.40625 320.570312 L 312.648438 318.449219 C 309.082031 318.035156 305.453125 317.542969 301.863281 316.988281 C 299.585938 316.632812 297.566406 316.265625 295.886719 315.265625 C 294.742188 314.589844 293.796875 313.652344 292.914062 312.59375 C 296.867188 312.417969 300.785156 311.351562 304.214844 309.4375 C 305.339844 308.808594 306.761719 307.90625 307.773438 306.523438 C 308.917969 304.941406 309.375 302.859375 308.984375 300.941406 L 306.894531 301.367188 C 307.164062 302.707031 306.851562 304.164062 306.046875 305.265625 C 305.285156 306.316406 304.113281 307.050781 303.175781 307.574219 C 299.621094 309.558594 295.496094 310.527344 291.390625 310.476562 C 291.363281 310.375 291.332031 310.269531 291.3125 310.164062 C 292.019531 308.625 292.71875 307.074219 293.40625 305.515625 C 294.320312 303.957031 295.375 302.425781 296.410156 300.917969 C 297.15625 299.835938 297.925781 298.710938 298.621094 297.621094 C 302.023438 292.230469 305.882812 286.125 311.511719 282.441406 C 313.875 280.894531 316.59375 279.75 319.222656 278.644531 C 322.746094 277.164062 326.386719 275.632812 329.402344 273.074219 C 333.03125 269.996094 335.738281 265.511719 337.917969 258.957031 C 340.808594 250.28125 342.039062 240.871094 341.476562 231.742188 " fill-opacity="1" fill-rule="nonzero"/></g><path fill="#1082ce" d="M 226.652344 143.753906 C 226.652344 148.859375 227.515625 153.757812 229.074219 158.335938 C 223.597656 152.253906 220.265625 144.207031 220.265625 135.375 C 220.265625 116.433594 235.605469 101.074219 254.53125 101.074219 C 255.351562 101.074219 256.160156 101.117188 256.964844 101.171875 C 239.324219 107.273438 226.652344 124.027344 226.652344 143.753906 Z M 288.296875 120.046875 C 280.269531 100.273438 257.679688 90.804688 237.949219 99.003906 C 218.085938 107.257812 208.996094 130.753906 217.691406 150.441406 C 226.695312 170.832031 249.46875 186.855469 268.171875 182.078125 C 267.890625 183.777344 267.484375 185.570312 266.890625 187.246094 C 266.410156 188.597656 267.492188 189.992188 268.921875 189.863281 C 271.042969 189.675781 273.609375 189.359375 274.761719 188.890625 C 275.910156 188.421875 277.964844 186.855469 279.621094 185.511719 C 280.734375 184.601562 280.539062 182.855469 279.253906 182.21875 C 277.660156 181.433594 276.128906 180.4375 274.742188 179.414062 C 291.898438 169.660156 297.261719 142.128906 288.296875 120.046875 " fill-opacity="1" fill-rule="nonzero"/><g clip-path="url(#id3)"><path fill="#00b050" d="M 295.394531 86.5 C 295.394531 91.601562 296.253906 96.503906 297.816406 101.074219 C 292.339844 95 289.003906 86.949219 289.003906 78.117188 C 289.003906 59.175781 304.347656 43.816406 323.269531 43.816406 C 324.089844 43.816406 324.898438 43.855469 325.703125 43.914062 C 308.066406 50.015625 295.394531 66.769531 295.394531 86.5 Z M 360.199219 79.097656 C 360.199219 57.753906 342.835938 40.46875 321.472656 40.628906 C 299.972656 40.789062 282.707031 59.132812 283.359375 80.648438 C 284.03125 102.933594 299.105469 126.359375 318.226562 128.976562 C 317.328125 130.453125 316.273438 131.957031 315.09375 133.285156 C 314.144531 134.359375 314.621094 136.054688 315.996094 136.476562 C 318.03125 137.097656 320.527344 137.773438 321.765625 137.773438 C 323.011719 137.773438 325.507812 137.097656 327.542969 136.476562 C 328.917969 136.054688 329.390625 134.359375 328.441406 133.285156 C 327.261719 131.960938 326.214844 130.457031 325.316406 128.988281 C 344.878906 126.417969 360.199219 102.933594 360.199219 79.097656 " fill-opacity="1" fill-rule="nonzero"/></g><path fill="#121439" d="M 333.953125 183.71875 C 332.5625 188.628906 332.058594 193.578125 332.3125 198.40625 C 328.699219 191.0625 327.679688 182.410156 330.085938 173.914062 C 335.246094 155.683594 354.1875 145.09375 372.394531 150.257812 C 373.183594 150.480469 373.953125 150.738281 374.707031 151.011719 C 356.078125 152.070312 339.320312 164.738281 333.953125 183.71875 Z M 375.742188 145.914062 C 356.011719 137.714844 333.421875 147.183594 325.394531 166.957031 C 316.425781 189.039062 321.792969 216.566406 338.945312 226.324219 C 337.5625 227.347656 336.023438 228.34375 334.4375 229.128906 C 333.148438 229.765625 332.957031 231.515625 334.070312 232.421875 C 335.71875 233.765625 337.777344 235.332031 338.929688 235.800781 C 340.082031 236.269531 342.644531 236.585938 344.769531 236.773438 C 346.195312 236.898438 347.277344 235.511719 346.800781 234.15625 C 346.207031 232.480469 345.800781 230.691406 345.519531 228.988281 C 364.21875 233.761719 386.992188 217.742188 396 197.351562 C 404.695312 177.664062 395.601562 154.164062 375.742188 145.914062 " fill-opacity="1" fill-rule="nonzero"/><path fill="#cb8273" d="M 501.144531 633.144531 L 533.65625 657.304688 C 533.65625 657.304688 544.339844 690.296875 526.378906 689.058594 L 517.710938 673.878906 C 515.851562 670.628906 513.066406 668.148438 509.96875 666.910156 L 484.578125 656.839844 Z M 501.144531 633.144531 " fill-opacity="1" fill-rule="nonzero"/><path fill="#cb8273" d="M 615.714844 660.714844 L 645.59375 690.917969 C 645.59375 690.917969 645.4375 710.746094 627.945312 705.789062 L 599.148438 681.46875 Z M 615.714844 660.714844 " fill-opacity="1" fill-rule="nonzero"/><path fill="#5d6d97" d="M 482.410156 444.792969 C 482.410156 444.792969 458.101562 510.621094 442.464844 564.214844 C 426.828125 617.808594 428.53125 632.679688 428.53125 632.679688 C 428.53125 632.679688 436.890625 648.324219 443.238281 651.421875 C 449.742188 654.519531 496.652344 676.511719 496.652344 676.511719 C 496.652344 676.511719 517.554688 662.417969 511.363281 638.253906 L 487.363281 611.304688 L 516.625 534.941406 C 516.625 534.941406 528.855469 617.808594 542.636719 640.421875 C 549.449219 651.730469 603.480469 704.859375 603.480469 704.859375 C 603.480469 704.859375 624.074219 693.085938 625.929688 686.269531 C 627.789062 679.457031 629.183594 672.332031 629.183594 672.332031 C 629.183594 672.332031 589.238281 631.128906 588.308594 617.652344 C 587.378906 604.179688 589.238281 491.417969 577.160156 481.503906 C 543.71875 453.777344 539.074219 453.003906 539.074219 453.003906 Z M 482.410156 444.792969 " fill-opacity="1" fill-rule="nonzero"/><path fill="#cb8273" d="M 654.109375 504.117188 C 654.109375 504.117188 654.417969 517.902344 656.433594 525.183594 C 658.597656 532.460938 659.683594 541.445312 657.671875 546.558594 C 655.503906 551.667969 652.5625 561.738281 647.917969 562.203125 C 647.917969 562.203125 646.679688 562.511719 646.214844 562.203125 C 645.75 561.890625 641.105469 566.074219 635.683594 562.976562 C 631.96875 560.652344 634.910156 551.980469 633.980469 547.796875 C 633.980469 547.796875 629.800781 552.445312 627.632812 547.796875 C 627.632812 547.796875 628.71875 535.097656 628.097656 531.535156 C 627.171875 526.730469 636.304688 523.167969 637.078125 510.777344 C 637.851562 498.078125 654.109375 504.117188 654.109375 504.117188 Z M 654.109375 504.117188 " fill-opacity="1" fill-rule="nonzero"/><path fill="#f1f1f1" d="M 631.816406 501.792969 L 630.886719 514.804688 C 630.886719 514.804688 655.039062 514.648438 658.910156 509.230469 C 658.910156 509.230469 659.835938 499.316406 659.21875 497.613281 C 658.289062 494.359375 631.816406 501.792969 631.816406 501.792969 Z M 631.816406 501.792969 " fill-opacity="1" fill-rule="nonzero"/><g clip-path="url(#id4)"><path fill="#cb8273" d="M 463.054688 198.515625 C 463.054688 198.515625 460.578125 183.953125 463.675781 181.628906 C 463.675781 181.628906 479.933594 176.363281 480.550781 168.15625 C 481.171875 159.945312 481.171875 161.804688 480.550781 158.085938 C 479.933594 154.371094 477.300781 152.511719 476.0625 151.582031 C 474.976562 150.652344 468.476562 150.808594 467.238281 150.960938 C 464.296875 151.269531 464.605469 150.808594 463.210938 151.269531 C 462.28125 151.582031 462.4375 151.425781 461.507812 150.960938 C 460.578125 150.496094 457.792969 150.808594 456.554688 151.425781 C 455.625 151.890625 455.78125 152.199219 455.78125 152.199219 C 455.78125 152.199219 452.527344 151.890625 451.136719 153.59375 C 449.742188 155.296875 449.742188 161.03125 448.96875 162.113281 C 448.195312 162.886719 446.800781 164.746094 446.800781 170.324219 C 446.800781 175.898438 447.574219 175.28125 446.492188 178.6875 C 445.40625 182.09375 443.238281 198.976562 443.703125 203.316406 Z M 463.054688 198.515625 " fill-opacity="1" fill-rule="nonzero"/></g><path fill="#f1f1f1" d="M 471.105469 203.46875 L 467.703125 187.363281 L 431.9375 203.003906 L 435.652344 219.578125 Z M 471.105469 203.46875 " fill-opacity="1" fill-rule="nonzero"/><path fill="#cb8273" d="M 561.835938 288.507812 C 561.835938 288.507812 554.558594 323.203125 556.570312 331.257812 C 556.570312 331.257812 541.242188 353.40625 517.554688 344.421875 C 493.867188 335.285156 504.394531 323.511719 504.394531 323.511719 C 504.394531 323.511719 524.210938 314.839844 522.820312 306.9375 C 521.425781 299.039062 561.835938 288.507812 561.835938 288.507812 Z M 561.835938 288.507812 " fill-opacity="1" fill-rule="nonzero"/><path fill="#cb8273" d="M 569.109375 284.015625 C 567.253906 292.6875 564.929688 294.082031 559.046875 300.125 C 557.652344 301.515625 556.105469 303.222656 554.246094 305.390625 C 544.957031 316.386719 536.289062 319.484375 526.84375 316.695312 C 518.019531 314.0625 519.566406 310.964844 518.328125 303.996094 C 518.175781 303.375 518.175781 302.910156 518.019531 302.292969 C 518.019531 301.980469 517.863281 301.671875 517.863281 301.363281 C 516.625 294.238281 520.1875 284.945312 522.199219 279.675781 C 522.507812 279.058594 522.664062 278.4375 522.820312 277.820312 C 524.523438 273.015625 526.378906 267.285156 526.378906 267.285156 C 527.929688 256.132812 538.921875 259.542969 550.222656 260.78125 C 561.371094 262.175781 571.433594 273.171875 569.109375 284.015625 Z M 569.109375 284.015625 " fill-opacity="1" fill-rule="nonzero"/><g mask="url(#id5)"><g transform="matrix(1, 0, 0, 1, 517, 279)"><g clip-path="url(#id7)"><g clip-path="url(#id6)"><path fill="#121439" d="M 39.105469 18.027344 C 37.246094 19.882812 28.578125 29.332031 26.410156 28.714844 C 24.398438 28.09375 23.46875 16.941406 9.6875 16.941406 C 8.761719 16.941406 6.59375 18.335938 4.425781 19.882812 C 3.960938 20.195312 3.339844 20.039062 3.1875 19.417969 C 2.722656 17.5625 1.636719 15.703125 2.722656 10.589844 C 3.496094 7.183594 5.355469 2.382812 5.199219 0.832031 C 3.1875 6.097656 -0.375 15.238281 0.863281 22.515625 C 0.863281 22.828125 1.019531 23.136719 1.019531 23.445312 C 1.175781 24.066406 1.328125 24.53125 1.328125 24.996094 C 2.722656 32.121094 1.019531 35.21875 10 37.851562 C 19.597656 40.640625 28.113281 37.542969 37.402344 26.542969 C 39.261719 24.375 40.964844 21.125 41.117188 18.335938 C 40.652344 17.25 42.976562 16.941406 39.105469 18.027344 Z M 39.105469 18.027344 " fill-opacity="1" fill-rule="nonzero"/></g></g></g></g><path fill="#121439" d="M 522.664062 277.820312 C 523.128906 276.734375 527.929688 265.273438 533.191406 262.640625 C 533.191406 262.640625 542.945312 271.777344 550.378906 270.539062 C 550.378906 270.539062 553.785156 275.496094 558.429688 277.507812 L 556.878906 283.085938 L 558.738281 288.972656 L 555.949219 297.027344 C 555.949219 297.027344 562.296875 296.40625 564.777344 293.773438 C 573.292969 284.789062 575.769531 276.734375 571.433594 268.0625 C 569.886719 265.117188 567.5625 259.851562 564.464844 257.21875 C 559.203125 252.882812 554.09375 253.5 546.972656 250.710938 C 546.972656 250.710938 544.03125 247.304688 538.144531 251.023438 C 535.824219 252.570312 528.855469 254.121094 528.082031 257.527344 C 527.773438 258.613281 526.226562 259.695312 525.605469 260.625 C 524.523438 262.175781 525.605469 265.738281 524.210938 266.203125 C 522.507812 267.132812 522.664062 277.820312 522.664062 277.820312 Z M 522.664062 277.820312 " fill-opacity="1" fill-rule="nonzero"/><path fill="#121439" d="M 532.574219 280.296875 C 532.261719 280.296875 531.953125 280.140625 531.644531 279.988281 C 529.785156 278.75 527.617188 277.972656 525.914062 277.507812 C 525.140625 277.199219 524.675781 276.425781 524.832031 275.652344 C 525.140625 274.875 525.914062 274.410156 526.6875 274.566406 C 528.703125 275.1875 531.179688 275.960938 533.347656 277.355469 C 534.121094 277.820312 534.277344 278.75 533.8125 279.523438 C 533.65625 280.140625 533.191406 280.296875 532.574219 280.296875 Z M 532.574219 280.296875 " fill-opacity="1" fill-rule="nonzero"/><path fill="#121439" d="M 551.304688 286.492188 C 550.996094 286.492188 550.53125 286.339844 550.222656 286.027344 C 547.589844 283.703125 545.113281 283.085938 541.398438 282.464844 C 540.625 282.3125 540.003906 281.535156 540.160156 280.605469 C 540.3125 279.832031 541.085938 279.214844 542.015625 279.367188 C 546.042969 279.988281 549.136719 280.761719 552.390625 283.550781 C 553.007812 284.167969 553.007812 285.097656 552.542969 285.71875 C 552.234375 286.339844 551.769531 286.492188 551.304688 286.492188 Z M 551.304688 286.492188 " fill-opacity="1" fill-rule="nonzero"/><path fill="#121439" d="M 525.140625 284.480469 C 525.140625 283.085938 526.070312 280.761719 527.308594 280.296875 C 527.929688 280.140625 528.390625 280.296875 528.546875 281.070312 C 529.011719 283.394531 527.617188 285.253906 526.535156 285.71875 C 525.914062 286.183594 525.296875 285.71875 525.140625 285.253906 C 525.140625 285.097656 525.140625 284.789062 525.140625 284.480469 Z M 525.140625 284.480469 " fill-opacity="1" fill-rule="nonzero"/><path fill="#121439" d="M 541.242188 289.746094 C 541.242188 288.351562 542.328125 286.027344 543.410156 285.71875 C 544.03125 285.5625 544.492188 285.71875 544.648438 286.492188 C 545.113281 288.972656 543.566406 290.519531 542.480469 291.140625 C 541.863281 291.449219 541.242188 290.984375 541.085938 290.519531 C 541.242188 290.363281 541.242188 290.054688 541.242188 289.746094 Z M 541.242188 289.746094 " fill-opacity="1" fill-rule="nonzero"/><path fill="#121439" d="M 530.40625 296.871094 C 530.25 296.871094 529.941406 296.714844 529.785156 296.5625 C 528.546875 295.011719 527.929688 293.464844 527.929688 292.070312 C 527.929688 288.972656 530.09375 286.027344 531.953125 283.550781 C 532.417969 282.929688 533.035156 282.15625 533.5 281.535156 C 533.8125 281.226562 534.277344 281.070312 534.585938 281.382812 C 534.894531 281.691406 535.050781 282.15625 534.738281 282.464844 C 534.277344 283.085938 533.8125 283.859375 533.191406 284.480469 C 531.488281 286.800781 529.476562 289.4375 529.476562 292.070312 C 529.476562 293.152344 529.941406 294.390625 531.023438 295.632812 C 531.332031 295.941406 531.179688 296.40625 530.871094 296.714844 C 530.871094 296.871094 530.558594 296.871094 530.40625 296.871094 Z M 530.40625 296.871094 " fill-opacity="1" fill-rule="nonzero"/><path fill="#f1f1f1" d="M 525.296875 299.195312 C 526.6875 299.96875 527 300.898438 534.277344 301.828125 L 534.277344 301.980469 C 534.277344 304.152344 531.644531 305.390625 529.476562 305.390625 C 526.535156 305.390625 525.140625 302.757812 525.140625 300.125 C 525.296875 299.8125 525.296875 299.503906 525.296875 299.195312 Z M 525.296875 299.195312 " fill-opacity="1" fill-rule="nonzero"/><path fill="#cb8273" d="M 560.59375 292.378906 C 561.835938 291.757812 563.382812 292.535156 565.859375 292.84375 C 567.871094 293 568.335938 294.082031 568.335938 295.785156 C 568.335938 299.195312 560.441406 308.332031 556.570312 304.460938 C 555.332031 303.066406 558.738281 293.152344 560.59375 292.378906 Z M 560.59375 292.378906 " fill-opacity="1" fill-rule="nonzero"/><path fill="#f1f1f1" d="M 565.394531 329.863281 L 562.609375 314.839844 L 540.933594 329.863281 L 526.535156 349.222656 L 526.535156 330.484375 L 511.515625 312.050781 L 502.691406 322.582031 L 507.957031 350.152344 C 507.957031 350.152344 494.640625 395.382812 482.5625 409.789062 C 470.488281 424.191406 473.738281 470.195312 473.738281 470.195312 C 473.738281 470.195312 501.609375 478.714844 502.535156 478.40625 C 503.464844 478.09375 506.71875 455.015625 506.71875 455.015625 L 508.109375 480.882812 L 538.765625 484.292969 Z M 565.394531 329.863281 " fill-opacity="1" fill-rule="nonzero"/><path fill="#121439" d="M 512.445312 347.984375 C 512.136719 347.984375 511.980469 347.984375 511.671875 347.832031 C 510.898438 347.367188 510.585938 346.4375 511.050781 345.660156 C 513.992188 340.242188 518.175781 335.285156 524.058594 330.484375 C 524.675781 329.863281 525.761719 330.019531 526.226562 330.636719 C 526.84375 331.257812 526.6875 332.339844 526.070312 332.804688 C 520.496094 337.296875 516.472656 342.097656 513.683594 347.054688 C 513.527344 347.832031 513.066406 347.984375 512.445312 347.984375 Z M 512.445312 347.984375 " fill-opacity="1" fill-rule="nonzero"/><path fill="#121439" d="M 545.421875 350.152344 C 544.648438 350.152344 544.03125 349.6875 543.875 348.914062 C 542.945312 343.183594 541.242188 338.226562 539.847656 333.890625 C 539.539062 333.117188 540.003906 332.1875 540.777344 331.875 C 541.550781 331.566406 542.480469 332.03125 542.789062 332.804688 C 544.183594 337.144531 545.886719 342.253906 546.816406 348.140625 C 546.972656 348.914062 546.351562 349.84375 545.578125 350 C 545.734375 350.152344 545.578125 350.152344 545.421875 350.152344 Z M 545.421875 350.152344 " fill-opacity="1" fill-rule="nonzero"/><path fill="#3ab54a" d="M 569.730469 323.355469 C 569.730469 323.355469 547.125 336.832031 529.011719 372.457031 C 510.898438 408.082031 522.972656 497.148438 522.972656 497.148438 C 522.972656 497.148438 606.578125 508.917969 612.617188 497.148438 C 612.617188 497.148438 583.972656 464 583.972656 443.246094 C 583.972656 443.246094 592.953125 419.546875 594.191406 403.128906 C 594.191406 403.128906 626.394531 436.585938 629.648438 454.550781 C 632.898438 472.519531 629.648438 505.203125 629.648438 505.203125 C 629.648438 505.203125 659.527344 508.917969 662.78125 497.457031 C 662.78125 497.457031 668.042969 459.507812 662.78125 432.558594 C 662.78125 432.558594 644.820312 377.414062 610.449219 351.238281 C 576.078125 325.0625 569.730469 323.355469 569.730469 323.355469 Z M 569.730469 323.355469 " fill-opacity="1" fill-rule="nonzero"/><path fill="#3ab54a" d="M 469.867188 197.585938 L 431.78125 216.171875 C 431.78125 216.171875 441.84375 268.679688 448.039062 287.113281 C 454.230469 305.699219 460.269531 346.125 455.933594 363.785156 C 451.597656 381.597656 387.96875 479.644531 387.96875 479.644531 L 428.066406 499.933594 L 444.324219 479.023438 L 468.164062 484.292969 L 479.15625 429.460938 C 479.15625 429.460938 521.578125 369.980469 508.574219 315.457031 C 508.574219 315.457031 506.40625 316.386719 500.058594 308.644531 C 493.710938 300.898438 490.613281 287.113281 482.5625 254.121094 C 476.371094 228.097656 469.867188 197.585938 469.867188 197.585938 Z M 469.867188 197.585938 " fill-opacity="1" fill-rule="nonzero"/><path fill="#121439" d="M 445.40625 476.082031 C 444.941406 476.082031 444.632812 475.925781 444.324219 475.617188 C 443.703125 474.996094 443.703125 474.066406 444.324219 473.449219 C 462.902344 455.945312 485.507812 401.734375 495.105469 370.289062 L 494.175781 355.421875 C 494.175781 354.957031 494.332031 354.492188 494.640625 354.179688 L 501.917969 347.832031 C 500.523438 345.660156 496.652344 340.859375 496.035156 340.085938 C 495.722656 339.777344 495.570312 339.3125 495.570312 339 L 495.570312 338.847656 C 495.570312 338.535156 495.722656 338.226562 495.878906 337.917969 C 496.5 336.988281 498.511719 330.171875 499.75 325.835938 C 500.832031 322.429688 501.761719 319.019531 502.382812 317.007812 C 502.691406 316.230469 503.464844 315.769531 504.394531 316.078125 C 505.167969 316.386719 505.632812 317.160156 505.324219 318.089844 C 504.703125 320.105469 503.621094 323.359375 502.691406 326.765625 C 500.832031 333.117188 499.75 336.988281 498.820312 338.847656 C 499.441406 339.621094 500.214844 340.707031 501.453125 342.410156 C 504.859375 346.902344 505.167969 347.675781 505.167969 347.984375 C 505.324219 348.605469 505.167969 349.222656 504.703125 349.6875 L 497.117188 356.351562 L 498.046875 370.753906 C 498.046875 370.910156 498.046875 371.066406 498.046875 371.21875 C 488.292969 403.902344 465.6875 457.960938 446.335938 475.925781 C 446.179688 476.082031 445.871094 476.082031 445.40625 476.082031 Z M 445.40625 476.082031 " fill-opacity="1" fill-rule="nonzero"/><path fill="#121439" d="M 522.355469 405.914062 C 522.199219 405.914062 522.042969 405.914062 521.890625 405.761719 C 521.117188 405.449219 520.652344 404.519531 520.960938 403.746094 C 527.464844 385.316406 538.457031 376.019531 543.101562 371.992188 C 543.71875 371.527344 544.339844 370.910156 544.648438 370.601562 C 544.03125 368.429688 542.328125 362.234375 542.171875 360.375 C 542.171875 359.601562 542.636719 358.984375 543.253906 358.828125 C 548.363281 357.589844 556.726562 354.335938 558.894531 353.5625 C 558.894531 353.25 559.046875 352.941406 559.046875 352.632812 C 559.511719 349.6875 560.59375 342.71875 568.648438 328.3125 C 569.109375 327.539062 570.039062 327.382812 570.8125 327.695312 C 571.589844 328.160156 571.742188 329.089844 571.433594 329.863281 C 563.539062 343.804688 562.609375 350.308594 562.144531 353.097656 C 561.988281 354.335938 561.835938 355.265625 561.058594 356.039062 C 560.90625 356.195312 560.75 356.195312 560.59375 356.347656 C 560.132812 356.503906 551.460938 359.910156 545.421875 361.617188 C 545.886719 363.9375 546.972656 367.964844 547.746094 370.753906 C 547.746094 370.910156 547.746094 371.0625 547.746094 371.21875 C 547.746094 372.304688 546.972656 372.921875 544.957031 374.625 C 540.46875 378.5 529.941406 387.328125 523.746094 404.984375 C 523.59375 405.605469 523.128906 405.914062 522.355469 405.914062 Z M 559.046875 353.871094 Z M 559.046875 353.871094 " fill-opacity="1" fill-rule="nonzero"/><path fill="#121439" d="M 506.5625 456.566406 C 505.632812 456.566406 505.015625 455.789062 505.015625 455.015625 C 505.941406 426.050781 509.503906 373.699219 523.746094 349.222656 C 524.210938 348.449219 525.140625 348.296875 525.914062 348.605469 C 526.6875 349.070312 526.84375 350 526.535156 350.773438 C 512.601562 374.625 509.039062 426.359375 508.109375 455.015625 C 508.109375 455.945312 507.492188 456.566406 506.5625 456.566406 Z M 506.5625 456.566406 " fill-opacity="1" fill-rule="nonzero"/><path fill="#121439" d="M 474.050781 168.308594 C 473.429688 168.15625 473.273438 167.84375 473.273438 167.378906 C 473.429688 166.449219 473.585938 165.675781 473.585938 165.058594 C 473.585938 163.042969 472.808594 162.113281 471.882812 161.183594 C 471.105469 160.410156 470.332031 159.480469 470.332031 157.933594 C 470.332031 155.296875 471.570312 153.75 473.738281 153.75 L 474.667969 153.75 C 476.679688 153.90625 477.457031 154.988281 478.230469 155.917969 C 478.695312 156.539062 479.3125 157.3125 480.242188 157.777344 C 480.550781 157.933594 480.707031 158.398438 480.550781 158.859375 C 480.398438 159.171875 479.933594 159.324219 479.46875 159.171875 C 478.230469 158.550781 477.457031 157.621094 476.835938 156.847656 C 476.0625 155.917969 475.597656 155.296875 474.359375 155.296875 L 473.585938 155.296875 C 473.121094 155.296875 471.726562 155.296875 471.726562 157.933594 C 471.726562 159.015625 472.191406 159.480469 472.964844 160.253906 C 473.894531 161.183594 474.976562 162.421875 474.976562 165.058594 C 474.976562 165.984375 474.824219 166.914062 474.667969 167.691406 C 474.824219 168.15625 474.511719 168.308594 474.050781 168.308594 Z M 474.050781 168.308594 " fill-opacity="1" fill-rule="nonzero"/><path fill="#121439" d="M 467.855469 168 C 466.773438 168 466 167.691406 465.378906 167.226562 C 464.449219 166.296875 464.605469 164.902344 464.605469 164.4375 C 465.222656 160.410156 466.460938 155.609375 467.082031 153.128906 L 467.238281 152.199219 C 467.390625 151.734375 467.703125 151.582031 468.164062 151.582031 C 468.628906 151.734375 468.785156 152.046875 468.785156 152.511719 L 468.476562 153.441406 C 467.855469 155.761719 466.617188 160.71875 466.152344 164.59375 C 466 165.675781 466.308594 165.984375 466.308594 165.984375 C 466.617188 166.296875 467.703125 166.605469 470.796875 165.832031 C 471.261719 165.675781 471.570312 165.984375 471.726562 166.449219 C 471.882812 166.914062 471.570312 167.226562 471.105469 167.378906 C 469.867188 167.84375 468.628906 168 467.855469 168 Z M 467.855469 168 " fill-opacity="1" fill-rule="nonzero"/><path fill="#121439" d="M 462.902344 167.84375 C 461.816406 167.84375 460.734375 167.691406 460.113281 167.070312 C 459.496094 166.605469 459.1875 165.675781 459.1875 164.746094 C 459.1875 162.269531 460.578125 155.917969 461.664062 152.511719 C 461.816406 152.046875 462.28125 151.890625 462.59375 152.046875 C 463.054688 152.199219 463.210938 152.664062 463.054688 152.976562 C 461.972656 156.691406 460.578125 162.734375 460.578125 164.902344 C 460.578125 165.675781 460.890625 165.984375 461.042969 166.140625 C 461.816406 166.761719 463.675781 166.605469 465.070312 166.296875 C 465.535156 166.296875 465.84375 166.449219 466 166.914062 C 466 167.378906 465.84375 167.691406 465.378906 167.84375 C 464.449219 167.691406 463.519531 167.84375 462.902344 167.84375 Z M 462.902344 167.84375 " fill-opacity="1" fill-rule="nonzero"/><path fill="#121439" d="M 458.722656 167.070312 C 458.722656 167.070312 458.566406 167.070312 458.566406 167.070312 C 454.542969 166.140625 453.613281 164.28125 453.613281 162.734375 C 453.613281 162.734375 453.765625 156.847656 455.003906 152.664062 C 455.160156 152.199219 455.625 152.046875 455.933594 152.199219 C 456.398438 152.355469 456.554688 152.820312 456.398438 153.128906 C 455.160156 157.003906 455.003906 162.578125 455.003906 162.578125 C 455.003906 163.972656 456.246094 164.902344 458.722656 165.367188 C 459.1875 165.523438 459.339844 165.832031 459.339844 166.296875 C 459.496094 166.914062 459.1875 167.070312 458.722656 167.070312 Z M 458.722656 167.070312 " fill-opacity="1" fill-rule="nonzero"/><path fill="#121439" d="M 452.527344 164.4375 C 452.375 164.4375 452.375 164.4375 452.21875 164.4375 C 450.359375 163.664062 450.207031 163.199219 450.207031 161.339844 C 450.207031 161.183594 450.207031 160.875 450.207031 160.566406 C 450.207031 159.789062 450.207031 159.171875 450.359375 158.398438 C 450.359375 157.777344 450.359375 157.15625 450.359375 156.539062 C 450.359375 156.074219 450.671875 155.761719 451.136719 155.761719 C 451.597656 155.761719 451.910156 156.074219 451.910156 156.539062 C 451.910156 157.15625 451.910156 157.777344 451.910156 158.550781 C 451.910156 159.171875 451.753906 159.945312 451.753906 160.566406 C 451.753906 160.875 451.753906 161.183594 451.753906 161.339844 C 451.753906 162.421875 451.753906 162.421875 452.839844 162.886719 C 453.300781 163.042969 453.457031 163.507812 453.300781 163.972656 C 453.148438 164.28125 452.839844 164.4375 452.527344 164.4375 Z M 452.527344 164.4375 " fill-opacity="1" fill-rule="nonzero"/><path fill="#121439" d="M 634.757812 547.175781 C 634.757812 547.175781 634.601562 547.175781 634.601562 547.175781 C 634.136719 547.023438 633.980469 546.714844 633.980469 546.25 C 634.445312 544.234375 634.601562 542.375 634.601562 540.050781 C 634.601562 537.730469 634.445312 535.5625 634.136719 533.082031 C 634.136719 532.617188 634.445312 532.308594 634.757812 532.152344 C 635.222656 532.152344 635.53125 532.460938 635.683594 532.773438 C 635.996094 535.25 636.148438 537.730469 636.148438 540.050781 C 636.148438 542.53125 635.996094 544.542969 635.53125 546.558594 C 635.53125 547.023438 635.222656 547.175781 634.757812 547.175781 Z M 634.757812 547.175781 " fill-opacity="1" fill-rule="nonzero"/><path fill="#121439" d="M 637.699219 562.976562 C 637.542969 562.976562 637.542969 562.976562 637.386719 562.976562 C 636.925781 562.820312 636.769531 562.355469 636.925781 562.046875 C 639.246094 556.007812 640.175781 551.824219 640.175781 545.9375 C 640.175781 545.472656 640.484375 545.164062 640.949219 545.164062 C 641.414062 545.164062 641.722656 545.472656 641.722656 545.9375 C 641.722656 552.132812 640.792969 556.472656 638.472656 562.667969 C 638.316406 562.820312 638.007812 562.976562 637.699219 562.976562 Z M 637.699219 562.976562 " fill-opacity="1" fill-rule="nonzero"/><path fill="#121439" d="M 642.1875 563.285156 C 642.03125 563.285156 642.03125 563.285156 641.878906 563.285156 C 641.414062 563.132812 641.257812 562.667969 641.414062 562.203125 C 643.582031 557.089844 644.511719 551.359375 645.4375 545.9375 L 646.988281 546.25 C 646.058594 551.824219 645.128906 557.402344 642.960938 562.820312 C 642.808594 563.132812 642.496094 563.285156 642.1875 563.285156 Z M 642.1875 563.285156 " fill-opacity="1" fill-rule="nonzero"/><path fill="#121439" d="M 646.988281 561.738281 C 646.832031 561.738281 646.832031 561.738281 646.679688 561.738281 C 646.214844 561.582031 646.058594 561.117188 646.214844 560.652344 L 646.832031 559.414062 C 648.535156 555.695312 650.703125 550.738281 650.703125 547.023438 C 650.703125 546.558594 651.011719 546.25 651.476562 546.25 C 651.941406 546.25 652.25 546.558594 652.25 547.023438 C 652.25 551.050781 649.929688 556.160156 648.226562 560.035156 L 647.605469 561.273438 C 647.605469 561.582031 647.296875 561.738281 646.988281 561.738281 Z M 646.988281 561.738281 " fill-opacity="1" fill-rule="nonzero"/><path fill="#121439" d="M 515.230469 528.4375 C 514.769531 528.4375 514.304688 528.28125 513.992188 527.816406 C 508.265625 520.226562 507.492188 512.171875 507.492188 506.132812 C 507.492188 502.878906 507.800781 499.625 507.957031 496.0625 C 508.265625 493.121094 508.421875 490.023438 508.574219 486.925781 C 508.574219 485.996094 509.347656 485.375 510.121094 485.375 C 511.050781 485.375 511.671875 486.148438 511.671875 486.925781 C 511.671875 490.023438 511.363281 493.121094 511.050781 496.21875 C 510.742188 499.625 510.585938 502.878906 510.585938 505.976562 C 510.585938 514.339844 512.445312 520.382812 516.472656 525.800781 C 516.933594 526.421875 516.78125 527.507812 516.160156 527.972656 C 516.007812 528.4375 515.542969 528.4375 515.230469 528.4375 Z M 515.230469 528.4375 " fill-opacity="1" fill-rule="nonzero"/><path fill="#121439" d="M 468.628906 632.058594 C 468.011719 632.058594 467.546875 631.75 467.238281 631.128906 C 466.925781 630.355469 467.238281 629.425781 468.011719 629.117188 C 475.597656 625.554688 481.480469 619.511719 485.351562 610.839844 C 485.660156 610.0625 486.589844 609.753906 487.363281 610.0625 C 488.136719 610.375 488.449219 611.304688 488.136719 612.078125 C 483.957031 621.371094 477.457031 628.03125 469.25 631.902344 C 469.09375 632.058594 468.941406 632.058594 468.628906 632.058594 Z M 468.628906 632.058594 " fill-opacity="1" fill-rule="nonzero"/><path fill="#121439" d="M 472.964844 321.964844 C 472.5 321.964844 472.191406 321.808594 471.882812 321.5 C 471.261719 320.878906 471.417969 319.949219 472.035156 319.332031 C 479.46875 312.667969 487.210938 309.726562 498.667969 309.105469 C 499.441406 309.105469 500.214844 309.726562 500.214844 310.65625 C 500.214844 311.585938 499.59375 312.207031 498.667969 312.207031 C 487.828125 312.667969 480.859375 315.304688 473.894531 321.5 C 473.738281 321.964844 473.429688 321.964844 472.964844 321.964844 Z M 472.964844 321.964844 " fill-opacity="1" fill-rule="nonzero"/><path fill="#121439" d="M 587.84375 400.03125 C 587.226562 400.03125 586.605469 399.71875 586.453125 399.101562 C 582.269531 388.257812 581.804688 377.570312 581.1875 366.109375 C 581.03125 363.9375 581.03125 361.617188 580.878906 359.449219 C 580.878906 358.519531 581.496094 357.898438 582.269531 357.742188 C 583.046875 357.742188 583.820312 358.363281 583.972656 359.136719 C 584.128906 361.460938 584.128906 363.628906 584.285156 365.953125 C 584.75 377.105469 585.210938 387.636719 589.238281 397.859375 C 589.546875 398.636719 589.082031 399.566406 588.308594 399.875 C 588.308594 400.03125 588.15625 400.03125 587.84375 400.03125 Z M 587.84375 400.03125 " fill-opacity="1" fill-rule="nonzero"/><path fill="#3ab54a" d="M 546.660156 737.386719 C 550.6875 738.933594 555.488281 710.28125 556.105469 705.789062 C 557.808594 691.074219 555.796875 685.1875 552.234375 677.597656 C 553.628906 676.046875 555.796875 671.246094 555.796875 671.246094 C 556.105469 668.921875 554.710938 658.546875 554.710938 657.152344 C 553.320312 656.378906 551.617188 655.292969 549.914062 654.671875 C 548.363281 654.054688 546.972656 653.742188 545.734375 654.207031 C 544.183594 652.503906 542.636719 651.421875 540.933594 650.800781 C 535.824219 648.789062 530.40625 650.800781 525.296875 648.789062 C 524.984375 648.632812 524.675781 648.476562 524.210938 648.324219 C 523.746094 648.167969 523.4375 648.167969 523.128906 648.632812 C 521.734375 650.800781 525.140625 648.789062 523.28125 662.574219 C 522.507812 667.992188 519.257812 672.019531 519.257812 675.738281 L 519.257812 675.894531 C 519.257812 676.824219 519.566406 677.753906 520.03125 678.683594 C 522.042969 682.246094 524.210938 686.117188 526.535156 689.214844 C 547.28125 716.785156 531.023438 731.34375 546.660156 737.386719 Z M 546.660156 737.386719 " fill-opacity="1" fill-rule="nonzero"/><path fill="#121439" d="M 542.480469 696.960938 C 542.328125 696.960938 542.171875 696.960938 541.863281 696.804688 C 539.847656 695.71875 538.144531 694.015625 536.441406 692.3125 C 535.667969 691.539062 534.738281 690.609375 533.964844 689.832031 C 533.035156 689.058594 531.796875 688.128906 530.40625 687.199219 C 526.226562 684.257812 521.117188 680.539062 521.117188 675.894531 L 521.117188 675.429688 C 521.269531 674.5 521.425781 673.570312 521.578125 672.796875 C 521.734375 672.175781 521.890625 671.402344 521.890625 671.09375 C 521.890625 670.472656 522.355469 670.007812 522.972656 670.007812 C 523.59375 670.007812 524.058594 670.472656 524.058594 671.09375 C 524.058594 671.710938 523.902344 672.484375 523.746094 673.261719 C 523.59375 674.035156 523.4375 674.808594 523.28125 675.429688 L 523.28125 675.738281 C 523.28125 679.300781 527.929688 682.554688 531.488281 685.1875 C 532.882812 686.117188 534.121094 687.046875 535.203125 687.976562 C 536.132812 688.75 536.90625 689.679688 537.835938 690.453125 C 539.539062 692.15625 541.085938 693.707031 542.789062 694.636719 C 543.410156 694.945312 543.566406 695.566406 543.253906 696.183594 C 543.253906 696.648438 542.945312 696.960938 542.480469 696.960938 Z M 542.480469 696.960938 " fill-opacity="1" fill-rule="nonzero"/><path fill="#121439" d="M 542.328125 696.960938 C 542.171875 696.960938 542.015625 696.960938 541.707031 696.804688 C 541.085938 696.496094 540.933594 695.875 541.242188 695.253906 C 542.328125 693.242188 543.101562 690.761719 543.875 688.285156 C 544.804688 685.34375 545.734375 682.246094 547.28125 679.921875 C 547.589844 679.457031 548.363281 679.300781 548.828125 679.609375 C 549.292969 679.921875 549.449219 680.695312 549.140625 681.160156 C 547.589844 683.328125 546.816406 685.960938 546.042969 688.90625 C 545.269531 691.382812 544.492188 694.015625 543.253906 696.339844 C 543.101562 696.648438 542.789062 696.960938 542.328125 696.960938 Z M 542.328125 696.960938 " fill-opacity="1" fill-rule="nonzero"/><path fill="#121439" d="M 546.042969 737.078125 C 545.734375 737.078125 545.421875 736.921875 545.113281 736.613281 C 544.648438 736.148438 544.804688 735.371094 545.269531 735.0625 C 548.363281 732.429688 549.140625 726.078125 551.152344 709.039062 L 551.460938 706.5625 C 552.699219 695.71875 551.617188 690.917969 550.066406 685.03125 C 549.449219 682.554688 548.828125 679.765625 548.210938 676.203125 C 547.746094 673.414062 547.589844 670.78125 547.589844 668.304688 C 547.4375 664.121094 547.28125 660.25 545.421875 655.757812 C 545.113281 655.136719 545.421875 654.519531 546.042969 654.207031 C 546.660156 653.898438 547.28125 654.207031 547.589844 654.828125 C 549.601562 659.785156 549.757812 663.8125 549.914062 668.148438 C 550.066406 670.628906 550.066406 673.105469 550.53125 675.738281 C 551.152344 679.144531 551.769531 681.78125 552.390625 684.257812 C 553.9375 690.144531 555.175781 695.410156 553.785156 706.71875 L 553.472656 709.195312 C 551.304688 727.316406 550.6875 733.515625 546.816406 736.765625 C 546.660156 736.921875 546.351562 737.078125 546.042969 737.078125 Z M 546.042969 737.078125 " fill-opacity="1" fill-rule="nonzero"/><path fill="#121439" d="M 533.65625 699.902344 C 533.191406 699.902344 532.726562 699.59375 532.574219 699.128906 C 531.644531 696.183594 528.703125 691.847656 525.914062 687.511719 C 522.199219 682.089844 519.101562 677.289062 519.414062 674.5 C 519.414062 673.878906 520.03125 673.414062 520.652344 673.414062 C 521.269531 673.414062 521.734375 674.035156 521.734375 674.65625 C 521.578125 676.667969 524.984375 681.78125 527.929688 686.117188 C 530.871094 690.453125 533.964844 694.945312 534.894531 698.351562 C 535.050781 698.972656 534.738281 699.59375 534.121094 699.746094 C 533.964844 699.902344 533.8125 699.902344 533.65625 699.902344 Z M 533.65625 699.902344 " fill-opacity="1" fill-rule="nonzero"/><path fill="#121439" d="M 554.558594 672.019531 C 554.402344 672.019531 554.246094 672.019531 554.09375 671.867188 C 553.007812 671.402344 551.925781 670.9375 550.996094 670.628906 C 550.066406 670.316406 549.292969 670.007812 548.675781 669.851562 C 548.054688 669.699219 547.589844 669.078125 547.746094 668.457031 C 547.898438 667.839844 548.519531 667.375 549.140625 667.53125 C 550.222656 667.683594 551.304688 668.148438 551.769531 668.304688 C 552.855469 668.613281 553.9375 669.078125 555.023438 669.542969 C 555.640625 669.851562 555.796875 670.472656 555.640625 671.09375 C 555.488281 671.710938 555.023438 672.019531 554.558594 672.019531 Z M 554.558594 672.019531 " fill-opacity="1" fill-rule="nonzero"/><path fill="#121439" d="M 522.042969 683.636719 C 521.890625 683.636719 521.734375 683.636719 521.578125 683.636719 C 520.960938 683.484375 520.652344 682.707031 520.960938 682.246094 L 520.960938 682.089844 C 522.042969 679.300781 522.664062 677.441406 525.449219 676.046875 C 526.070312 675.738281 526.6875 676.046875 527 676.511719 C 527.308594 677.132812 527 677.753906 526.535156 678.0625 C 524.523438 679.144531 524.210938 680.074219 523.128906 682.863281 L 523.128906 683.019531 C 522.972656 683.328125 522.507812 683.636719 522.042969 683.636719 Z M 522.042969 683.636719 " fill-opacity="1" fill-rule="nonzero"/><path fill="#121439" d="M 524.832031 687.820312 C 524.675781 687.820312 524.675781 687.820312 524.523438 687.820312 C 523.902344 687.664062 523.59375 687.046875 523.746094 686.425781 C 524.675781 683.171875 527.152344 681.316406 529.167969 680.074219 C 529.632812 679.765625 530.40625 679.921875 530.714844 680.386719 C 531.023438 680.851562 530.871094 681.625 530.40625 681.933594 C 528.703125 683.019531 526.6875 684.566406 525.914062 687.046875 C 525.914062 687.511719 525.449219 687.820312 524.832031 687.820312 Z M 524.832031 687.820312 " fill-opacity="1" fill-rule="nonzero"/><path fill="#121439" d="M 528.082031 692.621094 C 527.929688 692.621094 527.773438 692.621094 527.617188 692.621094 C 527 692.46875 526.6875 691.691406 527 691.226562 C 527.929688 688.59375 530.25 687.199219 532.109375 685.960938 C 532.574219 685.652344 533.035156 685.34375 533.5 685.03125 C 533.964844 684.722656 534.738281 684.722656 535.050781 685.34375 C 535.359375 685.808594 535.359375 686.582031 534.738281 686.890625 C 534.277344 687.199219 533.65625 687.511719 533.191406 687.976562 C 531.332031 689.058594 529.628906 690.144531 529.011719 692.15625 C 529.011719 692.3125 528.546875 692.621094 528.082031 692.621094 Z M 528.082031 692.621094 " fill-opacity="1" fill-rule="nonzero"/><path fill="#3ab54a" d="M 634.136719 767.125 C 637.699219 769.292969 650.546875 744.511719 652.40625 740.484375 C 658.289062 727.472656 658.136719 721.742188 656.742188 714.152344 C 658.597656 713.066406 662.003906 709.195312 662.003906 709.195312 C 662.933594 707.183594 664.636719 697.421875 664.945312 696.183594 C 663.863281 695.253906 662.46875 693.859375 660.921875 692.933594 C 659.683594 692.15625 658.289062 691.539062 657.050781 691.539062 C 655.96875 689.679688 654.730469 688.441406 653.335938 687.511719 C 648.84375 684.722656 642.960938 685.34375 638.472656 682.398438 C 638.164062 682.246094 637.851562 681.933594 637.542969 681.78125 C 637.234375 681.46875 636.769531 681.46875 636.460938 681.78125 C 636.148438 684.722656 634.445312 689.679688 632.277344 694.324219 C 630.113281 699.128906 625.929688 702.226562 624.847656 705.476562 L 624.847656 705.632812 C 624.539062 706.40625 624.539062 707.335938 624.847656 708.265625 C 625.777344 711.984375 626.859375 715.855469 628.253906 719.261719 C 640.640625 748.691406 620.511719 758.453125 634.136719 767.125 Z M 634.136719 767.125 " fill-opacity="1" fill-rule="nonzero"/><path fill="#121439" d="M 641.878906 729.796875 C 641.570312 729.796875 641.414062 729.640625 641.105469 729.488281 C 639.402344 727.9375 638.164062 726.078125 636.925781 724.066406 C 636.460938 723.136719 635.839844 722.363281 635.222656 721.433594 C 634.445312 720.347656 633.363281 719.261719 632.277344 718.023438 C 629.027344 714.460938 625.3125 710.28125 626.707031 706.253906 C 626.707031 706.097656 626.859375 705.941406 626.859375 705.789062 C 626.859375 705.789062 626.859375 705.632812 626.859375 705.632812 C 627.171875 704.859375 627.632812 703.929688 628.097656 703.308594 C 628.410156 702.84375 628.71875 702.226562 628.871094 702.070312 C 629.183594 701.449219 629.800781 701.140625 630.421875 701.449219 C 631.039062 701.761719 631.351562 702.378906 631.039062 703 C 630.886719 703.464844 630.574219 703.929688 630.113281 704.546875 C 629.800781 705.167969 629.335938 705.941406 629.027344 706.5625 C 629.027344 706.71875 628.871094 706.871094 628.871094 706.871094 C 628.871094 706.871094 628.871094 707.027344 628.871094 707.027344 C 627.789062 709.816406 631.195312 713.53125 633.980469 716.628906 C 635.222656 717.871094 636.304688 719.109375 637.078125 720.347656 C 637.699219 721.277344 638.316406 722.050781 638.78125 722.980469 C 639.867188 724.839844 640.949219 726.542969 642.496094 727.78125 C 642.960938 728.246094 642.960938 728.867188 642.652344 729.332031 C 642.496094 729.640625 642.1875 729.796875 641.878906 729.796875 Z M 629.183594 706.40625 Z M 627.015625 705.941406 Z M 627.015625 705.941406 " fill-opacity="1" fill-rule="nonzero"/><path fill="#121439" d="M 641.878906 729.796875 C 641.570312 729.796875 641.257812 729.640625 641.105469 729.488281 C 640.640625 729.023438 640.640625 728.246094 641.105469 727.9375 C 642.808594 726.386719 644.199219 724.21875 645.59375 722.207031 C 647.296875 719.726562 649 717.25 651.324219 715.390625 C 651.785156 715.082031 652.5625 715.082031 652.871094 715.546875 C 653.179688 716.011719 653.179688 716.785156 652.714844 717.09375 C 650.703125 718.644531 649.15625 720.96875 647.453125 723.289062 C 646.058594 725.460938 644.511719 727.628906 642.652344 729.332031 C 642.496094 729.640625 642.1875 729.796875 641.878906 729.796875 Z M 641.878906 729.796875 " fill-opacity="1" fill-rule="nonzero"/><path fill="#121439" d="M 634.136719 766.96875 C 633.671875 766.96875 633.363281 766.660156 633.054688 766.351562 C 632.742188 765.730469 633.054688 765.113281 633.671875 764.800781 C 637.542969 763.097656 639.867188 757.832031 646.988281 742.1875 L 647.761719 740.328125 C 652.097656 730.726562 652.25 726.234375 652.5625 720.65625 C 652.714844 718.179688 652.714844 715.546875 653.335938 712.136719 C 653.644531 709.503906 654.265625 707.183594 654.882812 704.859375 C 655.8125 701.140625 656.894531 697.578125 656.277344 693.085938 C 656.277344 692.46875 656.585938 691.847656 657.207031 691.847656 C 657.824219 691.847656 658.445312 692.15625 658.445312 692.777344 C 659.0625 697.734375 658.132812 701.449219 657.050781 705.476562 C 656.433594 707.648438 655.8125 709.96875 655.503906 712.449219 C 655.039062 715.699219 654.882812 718.179688 654.882812 720.65625 C 654.574219 726.386719 654.417969 731.34375 649.929688 741.257812 L 649.15625 743.117188 C 641.722656 759.378906 639.246094 764.800781 634.757812 766.96875 C 634.445312 766.96875 634.292969 766.96875 634.136719 766.96875 Z M 634.136719 766.96875 " fill-opacity="1" fill-rule="nonzero"/><path fill="#121439" d="M 632.277344 730.726562 C 631.660156 730.726562 631.195312 730.261719 631.195312 729.640625 C 631.195312 726.851562 629.492188 722.363281 627.945312 717.871094 C 625.777344 711.984375 624.074219 707.027344 625.15625 704.394531 C 625.46875 703.773438 626.085938 703.621094 626.707031 703.929688 C 627.324219 704.238281 627.480469 704.859375 627.171875 705.476562 C 626.394531 707.183594 628.410156 712.601562 629.957031 717.09375 C 631.660156 721.742188 633.363281 726.386719 633.363281 729.640625 C 633.519531 730.261719 632.898438 730.726562 632.277344 730.726562 Z M 632.277344 730.726562 " fill-opacity="1" fill-rule="nonzero"/><path fill="#121439" d="M 660.921875 709.816406 C 660.765625 709.816406 660.457031 709.816406 660.300781 709.660156 L 657.515625 707.800781 C 656.742188 707.335938 656.121094 706.871094 655.347656 706.71875 C 654.730469 706.40625 654.417969 705.789062 654.730469 705.167969 C 655.039062 704.546875 655.65625 704.238281 656.277344 704.546875 C 657.207031 704.859375 657.980469 705.324219 658.753906 705.941406 L 661.542969 707.800781 C 662.003906 708.109375 662.160156 708.886719 661.851562 709.351562 C 661.695312 709.660156 661.386719 709.816406 660.921875 709.816406 Z M 660.921875 709.816406 " fill-opacity="1" fill-rule="nonzero"/><path fill="#121439" d="M 625.621094 713.53125 C 625.3125 713.53125 625.15625 713.378906 624.847656 713.222656 C 624.382812 712.757812 624.226562 712.136719 624.691406 711.671875 L 625.15625 711.210938 C 626.707031 709.195312 627.789062 707.800781 631.039062 707.183594 C 631.660156 707.027344 632.277344 707.492188 632.433594 708.109375 C 632.589844 708.730469 632.125 709.351562 631.503906 709.503906 C 629.183594 709.96875 628.5625 710.746094 627.015625 712.757812 L 626.550781 713.222656 C 626.394531 713.378906 626.085938 713.53125 625.621094 713.53125 Z M 625.621094 713.53125 " fill-opacity="1" fill-rule="nonzero"/><path fill="#121439" d="M 627.171875 717.714844 C 626.859375 717.714844 626.707031 717.714844 626.550781 717.558594 C 626.085938 717.25 625.929688 716.476562 626.242188 716.011719 C 628.097656 713.53125 630.730469 712.449219 633.363281 711.519531 C 633.980469 711.363281 634.601562 711.675781 634.757812 712.292969 C 634.910156 712.914062 634.601562 713.53125 633.980469 713.6875 C 631.660156 714.460938 629.492188 715.238281 628.097656 717.25 C 627.945312 717.558594 627.632812 717.714844 627.171875 717.714844 Z M 627.171875 717.714844 " fill-opacity="1" fill-rule="nonzero"/><path fill="#121439" d="M 629.027344 722.824219 C 628.71875 722.824219 628.5625 722.824219 628.410156 722.671875 C 627.945312 722.363281 627.789062 721.585938 628.253906 721.121094 C 629.957031 718.800781 632.589844 718.023438 634.910156 717.40625 C 635.53125 717.25 635.996094 717.09375 636.613281 716.941406 C 637.234375 716.785156 637.851562 717.09375 638.007812 717.558594 C 638.164062 718.179688 637.851562 718.800781 637.386719 718.953125 C 636.769531 719.109375 636.148438 719.261719 635.53125 719.574219 C 633.363281 720.191406 631.351562 720.8125 630.113281 722.515625 C 629.800781 722.671875 629.492188 722.824219 629.027344 722.824219 Z M 629.027344 722.824219 " fill-opacity="1" fill-rule="nonzero"/><path fill="#cb8273" d="M 182.359375 293 C 182.359375 293 161.921875 200.21875 159.445312 195.414062 C 156.96875 190.613281 155.113281 185.503906 154.027344 181.476562 C 153.253906 178.84375 148.144531 175.898438 148.453125 172.957031 C 148.453125 172.957031 148.765625 171.40625 150.464844 172.027344 C 152.480469 172.648438 156.351562 177.914062 156.816406 178.222656 L 157.277344 177.757812 C 157.277344 177.757812 152.167969 168.621094 152.480469 165.675781 C 152.945312 162.734375 154.957031 163.664062 155.730469 164.902344 C 156.503906 165.984375 160.375 175.28125 161.148438 175.898438 C 161.148438 175.898438 161.460938 176.210938 161.613281 175.746094 C 161.769531 175.28125 157.898438 163.199219 158.054688 161.496094 C 158.363281 158.859375 160.996094 158.859375 161.769531 161.183594 C 162.851562 164.128906 164.710938 173.113281 165.640625 174.039062 C 166.570312 174.96875 166.105469 157.46875 168.734375 157.003906 C 171.367188 156.539062 171.367188 158.707031 171.523438 162.113281 C 171.523438 165.367188 170.75 174.195312 171.523438 175.125 C 173.535156 177.292969 175.394531 170.167969 178.179688 168.621094 C 181.121094 167.070312 182.515625 167.535156 182.824219 168.464844 C 183.132812 169.546875 181.742188 171.097656 180.191406 173.421875 C 177.714844 177.136719 178.644531 178.996094 176.167969 183.488281 C 174 187.515625 171.675781 190.148438 173.226562 196.808594 C 174.773438 203.46875 204.34375 283.394531 204.34375 283.394531 Z M 182.359375 293 " fill-opacity="1" fill-rule="nonzero"/><path fill="#121439" d="M 166.570312 189.375 C 166.257812 189.375 165.792969 189.066406 165.792969 188.753906 C 165.640625 187.671875 165.484375 186.585938 165.484375 185.347656 C 165.484375 183.335938 165.949219 181.164062 167.03125 178.378906 C 167.1875 177.914062 167.652344 177.757812 167.960938 177.914062 C 168.425781 178.066406 168.582031 178.53125 168.425781 178.84375 C 167.34375 181.476562 166.878906 183.335938 166.878906 185.191406 C 166.878906 186.277344 167.03125 187.207031 167.1875 188.289062 C 167.496094 188.910156 167.1875 189.375 166.570312 189.375 C 166.722656 189.375 166.722656 189.375 166.570312 189.375 Z M 166.570312 189.375 " fill-opacity="1" fill-rule="nonzero"/><path fill="#cb8273" d="M 213.789062 665.671875 C 213.789062 665.671875 212.707031 702.070312 219.671875 711.828125 C 219.671875 711.828125 224.472656 727.628906 223.390625 731.34375 C 222.304688 735.0625 160.53125 749.3125 160.53125 749.3125 C 160.53125 749.3125 186.695312 726.542969 190.566406 716.164062 C 194.4375 705.789062 189.945312 682.089844 189.945312 682.089844 Z M 213.789062 665.671875 " fill-opacity="1" fill-rule="nonzero"/><path fill="#cb8273" d="M 308.542969 527.972656 C 308.542969 527.972656 340.28125 536.644531 349.414062 529.054688 C 349.414062 529.054688 365.054688 518.523438 368.304688 519.917969 C 371.710938 521.308594 381.929688 589.929688 381.929688 589.929688 C 381.929688 589.929688 363.8125 559.414062 354.523438 554.765625 C 345.234375 550.121094 322.167969 554.765625 322.167969 554.765625 Z M 308.542969 527.972656 " fill-opacity="1" fill-rule="nonzero"/><path fill="#cb8273" d="M 292.128906 294.082031 C 292.128906 294.082031 363.96875 225.308594 363.503906 223.917969 C 363.039062 222.523438 361.183594 215.707031 361.800781 208.582031 C 361.800781 208.582031 360.5625 201.148438 358.859375 198.515625 C 358.550781 198.050781 358.707031 197.585938 359.015625 197.273438 C 360.253906 196.34375 362.574219 195.414062 364.433594 198.976562 C 367.066406 204.089844 369.386719 208.582031 371.089844 209.355469 C 372.792969 210.128906 375.425781 202.078125 378.214844 199.441406 C 381.15625 196.964844 384.714844 198.050781 381.308594 204.398438 C 377.902344 210.75 377.128906 211.835938 377.128906 211.835938 C 377.128906 211.835938 377.285156 213.230469 378.058594 212.917969 C 378.988281 212.609375 385.488281 204.089844 387.65625 203.316406 C 389.824219 202.539062 391.21875 203.316406 390.289062 206.105469 C 389.359375 208.738281 382.859375 214.933594 382.859375 215.550781 C 382.859375 216.328125 383.167969 216.636719 383.941406 216.328125 C 384.714844 216.015625 392.457031 209.355469 394.316406 209.667969 C 396.171875 209.976562 397.257812 211.679688 395.398438 214.003906 C 393.539062 216.328125 386.265625 220.664062 386.265625 221.28125 C 386.417969 221.902344 392.457031 219.890625 394.316406 219.890625 C 396.171875 219.890625 397.566406 221.59375 396.328125 223.917969 C 396.328125 223.917969 389.671875 225.15625 385.953125 226.859375 C 382.238281 228.5625 380.226562 230.730469 378.058594 231.195312 C 375.734375 231.816406 304.671875 317.160156 300.644531 317.472656 C 296.15625 318.089844 292.128906 294.082031 292.128906 294.082031 Z M 292.128906 294.082031 " fill-opacity="1" fill-rule="nonzero"/><path fill="#cb8273" d="M 187.316406 373.851562 C 187.316406 373.851562 179.882812 420.785156 186.851562 457.183594 C 192.113281 484.753906 245.839844 415.054688 245.839844 415.054688 L 238.097656 381.132812 Z M 187.316406 373.851562 " fill-opacity="1" fill-rule="nonzero"/><path fill="#3ab54a" d="M 183.910156 432.246094 C 183.910156 432.246094 246.921875 419.390625 253.890625 404.054688 C 253.890625 404.054688 272.777344 429.460938 275.875 459.664062 C 279.125 489.867188 285.320312 523.632812 285.320312 523.632812 L 339.351562 526.730469 L 339.351562 594.417969 C 339.351562 594.417969 264.109375 590.703125 241.503906 568.089844 C 223.390625 549.964844 227.878906 497.457031 227.878906 497.457031 C 227.878906 497.457031 213.015625 570.722656 214.71875 585.28125 C 216.421875 599.6875 225.246094 667.53125 225.246094 667.53125 C 225.246094 667.53125 219.671875 690.144531 206.046875 695.71875 L 165.792969 692.777344 C 165.792969 692.777344 157.589844 623.539062 160.996094 581.410156 C 164.867188 539.433594 183.910156 432.246094 183.910156 432.246094 Z M 183.910156 432.246094 " fill-opacity="1" fill-rule="nonzero"/><path fill="#cb8273" d="M 229.273438 285.410156 C 229.273438 285.410156 222.925781 309.261719 217.042969 310.5 C 211.15625 311.742188 195.832031 346.125 220.136719 349.84375 C 244.445312 353.5625 248.46875 315.304688 248.46875 315.304688 C 248.46875 315.304688 246.765625 307.558594 252.339844 300.277344 C 257.914062 292.84375 229.273438 285.410156 229.273438 285.410156 Z M 229.273438 285.410156 " fill-opacity="1" fill-rule="nonzero"/><path fill="#5d6d97" d="M 217.195312 310.5 C 217.195312 310.5 201.867188 334.820312 220.292969 339.929688 C 238.253906 345.042969 248.316406 311.429688 248.316406 311.429688 L 298.789062 279.832031 C 300.492188 278.75 302.503906 279.367188 303.585938 281.070312 C 308.234375 288.351562 319.378906 308.023438 315.972656 325.371094 C 315.972656 325.371094 278.351562 348.140625 266.273438 350.152344 L 254.199219 378.191406 C 250.636719 386.398438 250.636719 391.820312 253.890625 400.03125 L 259.773438 410.40625 C 260.238281 411.335938 260.238281 412.421875 259.464844 413.195312 C 255.4375 417.53125 240.265625 430.234375 206.824219 425.742188 C 166.722656 420.320312 166.722656 417.996094 166.722656 417.996094 C 166.722656 417.996094 181.585938 375.710938 179.574219 357.589844 C 176.167969 326.144531 179.882812 307.402344 169.199219 278.128906 C 175.238281 266.820312 183.753906 259.230469 195.054688 256.132812 C 196.449219 254.894531 198.617188 255.515625 199.234375 257.375 Z M 217.195312 310.5 " fill-opacity="1" fill-rule="nonzero"/><path fill="#121439" d="M 251.410156 272.085938 C 250.171875 277.972656 249.707031 282.929688 249.707031 285.875 C 249.707031 293.773438 244.136719 307.714844 249.246094 309.726562 C 265.347656 315.769531 269.992188 290.984375 269.992188 281.535156 C 269.992188 275.1875 263.644531 269.765625 258.378906 269.765625 C 255.746094 269.609375 253.113281 270.382812 251.410156 272.085938 Z M 251.410156 272.085938 " fill-opacity="1" fill-rule="nonzero"/><path fill="#cb8273" d="M 249.398438 259.695312 C 256.210938 260.007812 261.011719 267.132812 259.617188 274.566406 C 259 277.820312 258.070312 281.691406 257.140625 284.789062 C 255.28125 291.292969 253.113281 305.855469 243.515625 303.996094 C 233.917969 302.136719 229.273438 290.675781 228.5 285.097656 C 227.722656 279.523438 225.246094 267.285156 233.917969 263.722656 C 238.5625 261.710938 244.289062 259.386719 249.398438 259.695312 Z M 249.398438 259.695312 " fill-opacity="1" fill-rule="nonzero"/><path fill="#121439" d="M 227.722656 245.601562 C 231.285156 245.601562 234.691406 244.515625 237.476562 242.195312 C 239.492188 240.644531 242.585938 239.25 247.386719 239.25 C 254.972656 239.25 259 244.980469 263.023438 248.699219 C 267.203125 252.570312 269.214844 257.527344 268.90625 262.792969 C 268.597656 266.355469 268.289062 268.523438 268.289062 268.835938 C 269.214844 276.578125 270.144531 277.507812 270.144531 280.140625 C 270.144531 285.5625 263.332031 286.339844 261.320312 285.253906 C 254.972656 281.847656 259.308594 273.171875 254.507812 264.808594 C 252.652344 274.257812 236.085938 268.371094 230.355469 275.1875 C 224.9375 281.535156 239.492188 313.910156 223.078125 313.910156 C 218.433594 313.910156 204.5 297.179688 204.5 290.828125 C 204.5 283.859375 209.300781 281.847656 211.46875 276.734375 C 207.75 274.410156 206.203125 271.625 206.203125 268.988281 C 206.203125 263.570312 212.242188 258.148438 217.195312 254.738281 C 218.28125 249.785156 219.984375 245.292969 227.414062 245.292969 C 227.414062 245.601562 227.570312 245.601562 227.722656 245.601562 Z M 227.722656 245.601562 " fill-opacity="1" fill-rule="nonzero"/><path fill="#cb8273" d="M 228.808594 278.128906 C 228.5 276.734375 227.414062 275.652344 226.175781 275.339844 C 225.867188 275.339844 225.710938 275.1875 225.402344 275.1875 L 225.246094 275.1875 C 223.699219 275.652344 223.078125 278.285156 223.078125 279.832031 C 223.078125 287.113281 230.664062 287.886719 230.820312 288.042969 C 230.511719 284.789062 229.425781 281.535156 228.808594 278.128906 Z M 228.808594 278.128906 " fill-opacity="1" fill-rule="nonzero"/><path fill="#121439" d="M 239.800781 276.425781 C 239.335938 276.425781 238.714844 276.113281 238.40625 275.652344 C 237.941406 274.875 238.253906 273.945312 239.027344 273.480469 C 240.109375 272.863281 241.347656 272.398438 242.433594 271.933594 C 244.445312 271.3125 246.304688 271.46875 248.316406 272.550781 C 249.089844 272.863281 249.398438 273.792969 248.933594 274.566406 C 248.625 275.339844 247.695312 275.652344 246.921875 275.1875 C 245.683594 274.566406 244.601562 274.410156 243.359375 274.875 C 242.742188 275.03125 241.65625 275.496094 240.574219 276.113281 C 240.417969 276.425781 240.109375 276.425781 239.800781 276.425781 Z M 239.800781 276.425781 " fill-opacity="1" fill-rule="nonzero"/><path fill="#121439" d="M 256.367188 276.269531 C 256.058594 276.269531 255.746094 276.113281 255.4375 275.960938 C 255.128906 275.804688 255.128906 275.804688 255.128906 275.804688 C 255.128906 275.804688 254.972656 275.804688 254.816406 275.804688 C 254.042969 275.652344 253.269531 275.804688 252.339844 275.960938 L 252.1875 275.960938 C 251.410156 276.113281 250.484375 275.496094 250.484375 274.722656 C 250.484375 273.945312 250.949219 273.015625 251.722656 273.015625 L 251.875 273.015625 C 252.960938 272.863281 253.890625 272.707031 255.128906 272.863281 C 256.058594 272.863281 256.519531 273.171875 257.140625 273.636719 C 257.914062 274.101562 258.070312 275.03125 257.605469 275.804688 C 257.449219 276.113281 256.984375 276.269531 256.367188 276.269531 Z M 256.367188 276.269531 " fill-opacity="1" fill-rule="nonzero"/><path fill="#121439" d="M 244.445312 280.453125 C 244.136719 280.140625 243.980469 279.523438 243.980469 278.902344 C 243.980469 277.820312 244.289062 276.734375 244.910156 276.734375 C 246.148438 276.734375 246.148438 278.285156 246.148438 279.214844 C 246.148438 280.140625 245.839844 281.070312 245.21875 281.070312 C 245.0625 281.070312 244.910156 280.917969 244.601562 280.761719 C 244.601562 280.761719 244.445312 280.605469 244.445312 280.453125 Z M 244.445312 280.453125 " fill-opacity="1" fill-rule="nonzero"/><path fill="#121439" d="M 253.578125 279.058594 C 253.578125 278.128906 254.042969 277.042969 254.664062 277.042969 C 255.4375 277.042969 255.59375 278.59375 255.59375 279.523438 C 255.59375 280.453125 255.28125 281.070312 254.664062 281.226562 C 254.507812 281.226562 254.355469 281.226562 254.042969 281.070312 C 253.578125 280.453125 253.578125 279.675781 253.578125 279.058594 Z M 253.578125 279.058594 " fill-opacity="1" fill-rule="nonzero"/><path fill="#121439" d="M 248.78125 291.140625 C 248.625 291.140625 248.316406 290.984375 248.160156 290.828125 C 247.851562 290.519531 248.007812 290.054688 248.316406 289.746094 L 248.933594 289.125 C 250.328125 288.042969 250.792969 287.578125 250.792969 286.183594 C 250.792969 284.632812 250.171875 282.464844 249.707031 280.453125 C 249.398438 279.523438 249.246094 278.59375 249.089844 277.820312 C 248.933594 277.355469 249.246094 277.042969 249.707031 276.890625 C 250.171875 276.734375 250.484375 277.042969 250.636719 277.507812 C 250.792969 278.285156 250.949219 279.058594 251.257812 279.988281 C 251.722656 282.15625 252.339844 284.480469 252.339844 286.183594 C 252.339844 288.351562 251.410156 289.125 249.863281 290.210938 L 249.246094 290.675781 C 249.246094 291.140625 249.089844 291.140625 248.78125 291.140625 Z M 248.78125 291.140625 " fill-opacity="1" fill-rule="nonzero"/><path fill="#121439" d="M 249.246094 295.011719 L 248.46875 295.011719 C 245.839844 295.011719 243.515625 294.082031 241.503906 292.222656 C 241.195312 291.914062 241.195312 291.449219 241.503906 291.140625 C 241.8125 290.828125 242.277344 290.828125 242.585938 291.140625 C 244.289062 292.6875 246.304688 293.617188 248.625 293.617188 L 249.398438 293.617188 C 249.863281 293.617188 250.171875 293.929688 250.171875 294.390625 C 250.171875 294.855469 249.707031 295.011719 249.246094 295.011719 Z M 249.246094 295.011719 " fill-opacity="1" fill-rule="nonzero"/><path fill="#121439" d="M 264.109375 344.886719 C 263.332031 344.886719 262.558594 344.269531 262.558594 343.339844 C 262.40625 337.296875 260.546875 332.339844 258.222656 326.457031 L 258.070312 325.835938 C 257.761719 325.0625 258.222656 324.132812 259 323.820312 C 259.773438 323.511719 260.703125 323.976562 261.011719 324.75 L 261.164062 325.371094 C 263.332031 331.257812 265.5 336.679688 265.65625 343.183594 C 265.65625 344.269531 265.035156 344.886719 264.109375 344.886719 C 264.261719 344.886719 264.109375 344.886719 264.109375 344.886719 Z M 264.109375 344.886719 " fill-opacity="1" fill-rule="nonzero"/><path fill="#121439" d="M 182.515625 330.945312 C 182.359375 330.945312 182.359375 330.945312 182.207031 330.945312 C 181.429688 330.792969 180.8125 330.019531 180.96875 329.089844 C 183.445312 315.921875 189.019531 307.558594 196.605469 299.039062 C 197.222656 298.417969 198.152344 298.417969 198.773438 298.882812 C 199.390625 299.503906 199.390625 300.433594 198.925781 301.054688 C 191.648438 309.105469 186.386719 317.007812 183.910156 329.554688 C 183.910156 330.484375 183.289062 330.945312 182.515625 330.945312 Z M 182.515625 330.945312 " fill-opacity="1" fill-rule="nonzero"/><path fill="#121439" d="M 228.035156 499.160156 C 228.035156 499.160156 227.878906 499.160156 227.878906 499.160156 C 227.105469 499.007812 226.484375 498.230469 226.484375 497.457031 C 228.035156 485.996094 228.1875 474.222656 228.1875 465.085938 C 228.1875 456.71875 228.035156 448.046875 227.878906 440.921875 C 227.878906 439.992188 228.5 439.371094 229.425781 439.371094 C 230.355469 439.371094 230.976562 439.992188 230.976562 440.921875 C 231.128906 448.046875 231.285156 456.71875 231.285156 465.085938 C 231.285156 474.222656 231.128906 486.148438 229.582031 497.765625 C 229.582031 498.695312 228.808594 499.160156 228.035156 499.160156 Z M 228.035156 499.160156 " fill-opacity="1" fill-rule="nonzero"/><path fill="#121439" d="M 288.570312 544.078125 C 287.796875 544.078125 287.175781 543.613281 287.023438 542.839844 L 286.402344 539.898438 C 285.164062 534.632812 284.078125 529.519531 282.996094 524.253906 C 282.839844 523.480469 283.304688 522.550781 284.234375 522.394531 C 285.007812 522.238281 285.9375 522.703125 286.09375 523.632812 C 287.175781 528.898438 288.261719 533.855469 289.5 539.125 L 290.117188 542.066406 C 290.273438 542.839844 289.808594 543.769531 288.878906 543.925781 C 288.878906 544.078125 288.726562 544.078125 288.570312 544.078125 Z M 288.570312 544.078125 " fill-opacity="1" fill-rule="nonzero"/><path fill="#121439" d="M 209.300781 660.25 C 208.527344 660.25 207.90625 659.628906 207.75 658.855469 C 206.667969 648.324219 206.203125 637.789062 206.203125 626.484375 C 206.203125 614.867188 206.824219 602.9375 207.90625 589.773438 C 207.90625 589 208.679688 588.222656 209.609375 588.378906 C 210.539062 588.378906 211.15625 589.152344 211.003906 590.082031 C 209.917969 603.09375 209.300781 615.019531 209.300781 626.484375 C 209.300781 637.636719 209.765625 648.167969 210.847656 658.546875 C 211.003906 659.320312 210.382812 660.09375 209.453125 660.25 C 209.453125 660.25 209.453125 660.25 209.300781 660.25 Z M 209.300781 660.25 " fill-opacity="1" fill-rule="nonzero"/><path fill="#121439" d="M 245.839844 304.460938 C 239.027344 303.53125 236.085938 300.433594 232.367188 294.390625 C 232.214844 294.082031 232.214844 293.617188 232.679688 293.308594 C 232.988281 293.152344 233.453125 293.152344 233.761719 293.617188 C 237.324219 299.347656 239.953125 302.136719 245.992188 303.066406 C 246.457031 303.066406 246.765625 303.53125 246.613281 303.996094 C 246.613281 304.304688 246.304688 304.460938 245.839844 304.460938 Z M 245.839844 304.460938 " fill-opacity="1" fill-rule="nonzero"/><path fill="#3ab54a" d="M 220.910156 708.886719 C 219.984375 707.335938 218.28125 707.027344 216.886719 708.109375 C 214.875 709.660156 211.46875 711.363281 210.847656 712.292969 C 203.105469 723.753906 189.328125 716.320312 185.765625 713.222656 C 184.683594 712.292969 182.980469 712.292969 182.050781 713.53125 C 180.039062 715.855469 171.367188 730.878906 162.386719 738.625 C 142.570312 755.507812 141.796875 755.199219 153.097656 761.703125 C 164.246094 768.210938 201.402344 746.214844 210.691406 744.820312 C 216.265625 743.890625 222.304688 740.484375 226.332031 737.851562 C 228.808594 736.148438 229.890625 732.738281 228.960938 729.640625 C 226.949219 723.445312 223.699219 713.6875 220.910156 708.886719 Z M 220.910156 708.886719 " fill-opacity="1" fill-rule="nonzero"/><path fill="#3ab54a" d="M 350.34375 525.335938 C 349.105469 525.957031 348.640625 527.660156 349.261719 529.054688 C 350.34375 531.222656 351.273438 534.476562 351.894531 535.097656 C 360.097656 543.613281 352.976562 555.851562 350.035156 558.949219 C 349.105469 559.878906 349.105469 561.429688 349.878906 562.511719 C 351.429688 564.679688 362.265625 574.4375 367.375 583.730469 C 378.523438 604.179688 378.214844 604.953125 384.40625 594.882812 C 390.597656 584.816406 377.128906 547.488281 376.972656 538.503906 C 376.820312 533.082031 374.652344 527.042969 373.105469 523.015625 C 372.019531 520.382812 369.542969 519.140625 366.910156 519.761719 C 362.265625 521 354.523438 523.167969 350.34375 525.335938 Z M 350.34375 525.335938 " fill-opacity="1" fill-rule="nonzero"/></svg>