<svg xmlns="http://www.w3.org/2000/svg" xmlns:xlink="http://www.w3.org/1999/xlink" width="270" zoomAndPan="magnify" viewBox="0 0 202.5 202.499993" height="270" preserveAspectRatio="xMidYMid meet" version="1.0"><defs><clipPath id="id1"><path d="M 0 0 L 202 0 L 202 202 L 0 202 Z M 0 0 " clip-rule="nonzero"/></clipPath></defs><path fill="#00b050" d="M 42.1875 74.25 L 43.875 74.25 L 43.875 77.625 C 43.875 79.488281 45.386719 81 47.25 81 C 49.113281 81 50.625 79.488281 50.625 77.625 L 50.625 74.25 L 52.3125 74.25 C 58.824219 74.25 64.125 68.949219 64.125 62.4375 C 64.125 55.925781 58.824219 50.625 52.3125 50.625 L 50.625 50.625 L 50.625 40.5 L 52.3125 40.5 C 55.105469 40.5 57.375 42.769531 57.375 45.5625 L 57.375 47.25 C 57.375 49.113281 58.886719 50.625 60.75 50.625 C 62.613281 50.625 64.125 49.113281 64.125 47.25 L 64.125 45.5625 C 64.125 39.050781 58.824219 33.75 52.3125 33.75 L 50.625 33.75 L 50.625 30.375 C 50.625 28.511719 49.113281 27 47.25 27 C 45.386719 27 43.875 28.511719 43.875 30.375 L 43.875 33.75 L 42.1875 33.75 C 35.675781 33.75 30.375 39.050781 30.375 45.5625 C 30.375 52.074219 35.675781 57.375 42.1875 57.375 L 43.875 57.375 L 43.875 67.5 L 42.1875 67.5 C 39.394531 67.5 37.125 65.230469 37.125 62.4375 L 37.125 60.75 C 37.125 58.886719 35.613281 57.375 33.75 57.375 C 31.886719 57.375 30.375 58.886719 30.375 60.75 L 30.375 62.4375 C 30.375 68.949219 35.675781 74.25 42.1875 74.25 Z M 50.625 57.375 L 52.3125 57.375 C 55.105469 57.375 57.375 59.644531 57.375 62.4375 C 57.375 65.230469 55.105469 67.5 52.3125 67.5 L 50.625 67.5 Z M 42.1875 50.625 C 39.394531 50.625 37.125 48.355469 37.125 45.5625 C 37.125 42.769531 39.394531 40.5 42.1875 40.5 L 43.875 40.5 L 43.875 50.625 Z M 42.1875 50.625 " fill-opacity="1" fill-rule="nonzero"/><path fill="#00b050" d="M 97.875 33.75 L 114.75 33.75 C 116.613281 33.75 118.125 32.238281 118.125 30.375 C 118.125 28.511719 116.613281 27 114.75 27 L 97.875 27 C 96.011719 27 94.5 28.511719 94.5 30.375 C 94.5 32.238281 96.011719 33.75 97.875 33.75 Z M 97.875 33.75 " fill-opacity="1" fill-rule="nonzero"/><path fill="#00b050" d="M 74.25 47.25 L 114.75 47.25 C 116.613281 47.25 118.125 45.738281 118.125 43.875 C 118.125 42.011719 116.613281 40.5 114.75 40.5 L 74.25 40.5 C 72.386719 40.5 70.875 42.011719 70.875 43.875 C 70.875 45.738281 72.386719 47.25 74.25 47.25 Z M 74.25 47.25 " fill-opacity="1" fill-rule="nonzero"/><path fill="#00b050" d="M 74.25 60.75 L 114.75 60.75 C 116.613281 60.75 118.125 59.238281 118.125 57.375 C 118.125 55.511719 116.613281 54 114.75 54 L 74.25 54 C 72.386719 54 70.875 55.511719 70.875 57.375 C 70.875 59.238281 72.386719 60.75 74.25 60.75 Z M 74.25 60.75 " fill-opacity="1" fill-rule="nonzero"/><path fill="#00b050" d="M 74.25 74.25 L 114.75 74.25 C 116.613281 74.25 118.125 72.738281 118.125 70.875 C 118.125 69.011719 116.613281 67.5 114.75 67.5 L 74.25 67.5 C 72.386719 67.5 70.875 69.011719 70.875 70.875 C 70.875 72.738281 72.386719 74.25 74.25 74.25 Z M 74.25 74.25 " fill-opacity="1" fill-rule="nonzero"/><path fill="#00b050" d="M 33.75 124.875 L 91.125 124.875 C 92.988281 124.875 94.5 123.363281 94.5 121.5 C 94.5 119.636719 92.988281 118.125 91.125 118.125 L 81 118.125 L 81 91.125 C 81 89.261719 79.488281 87.75 77.625 87.75 C 75.761719 87.75 74.25 89.261719 74.25 91.125 L 74.25 118.125 L 70.875 118.125 L 70.875 104.625 C 70.875 102.761719 69.363281 101.25 67.5 101.25 C 65.636719 101.25 64.125 102.761719 64.125 104.625 L 64.125 118.125 L 60.75 118.125 L 60.75 101.25 C 60.75 99.386719 59.238281 97.875 57.375 97.875 C 55.511719 97.875 54 99.386719 54 101.25 L 54 118.125 L 50.625 118.125 L 50.625 111.375 C 50.625 109.511719 49.113281 108 47.25 108 C 45.386719 108 43.875 109.511719 43.875 111.375 L 43.875 118.125 L 37.125 118.125 L 37.125 84.375 C 37.125 82.511719 35.613281 81 33.75 81 C 31.886719 81 30.375 82.511719 30.375 84.375 L 30.375 121.5 C 30.375 123.363281 31.886719 124.875 33.75 124.875 Z M 33.75 124.875 " fill-opacity="1" fill-rule="nonzero"/><path fill="#00b050" d="M 74.25 162 L 57.375 162 L 57.375 145.125 C 57.375 143.261719 55.863281 141.75 54 141.75 C 40.972656 141.75 30.375 152.347656 30.375 165.375 C 30.375 178.402344 40.972656 189 54 189 C 67.027344 189 77.625 178.402344 77.625 165.375 C 77.625 163.511719 76.113281 162 74.25 162 Z M 54 182.25 C 44.695312 182.25 37.125 174.679688 37.125 165.375 C 37.125 157.226562 42.933594 150.40625 50.625 148.839844 L 50.625 165.375 C 50.625 167.238281 52.136719 168.75 54 168.75 L 70.535156 168.75 C 68.96875 176.441406 62.148438 182.25 54 182.25 Z M 54 182.25 " fill-opacity="1" fill-rule="nonzero"/><path fill="#00b050" d="M 60.75 135 L 60.75 155.25 C 60.75 157.113281 62.261719 158.625 64.125 158.625 L 84.375 158.625 C 86.238281 158.625 87.75 157.113281 87.75 155.25 C 87.75 142.222656 77.152344 131.625 64.125 131.625 C 62.261719 131.625 60.75 133.136719 60.75 135 Z M 67.5 138.714844 C 74.101562 140.058594 79.316406 145.273438 80.660156 151.875 L 67.5 151.875 Z M 67.5 138.714844 " fill-opacity="1" fill-rule="nonzero"/><g clip-path="url(#id1)"><path fill="#00b050" d="M 194.90625 94.5 L 165.375 94.5 L 165.375 85.773438 C 168.503906 87.042969 171.921875 87.75 175.5 87.75 C 190.386719 87.75 202.5 75.636719 202.5 60.75 C 202.5 45.863281 190.386719 33.75 175.5 33.75 C 168.410156 33.75 161.957031 36.5 157.132812 40.984375 L 148.5 32.351562 L 148.5 3.375 C 148.5 1.511719 146.988281 0 145.125 0 L 3.375 0 C 1.511719 0 0 1.511719 0 3.375 L 0 185.625 C 0 187.488281 1.511719 189 3.375 189 L 16.875 189 L 16.875 199.125 C 16.875 200.988281 18.386719 202.5 20.25 202.5 L 194.90625 202.5 C 199.09375 202.5 202.5 199.09375 202.5 194.90625 L 202.5 102.09375 C 202.5 97.90625 199.09375 94.5 194.90625 94.5 Z M 175.5 40.5 C 186.664062 40.5 195.75 49.585938 195.75 60.75 C 195.75 71.914062 186.664062 81 175.5 81 C 164.335938 81 155.25 71.914062 155.25 60.75 C 155.25 49.585938 164.335938 40.5 175.5 40.5 Z M 152.785156 46.183594 C 152.558594 46.535156 152.34375 46.890625 152.132812 47.25 L 131.625 47.25 L 131.625 25.023438 Z M 16.875 16.875 L 16.875 182.25 L 6.75 182.25 L 6.75 6.75 L 141.75 6.75 L 141.75 25.601562 L 130.636719 14.488281 C 130.003906 13.855469 129.144531 13.5 128.25 13.5 L 20.25 13.5 C 18.386719 13.5 16.875 15.011719 16.875 16.875 Z M 124.925781 195.75 L 23.625 195.75 L 23.625 20.25 L 124.875 20.25 L 124.875 50.625 C 124.875 52.488281 126.386719 54 128.25 54 L 149.355469 54 C 148.796875 56.160156 148.5 58.421875 148.5 60.75 C 148.5 63.125 148.8125 65.425781 149.390625 67.621094 C 149.105469 67.542969 148.808594 67.5 148.5 67.5 L 131.625 67.5 C 129.761719 67.5 128.25 69.011719 128.25 70.875 C 128.25 72.738281 129.761719 74.25 131.625 74.25 L 148.5 74.25 C 149.675781 74.25 150.710938 73.648438 151.316406 72.734375 C 153.070312 76.265625 155.578125 79.355469 158.625 81.804688 L 158.625 94.5 L 132.46875 94.5 C 128.28125 94.5 124.875 97.90625 124.875 102.09375 L 124.875 194.90625 C 124.875 195.191406 124.894531 195.472656 124.925781 195.75 Z M 195.75 194.90625 C 195.75 195.371094 195.371094 195.75 194.90625 195.75 L 132.46875 195.75 C 132.003906 195.75 131.625 195.371094 131.625 194.90625 L 131.625 102.09375 C 131.625 101.628906 132.003906 101.25 132.46875 101.25 L 194.90625 101.25 C 195.371094 101.25 195.75 101.628906 195.75 102.09375 Z M 195.75 194.90625 " fill-opacity="1" fill-rule="nonzero"/></g><path fill="#00b050" d="M 189 104.625 L 138.375 104.625 C 136.511719 104.625 135 106.136719 135 108 L 135 128.25 C 135 130.113281 136.511719 131.625 138.375 131.625 L 189 131.625 C 190.863281 131.625 192.375 130.113281 192.375 128.25 L 192.375 108 C 192.375 106.136719 190.863281 104.625 189 104.625 Z M 185.625 124.875 L 141.75 124.875 L 141.75 111.375 L 185.625 111.375 Z M 185.625 124.875 " fill-opacity="1" fill-rule="nonzero"/><path fill="#00b050" d="M 148.5 135 L 138.375 135 C 136.511719 135 135 136.511719 135 138.375 L 135 148.5 C 135 150.363281 136.511719 151.875 138.375 151.875 L 148.5 151.875 C 150.363281 151.875 151.875 150.363281 151.875 148.5 L 151.875 138.375 C 151.875 136.511719 150.363281 135 148.5 135 Z M 145.125 145.125 L 141.75 145.125 L 141.75 141.75 L 145.125 141.75 Z M 145.125 145.125 " fill-opacity="1" fill-rule="nonzero"/><path fill="#00b050" d="M 168.75 135 L 158.625 135 C 156.761719 135 155.25 136.511719 155.25 138.375 L 155.25 148.5 C 155.25 150.363281 156.761719 151.875 158.625 151.875 L 168.75 151.875 C 170.613281 151.875 172.125 150.363281 172.125 148.5 L 172.125 138.375 C 172.125 136.511719 170.613281 135 168.75 135 Z M 165.375 145.125 L 162 145.125 L 162 141.75 L 165.375 141.75 Z M 165.375 145.125 " fill-opacity="1" fill-rule="nonzero"/><path fill="#00b050" d="M 189 135 L 178.875 135 C 177.011719 135 175.5 136.511719 175.5 138.375 L 175.5 148.5 C 175.5 150.363281 177.011719 151.875 178.875 151.875 L 189 151.875 C 190.863281 151.875 192.375 150.363281 192.375 148.5 L 192.375 138.375 C 192.375 136.511719 190.863281 135 189 135 Z M 185.625 145.125 L 182.25 145.125 L 182.25 141.75 L 185.625 141.75 Z M 185.625 145.125 " fill-opacity="1" fill-rule="nonzero"/><path fill="#00b050" d="M 148.5 155.25 L 138.375 155.25 C 136.511719 155.25 135 156.761719 135 158.625 L 135 168.75 C 135 170.613281 136.511719 172.125 138.375 172.125 L 148.5 172.125 C 150.363281 172.125 151.875 170.613281 151.875 168.75 L 151.875 158.625 C 151.875 156.761719 150.363281 155.25 148.5 155.25 Z M 145.125 165.375 L 141.75 165.375 L 141.75 162 L 145.125 162 Z M 145.125 165.375 " fill-opacity="1" fill-rule="nonzero"/><path fill="#00b050" d="M 168.75 155.25 L 158.625 155.25 C 156.761719 155.25 155.25 156.761719 155.25 158.625 L 155.25 168.75 C 155.25 170.613281 156.761719 172.125 158.625 172.125 L 168.75 172.125 C 170.613281 172.125 172.125 170.613281 172.125 168.75 L 172.125 158.625 C 172.125 156.761719 170.613281 155.25 168.75 155.25 Z M 165.375 165.375 L 162 165.375 L 162 162 L 165.375 162 Z M 165.375 165.375 " fill-opacity="1" fill-rule="nonzero"/><path fill="#00b050" d="M 189 155.25 L 178.875 155.25 C 177.011719 155.25 175.5 156.761719 175.5 158.625 L 175.5 168.75 C 175.5 170.613281 177.011719 172.125 178.875 172.125 L 189 172.125 C 190.863281 172.125 192.375 170.613281 192.375 168.75 L 192.375 158.625 C 192.375 156.761719 190.863281 155.25 189 155.25 Z M 185.625 165.375 L 182.25 165.375 L 182.25 162 L 185.625 162 Z M 185.625 165.375 " fill-opacity="1" fill-rule="nonzero"/><path fill="#00b050" d="M 148.5 175.5 L 138.375 175.5 C 136.511719 175.5 135 177.011719 135 178.875 L 135 189 C 135 190.863281 136.511719 192.375 138.375 192.375 L 148.5 192.375 C 150.363281 192.375 151.875 190.863281 151.875 189 L 151.875 178.875 C 151.875 177.011719 150.363281 175.5 148.5 175.5 Z M 145.125 185.625 L 141.75 185.625 L 141.75 182.25 L 145.125 182.25 Z M 145.125 185.625 " fill-opacity="1" fill-rule="nonzero"/><path fill="#00b050" d="M 168.75 175.5 L 158.625 175.5 C 156.761719 175.5 155.25 177.011719 155.25 178.875 L 155.25 189 C 155.25 190.863281 156.761719 192.375 158.625 192.375 L 168.75 192.375 C 170.613281 192.375 172.125 190.863281 172.125 189 L 172.125 178.875 C 172.125 177.011719 170.613281 175.5 168.75 175.5 Z M 165.375 185.625 L 162 185.625 L 162 182.25 L 165.375 182.25 Z M 165.375 185.625 " fill-opacity="1" fill-rule="nonzero"/><path fill="#00b050" d="M 189 175.5 L 178.875 175.5 C 177.011719 175.5 175.5 177.011719 175.5 178.875 L 175.5 189 C 175.5 190.863281 177.011719 192.375 178.875 192.375 L 189 192.375 C 190.863281 192.375 192.375 190.863281 192.375 189 L 192.375 178.875 C 192.375 177.011719 190.863281 175.5 189 175.5 Z M 185.625 185.625 L 182.25 185.625 L 182.25 182.25 L 185.625 182.25 Z M 185.625 185.625 " fill-opacity="1" fill-rule="nonzero"/><path fill="#00b050" d="M 151.875 84.375 C 151.875 82.511719 150.363281 81 148.5 81 L 94.5 81 C 92.636719 81 91.125 82.511719 91.125 84.375 C 91.125 86.238281 92.636719 87.75 94.5 87.75 L 148.5 87.75 C 150.363281 87.75 151.875 86.238281 151.875 84.375 Z M 151.875 84.375 " fill-opacity="1" fill-rule="nonzero"/><path fill="#00b050" d="M 114.75 94.5 L 94.5 94.5 C 92.636719 94.5 91.125 96.011719 91.125 97.875 C 91.125 99.738281 92.636719 101.25 94.5 101.25 L 114.75 101.25 C 116.613281 101.25 118.125 99.738281 118.125 97.875 C 118.125 96.011719 116.613281 94.5 114.75 94.5 Z M 114.75 94.5 " fill-opacity="1" fill-rule="nonzero"/><path fill="#00b050" d="M 104.625 114.75 C 106.488281 114.75 108 113.238281 108 111.375 C 108 109.511719 106.488281 108 104.625 108 L 94.5 108 C 92.636719 108 91.125 109.511719 91.125 111.375 C 91.125 113.238281 92.636719 114.75 94.5 114.75 Z M 104.625 114.75 " fill-opacity="1" fill-rule="nonzero"/><path fill="#00b050" d="M 175.542969 67.503906 C 175.527344 67.503906 175.515625 67.5 175.5 67.5 C 175.484375 67.5 175.472656 67.503906 175.457031 67.503906 L 172.125 67.503906 C 172.125 67.503906 172.125 67.503906 172.125 67.5 C 172.125 65.636719 170.613281 64.125 168.75 64.125 C 166.886719 64.125 165.375 65.636719 165.375 67.5 C 165.375 71.222656 168.402344 74.25 172.125 74.25 C 172.125 76.113281 173.636719 77.625 175.5 77.625 C 177.363281 77.625 178.875 76.113281 178.875 74.25 C 182.597656 74.25 185.625 71.222656 185.625 67.5 L 185.625 64.125 C 185.625 60.402344 182.597656 57.375 178.875 57.375 L 172.125 57.375 L 172.125 54 L 178.875 54 C 178.875 55.863281 180.386719 57.375 182.25 57.375 C 184.113281 57.375 185.625 55.863281 185.625 54 C 185.625 50.277344 182.597656 47.25 178.875 47.25 C 178.875 45.386719 177.363281 43.875 175.5 43.875 C 173.636719 43.875 172.125 45.386719 172.125 47.25 C 168.402344 47.25 165.375 50.277344 165.375 54 L 165.375 57.375 C 165.375 61.097656 168.402344 64.125 172.125 64.125 L 178.875 64.125 L 178.875 67.5 Z M 175.542969 67.503906 " fill-opacity="1" fill-rule="nonzero"/><path fill="#00b050" d="M 114.75 141.75 L 97.875 141.75 C 96.011719 141.75 94.5 143.261719 94.5 145.125 C 94.5 146.988281 96.011719 148.5 97.875 148.5 L 114.75 148.5 C 116.613281 148.5 118.125 146.988281 118.125 145.125 C 118.125 143.261719 116.613281 141.75 114.75 141.75 Z M 114.75 141.75 " fill-opacity="1" fill-rule="nonzero"/><path fill="#00b050" d="M 114.75 155.25 L 94.5 155.25 C 92.636719 155.25 91.125 156.761719 91.125 158.625 C 91.125 160.488281 92.636719 162 94.5 162 L 114.75 162 C 116.613281 162 118.125 160.488281 118.125 158.625 C 118.125 156.761719 116.613281 155.25 114.75 155.25 Z M 114.75 155.25 " fill-opacity="1" fill-rule="nonzero"/><path fill="#00b050" d="M 114.75 168.75 L 91.125 168.75 C 89.261719 168.75 87.75 170.261719 87.75 172.125 C 87.75 173.988281 89.261719 175.5 91.125 175.5 L 114.75 175.5 C 116.613281 175.5 118.125 173.988281 118.125 172.125 C 118.125 170.261719 116.613281 168.75 114.75 168.75 Z M 114.75 168.75 " fill-opacity="1" fill-rule="nonzero"/><path fill="#00b050" d="M 114.75 182.25 L 84.375 182.25 C 82.511719 182.25 81 183.761719 81 185.625 C 81 187.488281 82.511719 189 84.375 189 L 114.75 189 C 116.613281 189 118.125 187.488281 118.125 185.625 C 118.125 183.761719 116.613281 182.25 114.75 182.25 Z M 114.75 182.25 " fill-opacity="1" fill-rule="nonzero"/><path fill="#00b050" d="M 114.75 128.25 L 101.25 128.25 C 99.386719 128.25 97.875 129.761719 97.875 131.625 C 97.875 133.488281 99.386719 135 101.25 135 L 114.75 135 C 116.613281 135 118.125 133.488281 118.125 131.625 C 118.125 129.761719 116.613281 128.25 114.75 128.25 Z M 114.75 128.25 " fill-opacity="1" fill-rule="nonzero"/><path fill="#00b050" d="M 175.5 27 C 177.363281 27 178.875 25.488281 178.875 23.625 L 178.875 13.5 C 178.875 11.636719 177.363281 10.125 175.5 10.125 C 173.636719 10.125 172.125 11.636719 172.125 13.5 L 172.125 23.625 C 172.125 25.488281 173.636719 27 175.5 27 Z M 175.5 27 " fill-opacity="1" fill-rule="nonzero"/><path fill="#00b050" d="M 187.128906 29.808594 C 187.703125 30.191406 188.351562 30.375 188.996094 30.375 C 190.085938 30.375 191.15625 29.847656 191.808594 28.871094 L 198.558594 18.746094 C 199.59375 17.195312 199.171875 15.101562 197.621094 14.066406 C 196.070312 13.03125 193.976562 13.453125 192.941406 15.003906 L 186.191406 25.128906 C 185.15625 26.679688 185.578125 28.773438 187.128906 29.808594 Z M 187.128906 29.808594 " fill-opacity="1" fill-rule="nonzero"/><path fill="#00b050" d="M 159.191406 28.871094 C 159.84375 29.847656 160.914062 30.375 162.003906 30.375 C 162.648438 30.375 163.296875 30.191406 163.871094 29.808594 C 165.421875 28.773438 165.84375 26.679688 164.808594 25.128906 L 158.058594 15.003906 C 157.023438 13.453125 154.929688 13.03125 153.378906 14.066406 C 151.828125 15.101562 151.40625 17.195312 152.441406 18.746094 Z M 159.191406 28.871094 " fill-opacity="1" fill-rule="nonzero"/></svg>