<svg xmlns="http://www.w3.org/2000/svg" xmlns:xlink="http://www.w3.org/1999/xlink" width="270" zoomAndPan="magnify" viewBox="0 0 202.5 202.499993" height="270" preserveAspectRatio="xMidYMid meet" version="1.0"><defs><clipPath id="id1"><path d="M 0 0 L 202 0 L 202 202 L 0 202 Z M 0 0 " clip-rule="nonzero"/></clipPath></defs><g clip-path="url(#id1)"><path fill="#00b050" d="M 23.625 11.523438 L 23.625 20.25 C 23.625 22.109375 22.109375 23.625 20.25 23.625 L 11.523438 23.625 Z M 141.75 10.125 L 141.75 109.992188 C 136 111.703125 130.714844 114.5 126.113281 118.125 L 64.125 118.125 C 62.265625 118.125 60.75 119.640625 60.75 121.5 C 60.75 123.359375 62.265625 124.875 64.125 124.875 L 119.113281 124.875 C 117.347656 126.972656 115.777344 129.238281 114.394531 131.625 L 81 131.625 C 79.140625 131.625 77.625 133.140625 77.625 135 C 77.625 136.859375 79.140625 138.375 81 138.375 L 111.175781 138.375 C 110.332031 140.5625 109.621094 142.804688 109.121094 145.125 L 64.125 145.125 C 62.265625 145.125 60.75 146.640625 60.75 148.5 C 60.75 150.359375 62.265625 151.875 64.125 151.875 L 108.171875 151.875 C 108.09375 152.996094 108 154.101562 108 155.25 C 108 156.398438 108.09375 157.503906 108.171875 158.625 L 64.125 158.625 C 62.265625 158.625 60.75 160.140625 60.75 162 C 60.75 163.859375 62.265625 165.375 64.125 165.375 L 109.121094 165.375 C 111.125 174.523438 115.777344 182.671875 122.238281 189 L 10.125 189 C 8.265625 189 6.75 187.484375 6.75 185.625 L 6.75 30.375 L 20.25 30.375 C 25.839844 30.375 30.375 25.839844 30.375 20.25 L 30.375 6.75 L 138.375 6.75 C 140.234375 6.75 141.75 8.265625 141.75 10.125 Z M 195.75 155.25 C 195.75 177.582031 177.582031 195.75 155.25 195.75 C 132.917969 195.75 114.75 177.582031 114.75 155.25 C 114.75 132.917969 132.917969 114.75 155.25 114.75 C 177.582031 114.75 195.75 132.917969 195.75 155.25 Z M 10.125 195.75 L 131.042969 195.75 C 138.125 200.007812 146.390625 202.5 155.25 202.5 C 181.300781 202.5 202.5 181.300781 202.5 155.25 C 202.5 129.199219 181.300781 108 155.25 108 C 152.957031 108 150.714844 108.222656 148.5 108.539062 L 148.5 10.125 C 148.5 4.535156 143.964844 0 138.375 0 L 29.808594 0 C 27.09375 0 24.546875 1.054688 22.625 2.980469 L 2.980469 22.621094 C 1.054688 24.546875 0 27.09375 0 29.808594 L 0 185.625 C 0 191.214844 4.535156 195.75 10.125 195.75 " fill-opacity="1" fill-rule="nonzero"/></g><path fill="#00b050" d="M 111.375 97.875 L 111.375 91.125 L 121.5 91.125 L 121.5 97.875 Z M 27 64.125 L 37.125 64.125 L 37.125 97.875 L 27 97.875 Z M 111.375 70.875 L 111.375 64.125 L 121.5 64.125 L 121.5 70.875 Z M 111.375 77.625 L 121.5 77.625 L 121.5 84.375 L 111.375 84.375 Z M 94.5 84.375 L 94.5 77.625 L 104.625 77.625 L 104.625 84.375 Z M 94.5 91.125 L 104.625 91.125 L 104.625 97.875 L 94.5 97.875 Z M 77.625 91.125 L 87.75 91.125 L 87.75 97.875 L 77.625 97.875 Z M 60.75 91.125 L 70.875 91.125 L 70.875 97.875 L 60.75 97.875 Z M 43.875 91.125 L 54 91.125 L 54 97.875 L 43.875 97.875 Z M 70.875 70.875 L 60.75 70.875 L 60.75 64.125 L 70.875 64.125 Z M 77.625 77.625 L 87.75 77.625 L 87.75 84.375 L 77.625 84.375 Z M 60.75 77.625 L 70.875 77.625 L 70.875 84.375 L 60.75 84.375 Z M 43.875 77.625 L 54 77.625 L 54 84.375 L 43.875 84.375 Z M 87.75 70.875 L 77.625 70.875 L 77.625 64.125 L 87.75 64.125 Z M 104.625 64.125 L 104.625 70.875 L 94.5 70.875 L 94.5 64.125 Z M 54 64.125 L 54 70.875 L 43.875 70.875 L 43.875 64.125 Z M 121.5 47.25 L 121.5 57.375 L 27 57.375 L 27 47.25 Z M 27 40.5 C 23.28125 40.5 20.25 43.53125 20.25 47.25 L 20.25 97.875 C 20.25 101.59375 23.28125 104.625 27 104.625 L 121.5 104.625 C 125.21875 104.625 128.25 101.59375 128.25 97.875 L 128.25 47.25 C 128.25 43.53125 125.21875 40.5 121.5 40.5 L 27 40.5 " fill-opacity="1" fill-rule="nonzero"/><path fill="#00b050" d="M 43.875 162 C 43.875 166.390625 41.039062 170.109375 37.125 171.503906 L 37.125 152.496094 C 41.039062 153.890625 43.875 157.609375 43.875 162 Z M 23.625 135 C 23.625 130.609375 26.460938 126.890625 30.375 125.496094 L 30.375 144.503906 C 26.460938 143.109375 23.625 139.390625 23.625 135 Z M 43.875 135 C 43.875 136.859375 45.390625 138.375 47.25 138.375 C 49.109375 138.375 50.625 136.859375 50.625 135 C 50.625 126.851562 44.824219 120.035156 37.125 118.46875 L 37.125 118.125 C 37.125 116.265625 35.609375 114.75 33.75 114.75 C 31.890625 114.75 30.375 116.265625 30.375 118.125 L 30.375 118.46875 C 22.675781 120.035156 16.875 126.851562 16.875 135 C 16.875 143.148438 22.675781 149.964844 30.375 151.53125 L 30.375 171.503906 C 26.460938 170.109375 23.625 166.390625 23.625 162 C 23.625 160.140625 22.109375 158.625 20.25 158.625 C 18.390625 158.625 16.875 160.140625 16.875 162 C 16.875 170.148438 22.675781 176.964844 30.375 178.53125 L 30.375 178.875 C 30.375 180.734375 31.890625 182.25 33.75 182.25 C 35.609375 182.25 37.125 180.734375 37.125 178.875 L 37.125 178.53125 C 44.824219 176.964844 50.625 170.148438 50.625 162 C 50.625 153.851562 44.824219 147.035156 37.125 145.46875 L 37.125 125.496094 C 41.039062 126.890625 43.875 130.609375 43.875 135 " fill-opacity="1" fill-rule="nonzero"/><path fill="#00b050" d="M 64.125 138.375 L 67.5 138.375 C 69.359375 138.375 70.875 136.859375 70.875 135 C 70.875 133.140625 69.359375 131.625 67.5 131.625 L 64.125 131.625 C 62.265625 131.625 60.75 133.140625 60.75 135 C 60.75 136.859375 62.265625 138.375 64.125 138.375 " fill-opacity="1" fill-rule="nonzero"/><path fill="#00b050" d="M 64.125 178.875 L 94.5 178.875 C 96.359375 178.875 97.875 177.359375 97.875 175.5 C 97.875 173.640625 96.359375 172.125 94.5 172.125 L 64.125 172.125 C 62.265625 172.125 60.75 173.640625 60.75 175.5 C 60.75 177.359375 62.265625 178.875 64.125 178.875 " fill-opacity="1" fill-rule="nonzero"/><path fill="#00b050" d="M 146.113281 181.261719 C 146.746094 181.894531 147.601562 182.25 148.5 182.25 C 148.644531 182.25 148.789062 182.238281 148.933594 182.222656 C 149.964844 182.089844 150.886719 181.472656 151.414062 180.574219 L 175.039062 140.074219 C 175.972656 138.46875 175.433594 136.398438 173.824219 135.460938 C 172.21875 134.523438 170.148438 135.066406 169.210938 136.675781 L 147.789062 173.390625 L 140.761719 166.363281 C 139.441406 165.046875 137.308594 165.046875 135.988281 166.363281 C 134.671875 167.683594 134.671875 169.816406 135.988281 171.136719 L 146.113281 181.261719 " fill-opacity="1" fill-rule="nonzero"/></svg>