<svg xmlns="http://www.w3.org/2000/svg" xmlns:xlink="http://www.w3.org/1999/xlink" width="270" zoomAndPan="magnify" viewBox="0 0 202.5 202.499993" height="270" preserveAspectRatio="xMidYMid meet" version="1.0"><defs><clipPath id="id1"><path d="M 0 0 L 202 0 L 202 202 L 0 202 Z M 0 0 " clip-rule="nonzero"/></clipPath></defs><g clip-path="url(#id1)"><path fill="#00b050" d="M 119.273438 164.992188 C 118.257812 165.546875 117.015625 165.53125 116.09375 165.03125 L 105.824219 158.652344 L 130.492188 158.652344 Z M 194.324219 139.296875 L 122.289062 193.628906 C 119.71875 195.632812 116.304688 196.25 113.0625 195.289062 L 44.507812 176.738281 C 43.242188 176.355469 41.921875 176.160156 40.59375 176.160156 C 40.566406 176.160156 40.539062 176.160156 40.5 176.160156 L 40.5 140.113281 L 56.519531 133.195312 C 60.761719 131.664062 65.378906 131.253906 69.871094 131.96875 L 145.191406 144.148438 C 147.074219 144.453125 148.5 146.101562 148.5 148 C 148.5 148.488281 148.394531 149 148.210938 149.476562 C 148.011719 149.964844 147.722656 150.398438 147.390625 150.726562 C 146.628906 151.480469 145.625 151.902344 144.585938 151.902344 L 143.332031 151.902344 C 143.332031 151.902344 143.320312 151.902344 143.304688 151.902344 L 93.984375 151.902344 C 93.972656 151.902344 93.972656 151.914062 93.960938 151.914062 L 81.011719 151.875 C 81.011719 151.875 81 151.875 81 151.875 C 79.140625 151.875 77.636719 153.378906 77.625 155.238281 C 77.613281 157.109375 79.128906 158.613281 80.988281 158.625 L 93.035156 158.664062 L 112.667969 170.847656 C 114.234375 171.714844 115.949219 172.152344 117.664062 172.152344 C 119.351562 172.152344 121.039062 171.730469 122.566406 170.886719 C 122.582031 170.871094 122.582031 170.871094 122.582031 170.871094 L 144.226562 158.652344 L 144.585938 158.652344 C 147.390625 158.652344 150.070312 157.558594 152.136719 155.539062 C 152.8125 154.855469 153.351562 154.0625 153.824219 153.234375 L 189.9375 132.824219 C 191.808594 131.78125 194.195312 132.457031 195.261719 134.339844 C 195.589844 134.945312 195.75 135.59375 195.75 136.253906 C 195.75 137.453125 195.195312 138.613281 194.324219 139.296875 Z M 33.75 182.25 C 33.75 184.109375 32.234375 185.625 30.375 185.625 L 10.125 185.625 C 8.265625 185.625 6.75 184.109375 6.75 182.25 L 6.75 135 C 6.75 133.140625 8.265625 131.625 10.125 131.625 L 30.375 131.625 C 32.234375 131.625 33.75 133.140625 33.75 135 L 33.75 137.6875 C 33.75 137.769531 33.710938 137.835938 33.710938 137.914062 L 33.75 180.140625 Z M 97.992188 104.929688 C 97.902344 103.769531 97.875 102.648438 97.875 101.488281 C 97.875 100.65625 97.914062 99.785156 97.941406 98.996094 C 97.980469 98.113281 98.03125 97.242188 98.097656 96.4375 C 99.601562 80.671875 107.523438 62.765625 118.347656 50.769531 C 119.390625 49.570312 120.496094 48.410156 121.738281 47.25 L 168.511719 47.25 C 182.183594 60.183594 192.375 83.242188 192.375 101.488281 C 192.375 111.269531 189.355469 120.628906 183.671875 128.605469 L 154.800781 144.925781 C 153.65625 141.105469 150.425781 138.152344 146.273438 137.476562 L 108.777344 131.425781 C 102.449219 123.859375 98.707031 114.738281 97.992188 104.929688 Z M 118.125 33.75 L 172.125 33.75 C 173.984375 33.75 175.5 35.265625 175.5 37.125 C 175.5 38.984375 173.984375 40.5 172.125 40.5 L 118.125 40.5 C 116.265625 40.5 114.75 38.984375 114.75 37.125 C 114.75 35.265625 116.265625 33.75 118.125 33.75 Z M 121.722656 10.480469 C 125.875 9.175781 134.972656 6.75 145.125 6.75 C 155.316406 6.75 164.4375 9.1875 168.527344 10.480469 L 163.277344 27 L 126.972656 27 Z M 201.15625 131.070312 C 199.46875 128.039062 196.515625 126.191406 193.3125 125.746094 C 197.132812 118.257812 199.125 110.003906 199.125 101.488281 C 199.125 82.898438 189.949219 60.65625 176.753906 46.078125 C 180.007812 44.390625 182.25 41.027344 182.25 37.125 C 182.25 31.535156 177.714844 27 172.125 27 L 170.359375 27 L 175.25 11.613281 C 176.144531 8.582031 174.511719 5.390625 171.480469 4.335938 C 166.546875 2.714844 156.566406 0 145.125 0 C 133.679688 0 123.703125 2.714844 118.703125 4.351562 C 115.738281 5.390625 114.105469 8.582031 115.011719 11.695312 L 119.890625 27 L 118.125 27 C 112.535156 27 108 31.535156 108 37.125 C 108 41.027344 110.242188 44.390625 113.496094 46.078125 C 113.429688 46.15625 113.351562 46.234375 113.285156 46.300781 C 101.605469 59.246094 92.996094 78.679688 91.375 95.871094 C 91.296875 96.820312 91.230469 97.769531 91.191406 98.71875 C 91.164062 99.613281 91.125 100.5625 91.125 101.488281 C 91.125 102.832031 91.164062 104.125 91.269531 105.441406 C 91.902344 114.222656 94.644531 122.527344 99.285156 129.882812 L 70.941406 125.308594 C 65.324219 124.398438 59.550781 124.941406 54.050781 126.917969 L 40.261719 132.863281 C 39.285156 128.300781 35.226562 124.875 30.375 124.875 L 10.125 124.875 C 4.535156 124.875 0 129.410156 0 135 L 0 182.25 C 0 187.839844 4.535156 192.375 10.125 192.375 L 30.375 192.375 C 35.726562 192.375 40.078125 188.183594 40.433594 182.921875 C 41.160156 182.910156 41.898438 183 42.621094 183.226562 L 111.214844 201.789062 C 112.8125 202.261719 114.460938 202.488281 116.082031 202.488281 C 119.785156 202.488281 123.4375 201.285156 126.402344 198.980469 L 198.453125 144.636719 C 200.984375 142.632812 202.5 139.496094 202.5 136.253906 C 202.5 134.472656 202.039062 132.691406 201.179688 131.097656 C 201.167969 131.097656 201.167969 131.085938 201.15625 131.070312 " fill-opacity="1" fill-rule="nonzero"/></g><path fill="#00b050" d="M 23.625 138.375 L 16.875 138.375 C 15.015625 138.375 13.5 139.890625 13.5 141.75 C 13.5 143.609375 15.015625 145.125 16.875 145.125 L 23.625 145.125 C 25.484375 145.125 27 143.609375 27 141.75 C 27 139.890625 25.484375 138.375 23.625 138.375 " fill-opacity="1" fill-rule="nonzero"/><path fill="#00b050" d="M 23.625 172.125 L 16.875 172.125 C 15.015625 172.125 13.5 173.640625 13.5 175.5 C 13.5 177.359375 15.015625 178.875 16.875 178.875 L 23.625 178.875 C 25.484375 178.875 27 177.359375 27 175.5 C 27 173.640625 25.484375 172.125 23.625 172.125 " fill-opacity="1" fill-rule="nonzero"/><path fill="#00b050" d="M 135 77.625 C 135 73.234375 137.835938 69.515625 141.75 68.121094 L 141.75 87.128906 C 137.835938 85.734375 135 82.015625 135 77.625 Z M 155.25 104.625 C 155.25 109.015625 152.414062 112.734375 148.5 114.128906 L 148.5 95.121094 C 152.414062 96.515625 155.25 100.234375 155.25 104.625 Z M 148.5 121.5 L 148.5 121.15625 C 156.199219 119.589844 162 112.773438 162 104.625 C 162 96.476562 156.199219 89.660156 148.5 88.09375 L 148.5 68.121094 C 152.414062 69.515625 155.25 73.234375 155.25 77.625 C 155.25 79.484375 156.765625 81 158.625 81 C 160.484375 81 162 79.484375 162 77.625 C 162 69.476562 156.199219 62.660156 148.5 61.09375 L 148.5 60.75 C 148.5 58.890625 146.984375 57.375 145.125 57.375 C 143.265625 57.375 141.75 58.890625 141.75 60.75 L 141.75 61.09375 C 134.050781 62.660156 128.25 69.476562 128.25 77.625 C 128.25 85.773438 134.050781 92.589844 141.75 94.15625 L 141.75 114.128906 C 137.835938 112.734375 135 109.015625 135 104.625 C 135 102.765625 133.484375 101.25 131.625 101.25 C 129.765625 101.25 128.25 102.765625 128.25 104.625 C 128.25 112.773438 134.050781 119.589844 141.75 121.15625 L 141.75 121.5 C 141.75 123.359375 143.265625 124.875 145.125 124.875 C 146.984375 124.875 148.5 123.359375 148.5 121.5 " fill-opacity="1" fill-rule="nonzero"/></svg>