<svg xmlns="http://www.w3.org/2000/svg" xmlns:xlink="http://www.w3.org/1999/xlink" width="270" zoomAndPan="magnify" viewBox="0 0 202.5 202.499993" height="270" preserveAspectRatio="xMidYMid meet" version="1.0"><defs><clipPath id="id1"><path d="M 0 0 L 202 0 L 202 202 L 0 202 Z M 0 0 " clip-rule="nonzero"/></clipPath><clipPath id="id2"><path d="M 2 1.773438 L 162 1.773438 L 162 200.523438 L 2 200.523438 Z M 2 1.773438 " clip-rule="nonzero"/></clipPath><clipPath id="id3"><path d="M 151 127 L 202 127 L 202 200.523438 L 151 200.523438 Z M 151 127 " clip-rule="nonzero"/></clipPath></defs><g clip-path="url(#id1)"><path fill="#ffffff" d="M 0 0 L 202.5 0 L 202.5 202.5 L 0 202.5 Z M 0 0 " fill-opacity="1" fill-rule="nonzero"/><path fill="#ffffff" d="M 0 0 L 202.5 0 L 202.5 202.5 L 0 202.5 Z M 0 0 " fill-opacity="1" fill-rule="nonzero"/><path fill="#ffffff" d="M 0 0 L 202.5 0 L 202.5 202.5 L 0 202.5 Z M 0 0 " fill-opacity="1" fill-rule="nonzero"/></g><g clip-path="url(#id2)"><path fill="#00b050" d="M 42.796875 36.683594 C 45.050781 37.265625 47.496094 36.980469 49.726562 35.90625 C 56.796875 32.347656 64.398438 30.003906 72.238281 28.96875 L 72.238281 41.121094 C 72.238281 46.140625 75.785156 50.527344 80.5 51.316406 C 83.386719 51.808594 86.355469 51.007812 88.59375 49.105469 C 90.835938 47.214844 92.132812 44.445312 92.132812 41.523438 L 92.09375 35.066406 C 92.09375 35.011719 92.132812 34.960938 92.132812 34.898438 L 92.132812 28.957031 C 100.007812 30.019531 107.582031 32.359375 114.683594 35.917969 C 116.871094 36.980469 119.320312 37.265625 121.546875 36.683594 L 155.132812 28.257812 L 146.714844 61.796875 C 146.128906 64.050781 146.402344 66.496094 147.488281 68.707031 C 152.488281 78.695312 155.132812 89.914062 155.132812 101.148438 C 155.132812 121.628906 146.414062 141.296875 131.207031 155.089844 C 123.542969 162.054688 114.746094 167.164062 105.277344 170.320312 C 105.1875 170.347656 105.082031 170.335938 105.007812 170.359375 C 104.941406 170.386719 104.914062 170.4375 104.863281 170.449219 C 95.394531 173.542969 85.28125 174.667969 74.945312 173.671875 C 42.421875 170.527344 15.15625 144.882812 10.128906 112.703125 C 7.785156 97.460938 10.117188 82.242188 16.890625 68.683594 C 17.953125 66.496094 18.226562 64.0625 17.65625 61.824219 L 9.222656 28.273438 Z M 78.867188 8.398438 L 85.5 8.398438 L 85.5 41.523438 C 85.5 42.492188 85.058594 43.410156 84.320312 44.058594 C 83.878906 44.421875 82.933594 45.015625 81.601562 44.78125 C 80.074219 44.523438 78.867188 42.917969 78.867188 41.121094 Z M 128.605469 193.898438 L 122.167969 193.898438 C 119.410156 193.898438 116.972656 192.226562 115.988281 189.652344 L 110.523438 175.484375 C 119.488281 172.066406 127.839844 166.984375 135.238281 160.359375 L 135.238281 187.273438 C 135.238281 190.921875 132.257812 193.898438 128.605469 193.898438 Z M 48.339844 189.613281 C 47.382812 192.175781 44.882812 193.898438 42.121094 193.898438 L 35.761719 193.898438 C 32.109375 193.898438 29.132812 190.921875 29.132812 187.273438 L 29.132812 160.472656 C 36.28125 166.851562 44.570312 171.9375 53.6875 175.40625 Z M 11.230469 63.441406 C 11.410156 64.179688 11.308594 65.007812 10.945312 65.746094 C 3.5625 80.519531 1.011719 97.109375 3.574219 113.710938 C 5.972656 129.058594 12.734375 142.835938 22.5 153.863281 L 22.5 187.273438 C 22.5 194.582031 28.445312 200.523438 35.761719 200.523438 L 42.121094 200.523438 C 47.628906 200.523438 52.625 197.078125 54.542969 191.941406 L 59.984375 177.503906 C 64.609375 178.824219 69.386719 179.792969 74.308594 180.273438 C 76.976562 180.515625 79.644531 180.648438 82.289062 180.648438 C 89.8125 180.648438 97.171875 179.613281 104.230469 177.582031 L 109.796875 192.046875 C 111.792969 197.195312 116.652344 200.523438 122.167969 200.523438 L 128.605469 200.523438 C 135.921875 200.523438 141.867188 194.582031 141.867188 187.273438 L 141.867188 153.695312 C 154.601562 139.253906 161.765625 120.542969 161.765625 101.148438 C 161.765625 88.894531 158.875 76.652344 153.433594 65.769531 C 153.058594 64.992188 152.957031 64.179688 153.136719 63.429688 L 161.570312 29.863281 C 162.125 27.585938 161.480469 25.242188 159.820312 23.585938 C 158.164062 21.929688 155.820312 21.273438 153.527344 21.839844 L 119.925781 30.265625 C 119.1875 30.445312 118.359375 30.34375 117.636719 29.980469 C 109.875 26.097656 101.574219 23.535156 92.949219 22.371094 C 92.675781 22.34375 92.402344 22.359375 92.132812 22.359375 L 92.132812 8.398438 C 92.132812 4.746094 89.152344 1.773438 85.5 1.773438 L 78.867188 1.773438 C 75.214844 1.773438 72.238281 4.746094 72.238281 8.398438 L 72.238281 22.359375 C 71.964844 22.359375 71.691406 22.34375 71.421875 22.371094 C 62.792969 23.535156 54.492188 26.097656 46.773438 29.96875 C 45.996094 30.355469 45.179688 30.445312 44.425781 30.265625 L 10.828125 21.839844 C 8.5625 21.285156 6.207031 21.929688 4.546875 23.585938 C 2.890625 25.242188 2.242188 27.585938 2.8125 29.875 L 11.230469 63.441406 " fill-opacity="1" fill-rule="nonzero"/></g><path fill="#00b050" d="M 82.183594 94.523438 C 102.300781 94.523438 118.65625 106.414062 118.65625 121.023438 C 118.65625 135.628906 102.300781 147.523438 82.183594 147.523438 C 62.070312 147.523438 45.710938 135.628906 45.710938 121.023438 C 45.710938 106.414062 62.070312 94.523438 82.183594 94.523438 Z M 39.078125 121.023438 C 39.078125 139.292969 58.417969 154.148438 82.183594 154.148438 C 105.953125 154.148438 125.289062 139.292969 125.289062 121.023438 C 125.289062 102.75 105.953125 87.898438 82.183594 87.898438 C 58.417969 87.898438 39.078125 102.75 39.078125 121.023438 " fill-opacity="1" fill-rule="nonzero"/><path fill="#00b050" d="M 68.921875 114.398438 C 70.269531 114.398438 72.238281 116.984375 72.238281 121.023438 C 72.238281 125.058594 70.269531 127.648438 68.921875 127.648438 C 67.574219 127.648438 65.605469 125.058594 65.605469 121.023438 C 65.605469 116.984375 67.574219 114.398438 68.921875 114.398438 Z M 68.921875 134.273438 C 74.503906 134.273438 78.867188 128.449219 78.867188 121.023438 C 78.867188 113.59375 74.503906 107.773438 68.921875 107.773438 C 63.339844 107.773438 58.972656 113.59375 58.972656 121.023438 C 58.972656 128.449219 63.339844 134.273438 68.921875 134.273438 " fill-opacity="1" fill-rule="nonzero"/><path fill="#00b050" d="M 95.449219 114.398438 C 96.792969 114.398438 98.761719 116.984375 98.761719 121.023438 C 98.761719 125.058594 96.792969 127.648438 95.449219 127.648438 C 94.101562 127.648438 92.132812 125.058594 92.132812 121.023438 C 92.132812 116.984375 94.101562 114.398438 95.449219 114.398438 Z M 95.449219 134.273438 C 101.03125 134.273438 105.394531 128.449219 105.394531 121.023438 C 105.394531 113.59375 101.03125 107.773438 95.449219 107.773438 C 89.863281 107.773438 85.5 113.59375 85.5 121.023438 C 85.5 128.449219 89.863281 134.273438 95.449219 134.273438 " fill-opacity="1" fill-rule="nonzero"/><path fill="#00b050" d="M 52.339844 68.023438 C 55.996094 68.023438 58.972656 70.996094 58.972656 74.648438 C 58.972656 78.296875 55.996094 81.273438 52.339844 81.273438 C 48.6875 81.273438 45.710938 78.296875 45.710938 74.648438 C 45.710938 70.996094 48.6875 68.023438 52.339844 68.023438 Z M 52.339844 87.898438 C 59.660156 87.898438 65.605469 81.957031 65.605469 74.648438 C 65.605469 67.335938 59.660156 61.398438 52.339844 61.398438 C 45.023438 61.398438 39.078125 67.335938 39.078125 74.648438 C 39.078125 81.957031 45.023438 87.898438 52.339844 87.898438 " fill-opacity="1" fill-rule="nonzero"/><path fill="#00b050" d="M 112.027344 68.023438 C 115.679688 68.023438 118.65625 70.996094 118.65625 74.648438 C 118.65625 78.296875 115.679688 81.273438 112.027344 81.273438 C 108.375 81.273438 105.394531 78.296875 105.394531 74.648438 C 105.394531 70.996094 108.375 68.023438 112.027344 68.023438 Z M 112.027344 87.898438 C 119.34375 87.898438 125.289062 81.957031 125.289062 74.648438 C 125.289062 67.335938 119.34375 61.398438 112.027344 61.398438 C 104.707031 61.398438 98.761719 67.335938 98.761719 74.648438 C 98.761719 81.957031 104.707031 87.898438 112.027344 87.898438 " fill-opacity="1" fill-rule="nonzero"/><g clip-path="url(#id3)"><path fill="#00b050" d="M 184.972656 154.148438 L 165.078125 154.148438 L 165.078125 147.523438 L 191.605469 147.523438 L 191.617188 154.148438 Z M 184.988281 167.398438 L 158.449219 167.398438 L 158.449219 160.773438 L 184.972656 160.773438 Z M 194.921875 174.023438 L 194.933594 180.648438 L 168.394531 180.648438 L 168.394531 174.023438 Z M 184.988281 193.898438 L 158.449219 193.898438 L 158.449219 187.273438 L 184.972656 187.273438 Z M 168.394531 134.273438 L 194.921875 134.273438 L 194.933594 140.898438 L 168.394531 140.898438 Z M 194.921875 127.648438 L 168.394531 127.648438 C 164.742188 127.648438 161.765625 130.621094 161.765625 134.273438 L 161.765625 140.898438 C 161.765625 141.195312 161.816406 141.480469 161.855469 141.777344 C 159.832031 142.902344 158.449219 145.050781 158.449219 147.523438 L 158.449219 154.148438 C 154.796875 154.148438 151.816406 157.121094 151.816406 160.773438 L 151.816406 167.398438 C 151.816406 171.046875 154.796875 174.023438 158.449219 174.023438 L 161.765625 174.023438 L 161.765625 180.648438 L 158.449219 180.648438 C 154.796875 180.648438 151.816406 183.621094 151.816406 187.273438 L 151.816406 193.898438 C 151.816406 197.546875 154.796875 200.523438 158.449219 200.523438 L 184.972656 200.523438 C 188.628906 200.523438 191.605469 197.546875 191.605469 193.898438 L 191.605469 187.273438 L 194.921875 187.273438 C 198.574219 187.273438 201.554688 184.296875 201.554688 180.648438 L 201.554688 174.023438 C 201.554688 170.371094 198.574219 167.398438 194.921875 167.398438 L 191.605469 167.398438 L 191.605469 160.773438 C 195.257812 160.773438 198.238281 157.796875 198.238281 154.148438 L 198.238281 147.523438 C 198.238281 147.222656 198.1875 146.941406 198.148438 146.640625 C 200.167969 145.515625 201.554688 143.367188 201.554688 140.898438 L 201.554688 134.273438 C 201.554688 130.621094 198.574219 127.648438 194.921875 127.648438 " fill-opacity="1" fill-rule="nonzero"/></g><path fill="#00b050" d="M 21.59375 55.847656 C 21.980469 57.347656 23.316406 58.332031 24.792969 58.332031 C 25.0625 58.332031 25.347656 58.304688 25.632812 58.226562 C 27.394531 57.773438 28.46875 55.960938 28.015625 54.191406 L 25.839844 45.792969 C 25.75 45.441406 25.90625 45.195312 26.046875 45.066406 C 26.191406 44.925781 26.425781 44.769531 26.746094 44.859375 L 35.179688 47.019531 C 36.953125 47.488281 38.765625 46.414062 39.222656 44.652344 C 39.675781 42.867188 38.613281 41.070312 36.835938 40.601562 L 28.394531 38.441406 C 25.839844 37.796875 23.210938 38.519531 21.359375 40.382812 C 19.496094 42.234375 18.769531 44.859375 19.417969 47.421875 L 21.59375 55.847656 " fill-opacity="1" fill-rule="nonzero"/><path fill="#00b050" d="M 129.1875 47.019531 L 137.59375 44.859375 C 137.96875 44.78125 138.191406 44.925781 138.320312 45.066406 C 138.460938 45.195312 138.617188 45.441406 138.527344 45.765625 L 136.363281 54.191406 C 135.898438 55.960938 136.972656 57.773438 138.734375 58.226562 C 139.019531 58.304688 139.292969 58.332031 139.578125 58.332031 C 141.054688 58.332031 142.386719 57.347656 142.789062 55.847656 L 144.953125 47.410156 C 145.597656 44.859375 144.875 42.234375 143.007812 40.382812 C 141.15625 38.519531 138.527344 37.808594 135.960938 38.441406 L 127.53125 40.601562 C 125.757812 41.070312 124.695312 42.867188 125.148438 44.652344 C 125.613281 46.425781 127.425781 47.488281 129.1875 47.019531 " fill-opacity="1" fill-rule="nonzero"/></svg>