<svg xmlns="http://www.w3.org/2000/svg" xmlns:xlink="http://www.w3.org/1999/xlink" width="270" zoomAndPan="magnify" viewBox="0 0 202.5 202.499993" height="270" preserveAspectRatio="xMidYMid meet" version="1.0"><defs><clipPath id="id1"><path d="M 0 0 L 202 0 L 202 202 L 0 202 Z M 0 0 " clip-rule="nonzero"/></clipPath></defs><g clip-path="url(#id1)"><path fill="#ffffff" d="M 0 0 L 202.5 0 L 202.5 202.5 L 0 202.5 Z M 0 0 " fill-opacity="1" fill-rule="nonzero"/><path fill="#ffffff" d="M 0 0 L 202.5 0 L 202.5 202.5 L 0 202.5 Z M 0 0 " fill-opacity="1" fill-rule="nonzero"/><path fill="#ffffff" d="M 0 0 L 202.5 0 L 202.5 202.5 L 0 202.5 Z M 0 0 " fill-opacity="1" fill-rule="nonzero"/><path fill="#00b050" d="M 195.4375 165.160156 C 195.4375 167.015625 193.925781 168.527344 192.070312 168.527344 L 188.707031 168.527344 C 185.003906 168.527344 181.980469 171.546875 181.980469 175.253906 L 181.980469 195.4375 L 148.816406 170.5625 C 147.09375 169.25 144.925781 168.527344 142.730469 168.527344 L 115.046875 168.527344 C 119.09375 160.40625 121.433594 151.285156 121.433594 141.617188 C 121.433594 127.242188 116.375 114.035156 107.976562 103.640625 L 107.976562 91.160156 C 107.976562 89.304688 109.488281 87.792969 111.339844 87.792969 L 192.070312 87.792969 C 193.925781 87.792969 195.4375 89.304688 195.4375 91.160156 Z M 100.394531 7.167969 C 100.949219 7.023438 101.539062 7.023438 102.089844 7.167969 L 175.253906 26.328125 L 175.253906 41.84375 L 154.769531 52.199219 C 151.796875 42.015625 125.664062 37.339844 101.25 37.339844 C 76.835938 37.339844 50.703125 42.015625 47.730469 52.199219 L 7.117188 31.660156 Z M 181.980469 38.441406 L 181.980469 28.101562 L 195.460938 31.621094 Z M 54.15625 75.707031 L 54.15625 54.15625 C 54.15625 51.136719 70.175781 44.066406 101.25 44.066406 C 132.324219 44.066406 148.34375 51.136719 148.34375 54.15625 L 148.34375 75.707031 C 138.515625 70.1875 119.394531 67.613281 101.25 67.613281 C 83.105469 67.613281 63.984375 70.1875 54.15625 75.707031 Z M 101.25 91.160156 L 101.25 96.613281 C 90.527344 86.980469 76.402344 81.066406 60.882812 81.066406 C 59.871094 81.066406 58.886719 81.171875 57.875 81.210938 C 64.234375 78.03125 78.792969 74.339844 101.25 74.339844 C 123.351562 74.339844 137.792969 77.914062 144.308594 81.066406 L 111.339844 81.066406 C 105.769531 81.066406 101.25 85.585938 101.25 91.160156 Z M 107.808594 138.25 C 107.058594 127.804688 102.90625 118.292969 96.441406 110.816406 L 101.183594 106.074219 C 108.871094 114.769531 113.773438 125.953125 114.535156 138.25 Z M 64.25 188.539062 C 74.695312 187.800781 84.207031 183.636719 91.683594 177.171875 L 96.425781 181.914062 C 87.730469 189.601562 76.546875 194.503906 64.25 195.265625 Z M 30.085938 177.171875 C 37.5625 183.636719 47.074219 187.800781 57.519531 188.539062 L 57.519531 195.265625 C 45.222656 194.503906 34.039062 189.601562 25.339844 181.914062 Z M 50.949219 88.753906 C 50.964844 88.753906 50.992188 88.753906 51.003906 88.753906 C 51.34375 88.753906 51.6875 88.703125 52.015625 88.597656 C 52.027344 88.597656 52.027344 88.582031 52.027344 88.582031 C 53.839844 88.292969 55.667969 88.082031 57.519531 87.964844 L 57.519531 94.691406 C 47.074219 95.441406 37.5625 99.59375 30.085938 106.058594 L 25.339844 101.316406 C 32.464844 95.023438 41.242188 90.582031 50.949219 88.753906 Z M 60.882812 181.980469 C 38.625 181.980469 20.519531 163.875 20.519531 141.617188 C 20.519531 119.355469 38.625 101.25 60.882812 101.25 C 83.144531 101.25 101.25 119.355469 101.25 141.617188 C 101.25 163.875 83.144531 181.980469 60.882812 181.980469 Z M 96.425781 101.316406 L 91.683594 106.058594 C 84.207031 99.59375 74.695312 95.441406 64.25 94.691406 L 64.25 87.964844 C 76.546875 88.726562 87.730469 93.628906 96.425781 101.316406 Z M 20.585938 106.074219 L 25.328125 110.816406 C 18.863281 118.292969 14.699219 127.804688 13.960938 138.25 L 7.234375 138.25 C 7.996094 125.953125 12.898438 114.769531 20.585938 106.074219 Z M 7.234375 144.980469 L 13.960938 144.980469 C 14.699219 155.425781 18.863281 164.9375 25.328125 172.414062 L 20.585938 177.160156 C 12.898438 168.460938 7.996094 157.277344 7.234375 144.980469 Z M 101.183594 177.160156 L 96.441406 172.414062 C 102.90625 164.9375 107.058594 155.425781 107.808594 144.980469 L 114.535156 144.980469 C 113.773438 157.277344 108.871094 168.460938 101.183594 177.160156 Z M 178.617188 67.613281 C 176.765625 67.613281 175.253906 66.101562 175.253906 64.25 C 175.253906 62.394531 176.765625 60.882812 178.617188 60.882812 C 180.46875 60.882812 181.980469 62.394531 181.980469 64.25 C 181.980469 66.101562 180.46875 67.613281 178.617188 67.613281 Z M 192.070312 81.066406 L 155.070312 81.066406 L 155.070312 59.582031 L 175.253906 49.386719 L 175.253906 54.773438 C 171.351562 56.167969 168.527344 59.871094 168.527344 64.25 C 168.527344 69.820312 173.046875 74.339844 178.617188 74.339844 C 184.1875 74.339844 188.707031 69.820312 188.707031 64.25 C 188.707031 59.871094 185.882812 56.167969 181.980469 54.773438 L 181.980469 45.984375 L 198.523438 37.613281 C 201.019531 36.3125 202.441406 33.683594 202.125 30.914062 C 201.808594 28.128906 199.824219 25.867188 197.089844 25.15625 L 103.785156 0.664062 C 102.128906 0.230469 100.371094 0.230469 98.699219 0.664062 L 5.410156 25.15625 C 2.664062 25.867188 0.691406 28.128906 0.375 30.914062 C 0.0742188 33.683594 1.480469 36.3125 4.015625 37.628906 L 47.429688 59.582031 L 47.429688 82.632812 C 36.195312 85.191406 26.128906 90.84375 18.21875 98.699219 C 18.179688 98.742188 18.113281 98.765625 18.074219 98.804688 C 18.035156 98.84375 18.007812 98.910156 17.96875 98.949219 C 7.078125 109.910156 0.335938 124.980469 0.335938 141.617188 C 0.335938 158.25 7.078125 173.320312 17.96875 184.28125 C 18.007812 184.320312 18.035156 184.386719 18.074219 184.425781 C 18.113281 184.464844 18.179688 184.492188 18.21875 184.53125 C 29.179688 195.421875 44.25 202.164062 60.882812 202.164062 C 77.519531 202.164062 92.589844 195.421875 103.550781 184.53125 C 103.589844 184.492188 103.65625 184.464844 103.695312 184.425781 C 103.734375 184.386719 103.757812 184.320312 103.800781 184.28125 C 106.546875 181.519531 109.015625 178.5 111.195312 175.253906 L 142.730469 175.253906 C 143.46875 175.253906 144.164062 175.476562 144.742188 175.921875 L 177.960938 200.824219 C 179.144531 201.703125 180.546875 202.164062 181.96875 202.164062 C 182.992188 202.164062 184.03125 201.925781 185.003906 201.441406 C 187.289062 200.285156 188.707031 197.984375 188.707031 195.4375 L 188.707031 175.253906 L 192.070312 175.253906 C 197.644531 175.253906 202.164062 170.734375 202.164062 165.160156 L 202.164062 91.160156 C 202.164062 85.585938 197.644531 81.066406 192.070312 81.066406 " fill-opacity="1" fill-rule="nonzero"/></g><path fill="#00b050" d="M 70.976562 155.070312 C 70.976562 159.445312 68.152344 163.152344 64.25 164.542969 L 64.25 145.597656 C 68.152344 146.988281 70.976562 150.695312 70.976562 155.070312 Z M 50.792969 128.160156 C 50.792969 123.785156 53.617188 120.078125 57.519531 118.6875 L 57.519531 137.632812 C 53.617188 136.242188 50.792969 132.535156 50.792969 128.160156 Z M 70.976562 128.160156 C 70.976562 130.011719 72.488281 131.523438 74.339844 131.523438 C 76.191406 131.523438 77.703125 130.011719 77.703125 128.160156 C 77.703125 120.039062 71.921875 113.246094 64.25 111.683594 L 64.25 111.339844 C 64.25 109.488281 62.738281 107.976562 60.882812 107.976562 C 59.03125 107.976562 57.519531 109.488281 57.519531 111.339844 L 57.519531 111.683594 C 49.847656 113.246094 44.066406 120.039062 44.066406 128.160156 C 44.066406 136.28125 49.847656 143.074219 57.519531 144.636719 L 57.519531 164.542969 C 53.617188 163.152344 50.792969 159.445312 50.792969 155.070312 C 50.792969 153.21875 49.28125 151.707031 47.429688 151.707031 C 45.578125 151.707031 44.066406 153.21875 44.066406 155.070312 C 44.066406 163.191406 49.847656 169.984375 57.519531 171.546875 L 57.519531 171.890625 C 57.519531 173.742188 59.03125 175.253906 60.882812 175.253906 C 62.738281 175.253906 64.25 173.742188 64.25 171.890625 L 64.25 171.546875 C 71.921875 169.984375 77.703125 163.191406 77.703125 155.070312 C 77.703125 146.949219 71.921875 140.15625 64.25 138.59375 L 64.25 118.6875 C 68.152344 120.078125 70.976562 123.785156 70.976562 128.160156 " fill-opacity="1" fill-rule="nonzero"/><path fill="#00b050" d="M 181.980469 97.886719 L 121.433594 97.886719 C 119.578125 97.886719 118.070312 99.398438 118.070312 101.25 C 118.070312 103.101562 119.578125 104.613281 121.433594 104.613281 L 181.980469 104.613281 C 183.832031 104.613281 185.34375 103.101562 185.34375 101.25 C 185.34375 99.398438 183.832031 97.886719 181.980469 97.886719 " fill-opacity="1" fill-rule="nonzero"/><path fill="#00b050" d="M 181.980469 124.796875 L 131.523438 124.796875 C 129.671875 124.796875 128.160156 126.308594 128.160156 128.160156 C 128.160156 130.011719 129.671875 131.523438 131.523438 131.523438 L 181.980469 131.523438 C 183.832031 131.523438 185.34375 130.011719 185.34375 128.160156 C 185.34375 126.308594 183.832031 124.796875 181.980469 124.796875 " fill-opacity="1" fill-rule="nonzero"/><path fill="#00b050" d="M 161.796875 151.707031 L 131.523438 151.707031 C 129.671875 151.707031 128.160156 153.21875 128.160156 155.070312 C 128.160156 156.921875 129.671875 158.433594 131.523438 158.433594 L 161.796875 158.433594 C 163.652344 158.433594 165.160156 156.921875 165.160156 155.070312 C 165.160156 153.21875 163.652344 151.707031 161.796875 151.707031 " fill-opacity="1" fill-rule="nonzero"/><path fill="#00b050" d="M 181.980469 111.339844 L 178.617188 111.339844 C 176.765625 111.339844 175.253906 112.851562 175.253906 114.707031 C 175.253906 116.558594 176.765625 118.070312 178.617188 118.070312 L 181.980469 118.070312 C 183.832031 118.070312 185.34375 116.558594 185.34375 114.707031 C 185.34375 112.851562 183.832031 111.339844 181.980469 111.339844 " fill-opacity="1" fill-rule="nonzero"/><path fill="#00b050" d="M 165.160156 118.070312 C 167.015625 118.070312 168.527344 116.558594 168.527344 114.707031 C 168.527344 112.851562 167.015625 111.339844 165.160156 111.339844 L 128.160156 111.339844 C 126.308594 111.339844 124.796875 112.851562 124.796875 114.707031 C 124.796875 116.558594 126.308594 118.070312 128.160156 118.070312 L 165.160156 118.070312 " fill-opacity="1" fill-rule="nonzero"/><path fill="#00b050" d="M 131.523438 144.980469 L 134.886719 144.980469 C 136.742188 144.980469 138.25 143.46875 138.25 141.617188 C 138.25 139.761719 136.742188 138.25 134.886719 138.25 L 131.523438 138.25 C 129.671875 138.25 128.160156 139.761719 128.160156 141.617188 C 128.160156 143.46875 129.671875 144.980469 131.523438 144.980469 " fill-opacity="1" fill-rule="nonzero"/><path fill="#00b050" d="M 181.980469 138.25 L 148.34375 138.25 C 146.492188 138.25 144.980469 139.761719 144.980469 141.617188 C 144.980469 143.46875 146.492188 144.980469 148.34375 144.980469 L 181.980469 144.980469 C 183.832031 144.980469 185.34375 143.46875 185.34375 141.617188 C 185.34375 139.761719 183.832031 138.25 181.980469 138.25 " fill-opacity="1" fill-rule="nonzero"/></svg>