<svg xmlns="http://www.w3.org/2000/svg" xmlns:xlink="http://www.w3.org/1999/xlink" width="270" zoomAndPan="magnify" viewBox="0 0 202.5 202.499993" height="270" preserveAspectRatio="xMidYMid meet" version="1.0"><defs><clipPath id="id1"><path d="M 0 0 L 202 0 L 202 202 L 0 202 Z M 0 0 " clip-rule="nonzero"/></clipPath></defs><g clip-path="url(#id1)"><path fill="#ffffff" d="M 0 0 L 202.5 0 L 202.5 202.5 L 0 202.5 Z M 0 0 " fill-opacity="1" fill-rule="nonzero"/><path fill="#ffffff" d="M 0 0 L 202.5 0 L 202.5 202.5 L 0 202.5 Z M 0 0 " fill-opacity="1" fill-rule="nonzero"/><path fill="#ffffff" d="M 0 0 L 202.5 0 L 202.5 202.5 L 0 202.5 Z M 0 0 " fill-opacity="1" fill-rule="nonzero"/></g><path fill="#00b050" d="M 47.703125 71.960938 C 47.6875 71.949219 47.675781 71.9375 47.664062 71.910156 L 28.917969 53.164062 C 27.621094 51.871094 25.523438 51.871094 24.230469 53.164062 C 22.9375 54.460938 22.9375 56.570312 24.230469 57.851562 L 40.632812 74.265625 L 38.304688 76.597656 C 37.007812 77.890625 34.910156 77.890625 33.601562 76.597656 L 12.5 55.535156 C 7.347656 50.355469 7.347656 41.925781 12.488281 36.75 L 35.921875 13.328125 C 41.097656 8.175781 49.527344 8.175781 54.707031 13.316406 L 90.308594 48.945312 C 90.320312 48.945312 90.320312 48.957031 90.332031 48.957031 C 91.628906 50.253906 91.847656 52.386719 90.773438 53.65625 C 90.125 54.433594 89.234375 54.859375 88.25 54.859375 C 87.613281 54.859375 86.695312 54.691406 85.917969 53.929688 C 85.90625 53.914062 85.90625 53.902344 85.894531 53.890625 L 71.109375 39.105469 C 69.8125 37.8125 67.714844 37.8125 66.421875 39.105469 C 65.128906 40.398438 65.128906 42.496094 66.421875 43.792969 L 85.621094 62.976562 C 86.953125 64.324219 87.175781 66.460938 86.101562 67.742188 C 85.285156 68.726562 84.429688 68.960938 83.472656 68.90625 C 82.644531 68.945312 81.839844 68.582031 81.21875 67.960938 L 81.207031 67.949219 C 81.207031 67.949219 81.195312 67.949219 81.195312 67.9375 L 66.421875 53.164062 C 65.113281 51.871094 63.015625 51.871094 61.734375 53.164062 C 60.441406 54.460938 60.441406 56.570312 61.734375 57.851562 L 76.519531 72.636719 C 76.519531 72.648438 76.53125 72.648438 76.53125 72.648438 L 78.851562 74.964844 C 79.484375 75.613281 79.808594 76.417969 79.796875 77.375 C 79.808594 78.332031 79.382812 79.25 78.644531 79.871094 C 77.347656 80.933594 75.25 80.726562 73.945312 79.433594 L 57.035156 62.539062 C 55.742188 61.242188 53.644531 61.242188 52.347656 62.539062 C 51.054688 63.832031 51.054688 65.929688 52.347656 67.222656 L 67.03125 81.90625 C 68.246094 83.253906 68.390625 85.257812 67.355469 86.476562 C 66.707031 87.238281 65.800781 87.667969 64.816406 87.667969 C 64.167969 87.667969 63.238281 87.5 62.449219 86.707031 Z M 109.480469 66.695312 C 109.648438 68.609375 110.363281 70.460938 111.644531 71.988281 C 112.964844 73.582031 114.710938 74.679688 116.601562 75.199219 C 116.460938 75.886719 116.394531 76.570312 116.40625 77.269531 C 116.355469 80.234375 117.648438 83.058594 119.96875 84.972656 C 122.351562 86.953125 125.523438 87.589844 128.449219 86.929688 C 128.808594 88.3125 129.457031 89.632812 130.429688 90.773438 C 132.097656 92.730469 134.441406 93.90625 136.953125 94.179688 C 137.5625 96.832031 137.871094 99.527344 137.871094 102.246094 C 137.871094 105 137.546875 107.734375 136.925781 110.425781 C 134.46875 110.699219 132.085938 111.773438 130.429688 113.726562 C 129.457031 114.855469 128.808594 116.175781 128.449219 117.558594 C 125.507812 116.898438 122.351562 117.535156 119.953125 119.515625 C 117.648438 121.429688 116.355469 124.253906 116.40625 127.101562 C 116.394531 127.839844 116.460938 128.578125 116.613281 129.289062 C 114.699219 129.820312 112.964844 130.921875 111.65625 132.5 C 110.363281 134.015625 109.648438 135.878906 109.480469 137.792969 C 104.1875 138.984375 98.644531 138.984375 93.351562 137.792969 C 93.183594 135.878906 92.46875 134.027344 91.1875 132.5 C 89.867188 130.921875 88.121094 129.808594 86.230469 129.289062 C 86.371094 128.601562 86.4375 127.917969 86.425781 127.21875 C 86.476562 124.253906 85.179688 121.429688 82.863281 119.515625 C 80.480469 117.535156 77.324219 116.898438 74.382812 117.558594 C 74.019531 116.175781 73.375 114.855469 72.402344 113.726562 C 70.746094 111.757812 68.390625 110.59375 65.878906 110.308594 C 65.269531 107.667969 64.960938 104.960938 64.960938 102.246094 C 64.960938 99.527344 65.269531 96.832031 65.878906 94.179688 C 68.390625 93.90625 70.734375 92.730469 72.417969 90.761719 C 73.375 89.632812 74.019531 88.3125 74.382812 86.929688 C 77.324219 87.574219 80.480469 86.953125 82.875 84.972656 C 85.179688 83.058594 86.476562 80.234375 86.425781 77.386719 C 86.4375 76.636719 86.371094 75.910156 86.21875 75.199219 C 88.132812 74.667969 89.867188 73.566406 91.175781 72 C 92.457031 70.472656 93.183594 68.609375 93.351562 66.695312 C 98.644531 65.503906 104.1875 65.503906 109.480469 66.695312 Z M 112.496094 48.957031 C 112.511719 48.957031 112.511719 48.945312 112.523438 48.945312 L 148.113281 13.328125 C 153.292969 8.175781 161.71875 8.175781 166.898438 13.316406 L 190.332031 36.75 C 195.484375 41.925781 195.484375 50.355469 190.34375 55.519531 L 169.226562 76.597656 C 167.933594 77.890625 165.824219 77.890625 164.527344 76.597656 L 162.199219 74.265625 L 178.601562 57.851562 C 179.894531 56.570312 179.894531 54.460938 178.601562 53.164062 C 177.304688 51.871094 175.210938 51.871094 173.914062 53.164062 L 155.167969 71.910156 C 155.15625 71.9375 155.144531 71.949219 155.128906 71.960938 L 140.382812 86.707031 C 139.59375 87.5 138.660156 87.667969 138.015625 87.667969 C 137.03125 87.667969 136.125 87.238281 135.476562 86.476562 C 134.441406 85.257812 134.585938 83.253906 135.800781 81.90625 L 150.480469 67.222656 C 151.777344 65.929688 151.777344 63.832031 150.480469 62.539062 C 149.1875 61.242188 147.089844 61.242188 145.796875 62.539062 L 128.902344 79.433594 C 127.578125 80.742188 125.46875 80.933594 124.199219 79.886719 C 123.449219 79.25 123.023438 78.332031 123.035156 77.257812 C 123.023438 76.417969 123.347656 75.613281 123.957031 74.992188 L 126.296875 72.648438 C 126.296875 72.648438 126.3125 72.648438 126.3125 72.636719 L 141.097656 57.851562 C 142.390625 56.570312 142.390625 54.460938 141.097656 53.164062 C 139.8125 51.871094 137.71875 51.871094 136.410156 53.164062 L 121.636719 67.9375 C 121.636719 67.949219 121.625 67.949219 121.625 67.949219 L 121.613281 67.960938 C 120.976562 68.582031 120.1875 68.984375 119.230469 68.90625 C 118.621094 68.960938 117.546875 68.726562 116.71875 67.730469 C 115.65625 66.460938 115.875 64.324219 117.183594 63.003906 L 136.410156 43.792969 C 137.703125 42.496094 137.703125 40.398438 136.410156 39.105469 C 135.113281 37.8125 133.015625 37.8125 131.722656 39.105469 C 131.722656 39.105469 116.925781 53.914062 116.914062 53.929688 C 116.136719 54.691406 115.214844 54.859375 114.582031 54.859375 C 113.597656 54.859375 112.703125 54.433594 112.042969 53.632812 C 110.984375 52.386719 111.203125 50.253906 112.496094 48.957031 Z M 155.128906 132.527344 C 155.144531 132.539062 155.15625 132.5625 155.167969 132.578125 L 173.914062 151.324219 C 174.5625 151.96875 175.417969 152.292969 176.257812 152.292969 C 177.113281 152.292969 177.953125 151.96875 178.601562 151.324219 C 179.894531 150.027344 179.894531 147.929688 178.601562 146.636719 L 162.199219 130.222656 L 164.527344 127.890625 C 165.824219 126.597656 167.921875 126.597656 169.226562 127.890625 L 190.332031 148.953125 C 195.484375 154.132812 195.484375 162.5625 190.34375 167.738281 L 166.910156 191.160156 C 161.730469 196.3125 153.304688 196.3125 148.125 191.171875 L 112.523438 155.542969 C 112.511719 155.542969 112.511719 155.53125 112.496094 155.53125 C 111.175781 154.210938 110.96875 152.113281 112.058594 150.832031 C 112.703125 150.054688 113.597656 149.628906 114.582031 149.628906 C 115.214844 149.628906 116.136719 149.796875 116.914062 150.558594 C 116.925781 150.574219 116.925781 150.585938 116.9375 150.597656 L 131.722656 165.371094 C 132.371094 166.015625 133.226562 166.355469 134.066406 166.355469 C 134.921875 166.355469 135.761719 166.015625 136.410156 165.371094 C 137.703125 164.074219 137.703125 161.992188 136.410156 160.695312 L 117.210938 141.511719 C 115.875 140.152344 115.65625 138.027344 116.730469 136.746094 C 117.546875 135.761719 118.542969 135.582031 119.359375 135.582031 C 120.058594 135.59375 120.992188 135.90625 121.613281 136.527344 L 121.625 136.539062 C 121.625 136.539062 121.636719 136.539062 121.636719 136.550781 L 136.410156 151.308594 C 137.070312 151.96875 137.910156 152.28125 138.765625 152.28125 C 139.605469 152.28125 140.460938 151.96875 141.097656 151.308594 C 142.390625 150.015625 142.390625 147.917969 141.097656 146.636719 L 126.3125 131.851562 C 126.3125 131.839844 126.296875 131.839844 126.296875 131.839844 L 123.980469 129.523438 C 123.347656 128.875 123.023438 128.070312 123.035156 127.113281 C 123.023438 126.15625 123.449219 125.238281 124.1875 124.617188 C 125.46875 123.554688 127.578125 123.761719 128.886719 125.054688 L 145.796875 141.9375 C 146.441406 142.585938 147.285156 142.921875 148.140625 142.921875 C 148.980469 142.921875 149.835938 142.585938 150.480469 141.9375 C 151.777344 140.65625 151.777344 138.558594 150.480469 137.265625 L 135.800781 122.582031 C 134.585938 121.234375 134.441406 119.230469 135.476562 118.011719 C 136.125 117.25 137.03125 116.835938 138.015625 116.835938 C 138.660156 116.835938 139.605469 116.988281 140.382812 117.78125 Z M 90.332031 155.53125 C 90.320312 155.53125 90.320312 155.542969 90.308594 155.542969 L 54.71875 191.160156 C 49.539062 196.3125 41.097656 196.3125 35.933594 191.171875 L 12.5 167.753906 C 7.347656 162.5625 7.347656 154.132812 12.488281 148.96875 L 33.617188 127.890625 C 34.261719 127.242188 35.105469 126.917969 35.960938 126.917969 C 36.8125 126.917969 37.65625 127.242188 38.304688 127.878906 L 40.632812 130.222656 L 24.230469 146.636719 C 22.9375 147.929688 22.9375 150.027344 24.230469 151.324219 C 24.878906 151.96875 25.71875 152.292969 26.574219 152.292969 C 27.414062 152.292969 28.269531 151.96875 28.917969 151.324219 L 47.664062 132.578125 C 47.675781 132.5625 47.6875 132.539062 47.703125 132.527344 L 62.449219 117.78125 C 63.222656 116.988281 64.167969 116.835938 64.816406 116.835938 C 65.800781 116.835938 66.707031 117.25 67.355469 118.011719 C 68.390625 119.230469 68.246094 121.234375 67.03125 122.582031 L 52.347656 137.265625 C 51.054688 138.558594 51.054688 140.65625 52.347656 141.9375 C 52.996094 142.585938 53.851562 142.921875 54.691406 142.921875 C 55.546875 142.921875 56.386719 142.585938 57.035156 141.9375 L 73.945312 125.054688 C 75.25 123.746094 77.363281 123.554688 78.628906 124.601562 C 79.382812 125.238281 79.808594 126.15625 79.796875 127.230469 C 79.808594 128.070312 79.484375 128.875 78.875 129.496094 L 76.53125 131.839844 C 76.53125 131.839844 76.519531 131.839844 76.519531 131.851562 L 61.734375 146.636719 C 60.441406 147.917969 60.441406 150.015625 61.734375 151.308594 C 62.371094 151.96875 63.222656 152.28125 64.066406 152.28125 C 64.921875 152.28125 65.761719 151.96875 66.421875 151.308594 L 81.195312 136.550781 C 81.195312 136.539062 81.207031 136.539062 81.207031 136.539062 L 81.21875 136.527344 C 81.839844 135.90625 82.734375 135.566406 83.589844 135.582031 C 84.222656 135.582031 85.285156 135.761719 86.113281 136.746094 C 87.175781 138.027344 86.953125 140.152344 85.648438 141.484375 L 66.421875 160.695312 C 65.128906 161.992188 65.128906 164.074219 66.421875 165.371094 C 67.070312 166.015625 67.910156 166.355469 68.765625 166.355469 C 69.605469 166.355469 70.460938 166.015625 71.109375 165.371094 L 85.894531 150.597656 C 85.90625 150.585938 85.90625 150.574219 85.917969 150.558594 C 86.695312 149.796875 87.613281 149.628906 88.25 149.628906 C 89.234375 149.628906 90.125 150.054688 90.785156 150.84375 C 91.863281 152.113281 91.652344 154.210938 90.332031 155.53125 Z M 45.320312 125.535156 L 42.988281 123.191406 C 39.117188 119.320312 32.800781 119.320312 28.929688 123.191406 L 7.800781 144.28125 C 0.0859375 152.035156 0.0859375 164.65625 7.8125 172.425781 L 31.246094 195.859375 C 35.132812 199.714844 40.21875 201.644531 45.320312 201.644531 C 50.40625 201.644531 55.519531 199.714844 59.40625 195.859375 L 94.996094 160.230469 C 98.789062 156.476562 99.164062 150.46875 95.863281 146.585938 C 95.175781 145.757812 94.335938 145.109375 93.453125 144.566406 C 96.082031 145.058594 98.75 145.328125 101.414062 145.328125 C 104.082031 145.328125 106.738281 145.058594 109.363281 144.566406 C 108.484375 145.109375 107.667969 145.757812 106.984375 146.558594 C 103.667969 150.46875 104.042969 156.476562 107.835938 160.230469 L 143.4375 195.859375 C 147.324219 199.714844 152.410156 201.644531 157.511719 201.644531 C 162.613281 201.644531 167.714844 199.714844 171.585938 195.859375 L 195.03125 172.425781 C 202.746094 164.65625 202.746094 152.035156 195.015625 144.269531 L 173.902344 123.191406 C 170.03125 119.320312 163.714844 119.320312 159.84375 123.203125 L 157.511719 125.535156 L 145.070312 113.09375 C 144.566406 112.589844 144.007812 112.160156 143.414062 111.796875 C 144.136719 108.652344 144.5 105.453125 144.5 102.246094 C 144.5 99.035156 144.136719 95.847656 143.425781 92.703125 C 144.007812 92.328125 144.566406 91.898438 145.070312 91.394531 L 157.511719 78.953125 L 159.84375 81.285156 C 163.714844 85.167969 170.03125 85.167969 173.902344 81.285156 L 195.03125 60.207031 C 202.746094 52.453125 202.746094 39.832031 195.015625 32.0625 L 171.585938 8.628906 C 163.828125 0.914062 151.195312 0.914062 143.425781 8.628906 L 107.835938 44.257812 C 104.03125 48.011719 103.65625 54.019531 106.96875 57.902344 C 107.65625 58.730469 108.496094 59.378906 109.390625 59.9375 C 104.121094 58.953125 98.710938 58.953125 93.453125 59.921875 C 94.335938 59.378906 95.164062 58.746094 95.847656 57.929688 C 99.175781 54.019531 98.800781 48.011719 94.996094 44.257812 L 59.390625 8.628906 C 51.625 0.914062 39 0.914062 31.246094 8.628906 L 7.800781 32.074219 C 0.0859375 39.832031 0.0859375 52.453125 7.8125 60.21875 L 28.917969 81.285156 C 32.800781 85.167969 39.117188 85.167969 42.988281 81.285156 L 45.320312 78.953125 L 57.761719 91.394531 C 58.265625 91.898438 58.824219 92.328125 59.40625 92.703125 C 58.691406 95.847656 58.332031 99.035156 58.332031 102.246094 C 58.332031 105.453125 58.691406 108.640625 59.40625 111.785156 C 58.824219 112.160156 58.265625 112.589844 57.761719 113.09375 L 45.320312 125.535156 " fill-opacity="1" fill-rule="nonzero"/><path fill="#00b050" d="M 91.472656 95.617188 C 91.472656 101.105469 95.925781 105.558594 101.414062 105.558594 C 103.242188 105.558594 104.730469 107.046875 104.730469 108.871094 C 104.730469 110.699219 103.242188 112.1875 101.414062 112.1875 C 100.238281 112.1875 99.136719 111.550781 98.542969 110.53125 C 97.621094 108.949219 95.601562 108.394531 94.011719 109.324219 C 92.429688 110.230469 91.886719 112.265625 92.804688 113.84375 C 93.996094 115.914062 95.914062 117.390625 98.101562 118.167969 L 98.101562 122.128906 C 98.101562 123.953125 99.589844 125.445312 101.414062 125.445312 C 103.242188 125.445312 104.730469 123.953125 104.730469 122.128906 L 104.730469 118.207031 C 108.574219 116.835938 111.359375 113.183594 111.359375 108.871094 C 111.359375 103.382812 106.90625 98.929688 101.414062 98.929688 C 99.589844 98.929688 98.101562 97.441406 98.101562 95.617188 C 98.101562 93.789062 99.589844 92.300781 101.414062 92.300781 C 102.59375 92.300781 103.695312 92.9375 104.289062 93.957031 C 105.207031 95.539062 107.230469 96.082031 108.820312 95.164062 C 110.402344 94.257812 110.945312 92.222656 110.023438 90.644531 C 108.832031 88.574219 106.917969 87.097656 104.730469 86.320312 L 104.730469 82.359375 C 104.730469 80.535156 103.242188 79.042969 101.414062 79.042969 C 99.589844 79.042969 98.101562 80.535156 98.101562 82.359375 L 98.101562 86.28125 C 94.257812 87.652344 91.472656 91.304688 91.472656 95.617188 " fill-opacity="1" fill-rule="nonzero"/></svg>