<svg xmlns="http://www.w3.org/2000/svg" xmlns:xlink="http://www.w3.org/1999/xlink" width="270" zoomAndPan="magnify" viewBox="0 0 202.5 202.499993" height="270" preserveAspectRatio="xMidYMid meet" version="1.0"><defs><clipPath id="id1"><path d="M 0 0 L 202 0 L 202 202 L 0 202 Z M 0 0 " clip-rule="nonzero"/></clipPath><clipPath id="id2"><path d="M 47 138 L 202 138 L 202 202 L 47 202 Z M 47 138 " clip-rule="nonzero"/></clipPath></defs><g clip-path="url(#id1)"><path fill="#ffffff" d="M 0 0 L 202.5 0 L 202.5 202.5 L 0 202.5 Z M 0 0 " fill-opacity="1" fill-rule="nonzero"/><path fill="#ffffff" d="M 0 0 L 202.5 0 L 202.5 202.5 L 0 202.5 Z M 0 0 " fill-opacity="1" fill-rule="nonzero"/><path fill="#ffffff" d="M 0 0 L 202.5 0 L 202.5 202.5 L 0 202.5 Z M 0 0 " fill-opacity="1" fill-rule="nonzero"/></g><path fill="#00b050" d="M 6.90625 37.398438 C 6.90625 35.542969 8.421875 34.03125 10.277344 34.03125 L 50.710938 34.03125 C 52.566406 34.03125 54.078125 35.542969 54.078125 37.398438 L 54.078125 44.140625 L 43.96875 44.140625 C 42.113281 44.140625 40.601562 45.652344 40.601562 47.507812 C 40.601562 49.363281 42.113281 50.878906 43.96875 50.878906 L 54.078125 50.878906 L 54.078125 67.726562 L 43.96875 67.726562 C 42.113281 67.726562 40.601562 69.238281 40.601562 71.09375 C 40.601562 72.949219 42.113281 74.464844 43.96875 74.464844 L 54.078125 74.464844 L 54.078125 81.203125 C 54.078125 83.058594 52.566406 84.570312 50.710938 84.570312 L 10.277344 84.570312 C 8.421875 84.570312 6.90625 83.058594 6.90625 81.203125 Z M 70.582031 26.621094 C 71.859375 24.921875 73.875 23.921875 75.980469 23.921875 L 78.730469 23.921875 L 82.21875 30.660156 L 77.664062 30.660156 C 75.808594 30.660156 74.292969 32.175781 74.292969 34.03125 C 74.292969 35.886719 75.808594 37.398438 77.664062 37.398438 L 114.726562 37.398438 C 116.582031 37.398438 118.097656 38.914062 118.097656 40.769531 C 118.097656 42.625 116.582031 44.140625 114.726562 44.140625 C 112.871094 44.140625 111.359375 45.652344 111.359375 47.507812 C 111.359375 49.363281 112.871094 50.878906 114.726562 50.878906 L 118.097656 50.878906 C 119.953125 50.878906 121.464844 52.390625 121.464844 54.246094 C 121.464844 56.101562 119.953125 57.617188 118.097656 57.617188 C 116.242188 57.617188 114.726562 59.128906 114.726562 60.984375 C 114.726562 62.839844 116.242188 64.355469 118.097656 64.355469 C 119.953125 64.355469 121.464844 65.867188 121.464844 67.726562 C 121.464844 69.582031 119.953125 71.09375 118.097656 71.09375 L 114.726562 71.09375 C 112.871094 71.09375 111.359375 72.609375 111.359375 74.464844 C 111.359375 76.320312 112.871094 77.832031 114.726562 77.832031 C 116.582031 77.832031 118.097656 79.347656 118.097656 81.203125 C 118.097656 83.058594 116.582031 84.570312 114.726562 84.570312 L 74.898438 84.570312 C 72.820312 84.570312 70.742188 84.070312 68.871094 83.148438 L 60.816406 79.121094 L 60.816406 38.597656 Z M 84.441406 19.617188 C 84.507812 19.449219 84.652344 19.144531 85.035156 18.949219 L 88.179688 17.382812 C 88.785156 18.511719 89.929688 19.171875 91.140625 19.171875 C 91.65625 19.171875 92.167969 19.054688 92.65625 18.816406 C 94.3125 17.988281 94.984375 15.960938 94.15625 14.300781 L 92.695312 11.367188 C 92.683594 11.367188 92.683594 11.351562 92.683594 11.351562 L 91.128906 8.246094 C 92.351562 7.679688 95 7.074219 97.878906 7.074219 C 100.761719 7.074219 103.410156 7.679688 104.632812 8.246094 L 103.078125 11.351562 C 103.078125 11.351562 103.078125 11.367188 103.066406 11.367188 L 101.605469 14.300781 C 100.777344 15.960938 101.449219 17.988281 103.105469 18.816406 C 103.59375 19.054688 104.105469 19.171875 104.621094 19.171875 C 105.832031 19.171875 106.976562 18.511719 107.582031 17.382812 L 110.738281 18.960938 C 111.109375 19.144531 111.253906 19.449219 111.320312 19.617188 C 111.382812 19.816406 111.425781 20.132812 111.226562 20.488281 L 105.949219 30.660156 L 89.8125 30.660156 L 84.507812 20.460938 C 84.335938 20.132812 84.375 19.816406 84.441406 19.617188 Z M 97.878906 121.632812 C 80.242188 121.632812 74.292969 118.226562 74.292969 108.15625 C 74.292969 103.117188 75.941406 96.957031 78.664062 91.308594 L 90.429688 91.308594 C 92.328125 93.429688 94.972656 94.679688 97.878906 94.679688 C 99.738281 94.679688 101.25 96.191406 101.25 98.050781 C 101.25 99.90625 99.738281 101.417969 97.878906 101.417969 C 96.683594 101.417969 95.5625 100.773438 94.984375 99.761719 C 94.0625 98.140625 92.011719 97.574219 90.390625 98.496094 C 88.757812 99.40625 88.207031 101.472656 89.128906 103.078125 C 90.324219 105.195312 92.273438 106.710938 94.511719 107.5 L 94.511719 108.15625 C 94.511719 110.011719 96.023438 111.527344 97.878906 111.527344 C 99.738281 111.527344 101.25 110.011719 101.25 108.15625 L 101.25 107.539062 C 105.160156 106.144531 107.988281 102.433594 107.988281 98.050781 C 107.988281 95.441406 106.976562 93.101562 105.355469 91.308594 L 114.726562 91.308594 C 115.515625 91.308594 116.28125 91.203125 117.019531 91.019531 C 119.835938 96.773438 121.464844 102.996094 121.464844 108.15625 C 121.464844 118.226562 115.515625 121.632812 97.878906 121.632812 Z M 10.277344 91.308594 L 50.710938 91.308594 C 54.539062 91.308594 57.816406 89.152344 59.539062 86.019531 L 65.859375 89.179688 C 67.59375 90.035156 69.464844 90.625 71.371094 90.96875 C 68.9375 96.796875 67.554688 102.851562 67.554688 108.15625 C 67.554688 128.375 87.285156 128.375 97.878906 128.375 C 108.476562 128.375 128.203125 128.375 128.203125 108.15625 C 128.203125 101.800781 126.164062 94.179688 122.703125 87.347656 C 124.019531 85.636719 124.835938 83.519531 124.835938 81.203125 C 124.835938 79.398438 124.363281 77.714844 123.53125 76.238281 C 126.335938 74.4375 128.203125 71.292969 128.203125 67.726562 C 128.203125 65.132812 127.230469 62.777344 125.625 60.984375 C 127.230469 59.195312 128.203125 56.839844 128.203125 54.246094 C 128.203125 50.679688 126.335938 47.535156 123.53125 45.730469 C 124.363281 44.257812 124.835938 42.574219 124.835938 40.769531 C 124.835938 35.1875 120.308594 30.660156 114.726562 30.660156 L 113.542969 30.660156 L 117.1875 23.621094 C 118.203125 21.738281 118.386719 19.578125 117.726562 17.550781 C 117.070312 15.511719 115.648438 13.867188 113.742188 12.917969 L 110.621094 11.367188 L 110.660156 11.273438 C 111.476562 9.617188 111.609375 7.746094 110.988281 6.007812 C 110.382812 4.273438 109.121094 2.902344 107.460938 2.125 C 102.644531 -0.0859375 93.101562 -0.0859375 88.3125 2.125 C 86.640625 2.902344 85.378906 4.273438 84.773438 6.007812 C 84.152344 7.746094 84.285156 9.617188 85.101562 11.273438 L 85.140625 11.367188 L 82.035156 12.90625 C 80.242188 13.800781 78.902344 15.316406 78.191406 17.183594 L 75.980469 17.183594 C 71.753906 17.183594 67.726562 19.199219 65.277344 22.476562 L 58.394531 30.910156 C 56.539062 28.714844 53.800781 27.292969 50.710938 27.292969 L 10.277344 27.292969 C 4.695312 27.292969 0.167969 31.820312 0.167969 37.398438 L 0.167969 81.203125 C 0.167969 86.78125 4.695312 91.308594 10.277344 91.308594 " fill-opacity="1" fill-rule="nonzero"/><g clip-path="url(#id2)"><path fill="#00b050" d="M 195.59375 182.285156 C 195.59375 184.140625 194.078125 185.652344 192.222656 185.652344 L 182.113281 185.652344 C 180.257812 185.652344 178.746094 184.140625 178.746094 182.285156 L 178.746094 178.914062 L 185.484375 178.914062 C 187.339844 178.914062 188.855469 177.402344 188.855469 175.542969 C 188.855469 173.6875 187.339844 172.175781 185.484375 172.175781 L 178.746094 172.175781 L 178.746094 158.699219 L 185.484375 158.699219 C 187.339844 158.699219 188.855469 157.183594 188.855469 155.328125 C 188.855469 153.472656 187.339844 151.960938 185.484375 151.960938 L 178.746094 151.960938 L 178.746094 148.589844 C 178.746094 146.734375 180.257812 145.21875 182.113281 145.21875 L 192.222656 145.21875 C 194.078125 145.21875 195.59375 146.734375 195.59375 148.589844 Z M 101.460938 165.4375 L 120.292969 165.4375 L 111.515625 171.371094 C 111.382812 171.464844 111.199219 171.464844 111.042969 171.371094 Z M 171.980469 178.175781 C 171.230469 178.191406 170.425781 178.296875 169.613281 178.546875 L 116.742188 195.457031 C 114.542969 196.117188 112.175781 195.683594 110.421875 194.3125 L 54.933594 149.828125 C 54.394531 149.40625 54.078125 148.734375 54.078125 148.050781 C 54.078125 147.65625 54.183594 147.285156 54.355469 146.957031 C 54.789062 146.195312 55.59375 145.773438 56.355469 145.773438 C 56.683594 145.773438 57 145.839844 57.289062 145.996094 L 107.476562 177.085938 C 109.871094 178.585938 112.9375 178.53125 115.292969 176.953125 L 132.3125 165.4375 L 141.683594 165.4375 C 143.539062 165.4375 145.050781 163.921875 145.050781 162.066406 C 145.050781 160.210938 143.539062 158.699219 141.683594 158.699219 L 91.445312 158.699219 C 90.839844 158.699219 90.261719 158.449219 89.839844 158.039062 C 89.417969 157.617188 89.195312 157.066406 89.195312 156.449219 C 89.195312 155.367188 90.011719 154.40625 91.050781 154.234375 L 150.433594 145.496094 C 153.792969 144.96875 157.199219 145.285156 160.054688 146.285156 L 172.007812 151.867188 Z M 192.222656 138.480469 L 182.113281 138.480469 C 177.890625 138.480469 174.269531 141.101562 172.757812 144.785156 L 162.621094 140.0625 C 158.410156 138.5625 153.832031 138.140625 149.421875 138.835938 L 90.011719 147.589844 C 86.507812 148.15625 83.769531 150.65625 82.824219 153.894531 L 60.699219 140.191406 C 56.367188 137.769531 50.878906 139.335938 48.457031 143.707031 C 47.722656 145.050781 47.339844 146.550781 47.339844 148.050781 C 47.339844 150.773438 48.617188 153.421875 50.734375 155.089844 L 106.25 199.605469 C 108.6875 201.5 111.660156 202.488281 114.703125 202.488281 C 116.058594 202.488281 117.398438 202.289062 118.742188 201.894531 L 171.636719 184.980469 C 171.847656 184.914062 172.125 184.957031 172.414062 184.980469 C 173.613281 189.246094 177.480469 192.390625 182.113281 192.390625 L 192.222656 192.390625 C 197.804688 192.390625 202.332031 187.863281 202.332031 182.285156 L 202.332031 148.589844 C 202.332031 143.007812 197.804688 138.480469 192.222656 138.480469 " fill-opacity="1" fill-rule="nonzero"/></g></svg>