<svg xmlns="http://www.w3.org/2000/svg" xmlns:xlink="http://www.w3.org/1999/xlink" width="270" zoomAndPan="magnify" viewBox="0 0 202.5 202.499993" height="270" preserveAspectRatio="xMidYMid meet" version="1.0"><defs><clipPath id="id1"><path d="M 0 0 L 202 0 L 202 202 L 0 202 Z M 0 0 " clip-rule="nonzero"/></clipPath></defs><g clip-path="url(#id1)"><path fill="#ffffff" d="M 0 0 L 202.5 0 L 202.5 202.5 L 0 202.5 Z M 0 0 " fill-opacity="1" fill-rule="nonzero"/><path fill="#ffffff" d="M 0 0 L 202.5 0 L 202.5 202.5 L 0 202.5 Z M 0 0 " fill-opacity="1" fill-rule="nonzero"/><path fill="#ffffff" d="M 0 0 L 202.5 0 L 202.5 202.5 L 0 202.5 Z M 0 0 " fill-opacity="1" fill-rule="nonzero"/><path fill="#00b050" d="M 135 195.75 L 135 189 L 195.75 189 L 195.761719 195.75 Z M 103.53125 195.75 C 115.949219 180.046875 117.808594 146.457031 118.070312 135 L 118.125 135 C 121.578125 135 124.96875 135.5 128.25 136.421875 L 128.25 141.75 C 128.25 142.988281 128.605469 144.136719 129.1875 145.125 C 128.605469 146.113281 128.25 147.261719 128.25 148.5 L 128.25 155.25 C 128.25 156.488281 128.605469 157.636719 129.1875 158.625 C 128.605469 159.613281 128.25 160.761719 128.25 162 L 128.25 168.75 C 128.25 169.988281 128.605469 171.136719 129.1875 172.125 C 128.605469 173.113281 128.25 174.261719 128.25 175.5 L 128.25 182.25 C 128.25 183.488281 128.605469 184.636719 129.1875 185.625 C 128.605469 186.613281 128.25 187.761719 128.25 189 L 128.25 195.75 Z M 6.75 172.125 C 6.75 151.652344 23.402344 135 43.875 135 L 43.914062 135 C 44.164062 146.601562 45.917969 180.65625 57.71875 195.75 L 6.75 195.75 Z M 58.773438 128.433594 C 60.328125 131.019531 63.609375 135.105469 70.019531 138.269531 C 67.394531 139.890625 64.941406 142.265625 63.109375 145.507812 C 63.042969 145.625 62.953125 145.730469 62.910156 145.863281 C 62.675781 146.296875 62.410156 146.695312 62.199219 147.15625 C 58.019531 144.78125 51.152344 139.8125 50.652344 132.480469 C 52.496094 129.753906 56.398438 128.777344 58.773438 128.433594 Z M 81 124.875 C 86.957031 124.875 92.652344 123.675781 97.875 121.511719 L 97.875 124.1875 C 97.058594 125.917969 93.234375 132.257812 81 134.90625 C 68.699219 132.246094 64.914062 125.863281 64.125 124.203125 L 64.125 121.550781 C 69.410156 123.726562 75.121094 124.875 81 124.875 Z M 43.148438 82.132812 C 42.953125 79.300781 41.039062 76.898438 38.363281 76.148438 C 36.78125 75.738281 34.59375 74.644531 33.195312 71.835938 C 30.375 66.128906 30.375 62.082031 30.375 54 C 30.375 52.917969 30.796875 52.007812 31.585938 51.457031 C 32.0625 51.125 32.617188 50.953125 33.195312 50.953125 C 33.539062 50.953125 33.882812 51.007812 34.238281 51.140625 C 36.597656 51.984375 37.125 56.226562 37.125 57.652344 C 37.125 59.511719 38.640625 61.027344 40.5 61.027344 C 42.359375 61.027344 43.875 59.511719 43.875 57.652344 L 43.875 37.125 C 43.875 20.367188 57.492188 6.75 74.25 6.75 L 87.75 6.75 C 104.507812 6.75 118.125 20.367188 118.125 37.125 L 118.125 57.652344 C 118.125 59.511719 119.640625 61.027344 121.5 61.027344 C 123.359375 61.027344 124.875 59.511719 124.875 57.652344 C 124.875 56.226562 125.402344 51.984375 127.75 51.140625 C 128.699219 50.808594 129.660156 50.929688 130.410156 51.457031 C 131.191406 52.007812 131.625 52.917969 131.625 54 C 131.625 62.082031 131.625 66.128906 128.804688 71.824219 C 127.40625 74.644531 125.21875 75.738281 123.582031 76.160156 C 120.960938 76.898438 119.046875 79.300781 118.835938 82.171875 C 117.597656 102.332031 100.972656 118.125 81 118.125 C 70.886719 118.125 61.371094 114.144531 54.210938 106.90625 C 47.644531 100.261719 43.730469 91.46875 43.148438 82.132812 Z M 111.347656 132.46875 C 110.847656 139.773438 103.980469 144.769531 99.800781 147.140625 C 99.589844 146.679688 99.324219 146.296875 99.085938 145.863281 C 99.046875 145.730469 98.957031 145.625 98.890625 145.492188 C 97.058594 142.265625 94.605469 139.890625 91.980469 138.269531 C 98.390625 135.105469 101.683594 131.019531 103.242188 128.421875 C 105.613281 128.765625 109.503906 129.714844 111.347656 132.46875 Z M 91.347656 156.421875 L 94.761719 153.007812 C 95.054688 153.8125 95.582031 154.5 96.332031 154.878906 C 96.820312 155.132812 97.347656 155.25 97.875 155.25 C 98.296875 155.25 98.730469 155.171875 99.128906 155.011719 C 99.5625 154.839844 105.46875 152.414062 110.582031 147.578125 C 109.121094 163.699219 105.363281 184.332031 96.976562 193.074219 Z M 77.136719 158.625 L 84.863281 158.625 L 90.570312 195.75 L 71.429688 195.75 Z M 62.871094 155.011719 C 63.269531 155.171875 63.703125 155.25 64.125 155.25 C 64.652344 155.25 65.179688 155.132812 65.667969 154.878906 C 66.417969 154.5 66.945312 153.8125 67.234375 153.007812 L 70.652344 156.421875 L 64.914062 193.679688 C 57.019531 186.496094 52.839844 165.875 51.324219 147.484375 C 56.453125 152.390625 62.4375 154.839844 62.871094 155.011719 Z M 81.011719 141.75 C 81.394531 141.75 87.484375 141.855469 91.585938 146.652344 L 86.351562 151.875 L 75.648438 151.875 L 70.441406 146.667969 C 74.527344 141.921875 80.617188 141.761719 81.011719 141.75 Z M 141.128906 101.25 C 140.113281 104.109375 137.859375 106.363281 135 107.378906 L 135 101.25 Z M 195.75 107.378906 C 192.890625 106.363281 190.632812 104.109375 189.621094 101.25 L 195.75 101.25 Z M 189.621094 141.75 C 190.632812 138.890625 192.890625 136.632812 195.761719 135.621094 L 195.761719 141.75 Z M 135 135.621094 C 137.859375 136.632812 140.113281 138.890625 141.128906 141.75 L 135 141.75 Z M 148.15625 101.25 L 182.59375 101.25 C 183.9375 107.855469 189.144531 113.0625 195.75 114.40625 L 195.75 128.59375 C 189.144531 129.9375 183.9375 135.144531 182.59375 141.75 L 148.15625 141.75 C 146.8125 135.144531 141.605469 129.9375 135 128.59375 L 135 114.40625 C 141.605469 113.0625 146.8125 107.855469 148.15625 101.25 Z M 195.761719 182.25 L 135 182.25 L 135 175.5 L 195.75 175.5 Z M 195.761719 168.75 L 135 168.75 L 135 162 L 195.75 162 Z M 195.761719 155.25 L 135 155.25 L 135 148.5 L 195.75 148.5 Z M 195.75 94.5 L 135 94.5 C 131.28125 94.5 128.25 97.53125 128.25 101.25 L 128.25 129.449219 C 124.953125 128.671875 121.566406 128.25 118.125 128.25 L 116.59375 128.25 C 113.40625 123.925781 108.105469 122.371094 104.625 121.816406 L 104.625 118.007812 C 116.4375 110.519531 124.570312 97.609375 125.375 82.675781 C 129.503906 81.578125 132.863281 78.796875 134.855469 74.828125 C 138.375 67.722656 138.375 62.265625 138.375 54 C 138.375 50.71875 136.898438 47.777344 134.3125 45.945312 C 131.796875 44.164062 128.5 43.730469 125.496094 44.785156 C 125.285156 44.851562 125.074219 44.941406 124.875 45.023438 L 124.875 37.125 C 124.875 16.652344 108.222656 0 87.75 0 L 74.25 0 C 53.777344 0 37.125 16.652344 37.125 37.125 L 37.125 45.023438 C 36.925781 44.941406 36.714844 44.851562 36.492188 44.769531 C 33.511719 43.730469 30.214844 44.164062 27.683594 45.945312 C 25.101562 47.777344 23.625 50.71875 23.625 54 C 23.625 62.265625 23.625 67.722656 27.15625 74.84375 C 29.136719 78.796875 32.496094 81.578125 36.425781 82.59375 C 37.085938 93.511719 41.699219 103.832031 49.410156 111.664062 C 51.835938 114.117188 54.527344 116.214844 57.375 118.019531 L 57.375 121.816406 C 53.894531 122.371094 48.59375 123.925781 45.402344 128.25 L 43.875 128.25 C 19.683594 128.25 0 147.933594 0 172.125 L 0 195.75 C 0 199.46875 3.03125 202.5 6.75 202.5 L 195.75 202.5 C 199.46875 202.5 202.5 199.46875 202.5 195.75 L 202.5 189 C 202.5 187.761719 202.144531 186.613281 201.5625 185.625 C 202.144531 184.636719 202.5 183.488281 202.5 182.25 L 202.5 175.5 C 202.5 174.261719 202.144531 173.113281 201.5625 172.125 C 202.144531 171.136719 202.5 169.988281 202.5 168.75 L 202.5 162 C 202.5 160.761719 202.144531 159.613281 201.5625 158.625 C 202.144531 157.636719 202.5 156.488281 202.5 155.25 L 202.5 148.5 C 202.5 147.261719 202.144531 146.113281 201.5625 145.125 C 202.144531 144.136719 202.5 142.988281 202.5 141.75 L 202.5 101.25 C 202.5 97.53125 199.46875 94.5 195.75 94.5 " fill-opacity="1" fill-rule="nonzero"/></g><path fill="#00b050" d="M 165.375 118.125 C 167.234375 118.125 168.75 119.640625 168.75 121.5 C 168.75 123.359375 167.234375 124.875 165.375 124.875 C 163.515625 124.875 162 123.359375 162 121.5 C 162 119.640625 163.515625 118.125 165.375 118.125 Z M 165.375 131.625 C 170.964844 131.625 175.5 127.089844 175.5 121.5 C 175.5 115.910156 170.964844 111.375 165.375 111.375 C 159.785156 111.375 155.25 115.910156 155.25 121.5 C 155.25 127.089844 159.785156 131.625 165.375 131.625 " fill-opacity="1" fill-rule="nonzero"/><path fill="#00b050" d="M 145.125 128.25 C 146.984375 128.25 148.5 126.734375 148.5 124.875 L 148.5 118.125 C 148.5 116.265625 146.984375 114.75 145.125 114.75 C 143.265625 114.75 141.75 116.265625 141.75 118.125 L 141.75 124.875 C 141.75 126.734375 143.265625 128.25 145.125 128.25 " fill-opacity="1" fill-rule="nonzero"/><path fill="#00b050" d="M 185.625 128.25 C 187.484375 128.25 189 126.734375 189 124.875 L 189 118.125 C 189 116.265625 187.484375 114.75 185.625 114.75 C 183.765625 114.75 182.25 116.265625 182.25 118.125 L 182.25 124.875 C 182.25 126.734375 183.765625 128.25 185.625 128.25 " fill-opacity="1" fill-rule="nonzero"/><path fill="#00b050" d="M 74.25 13.5 C 61.222656 13.5 50.625 24.097656 50.625 37.125 C 50.625 38.984375 52.140625 40.5 54 40.5 C 55.859375 40.5 57.375 38.984375 57.375 37.125 C 57.375 27.816406 64.941406 20.25 74.25 20.25 C 76.109375 20.25 77.625 18.734375 77.625 16.875 C 77.625 15.015625 76.109375 13.5 74.25 13.5 " fill-opacity="1" fill-rule="nonzero"/></svg>