<svg xmlns="http://www.w3.org/2000/svg" width="136" height="110" viewBox="0 0 136 110" fill="none"><path d="M67.9425 58.0005C54.1671 58.0005 43 46.7768 43 32.9316L67.9425 32.9316L67.9425 58.0005Z" fill="#191B22"></path><path d="M43 8C43 21.7691 54.1671 32.9312 67.9425 32.9311L67.9425 8L43 8Z" fill="#DC1414"></path><path d="M93 32.9834C93 19.2143 81.8942 8.05224 68.1946 8.05224L68.1946 32.9834L93 32.9834Z" fill="#D8D8D8"></path><path d="M2.22372 78.455V101H6.14276V85.4785H6.35192L12.5827 100.934H15.511L21.7418 85.5115H21.951V101H25.87V78.455H20.8722L14.179 94.7917H13.9148L7.22159 78.455H2.22372ZM39.3687 93.889C39.3687 96.465 37.5303 97.742 35.7689 97.742C33.8534 97.742 32.5764 96.3879 32.5764 94.2413V84.0914H28.5913V94.8577C28.5913 98.9199 30.9031 101.221 34.2277 101.221C36.7597 101.221 38.543 99.8886 39.3136 97.9952H39.4898V101H43.3538V84.0914H39.3687V93.889ZM49.8868 78.455H45.9017V101H49.8868V78.455ZM60.8782 84.0914H57.5426V80.0403H53.5576V84.0914H51.1577V87.1738H53.5576V96.5751C53.5355 99.7565 55.8473 101.32 58.8417 101.232C59.9755 101.199 60.7571 100.978 61.1865 100.835L60.5149 97.7199C60.2948 97.775 59.8434 97.8741 59.348 97.8741C58.3463 97.8741 57.5426 97.5218 57.5426 95.9146V87.1738H60.8782V84.0914ZM62.6611 101H66.6461V84.0914H62.6611V101ZM64.6646 81.6915C65.9306 81.6915 66.9654 80.7228 66.9654 79.5339C66.9654 78.3339 65.9306 77.3652 64.6646 77.3652C63.3876 77.3652 62.3528 78.3339 62.3528 79.5339C62.3528 80.7228 63.3876 81.6915 64.6646 81.6915Z" fill="#191B22"></path><path d="M69.8766 101H78.0229C83.351 101 85.5527 98.4025 85.5527 95.0119C85.5527 91.4451 83.0868 89.5076 81.0172 89.3755V89.1553C82.9547 88.6269 84.6721 87.3499 84.6721 84.4437C84.6721 81.1411 82.4703 78.455 77.7587 78.455H69.8766V101ZM72.6067 98.5786V90.7405H78.155C81.1053 90.7405 82.9547 92.7221 82.9547 95.0119C82.9547 96.9934 81.5897 98.5786 78.0229 98.5786H72.6067ZM72.6067 88.3627V80.8769H77.7587C80.753 80.8769 82.074 82.4621 82.074 84.4437C82.074 86.8215 80.1365 88.3627 77.6706 88.3627H72.6067ZM93.1123 101.397C96.0626 101.397 97.6038 99.8116 98.1322 98.7107H98.2643V101H100.862V89.8599C100.862 84.4877 96.7671 83.8712 94.6094 83.8712C92.0555 83.8712 89.1492 84.7519 87.8282 87.8343L90.2941 88.715C90.8665 87.482 92.2206 86.161 94.6975 86.161C97.0864 86.161 98.2643 87.427 98.2643 89.5957V89.6837C98.2643 90.9387 96.9873 90.8286 93.9049 91.2249C90.7675 91.6322 87.3438 92.3258 87.3438 96.2008C87.3438 99.5033 89.8978 101.397 93.1123 101.397ZM93.5086 99.063C91.439 99.063 89.9418 98.1383 89.9418 96.3329C89.9418 94.3513 91.7472 93.7349 93.7728 93.4707C94.8736 93.3386 97.8239 93.0303 98.2643 92.5019V94.8797C98.2643 96.9934 96.591 99.063 93.5086 99.063ZM106.652 90.8286C106.652 87.8783 108.48 86.205 110.968 86.205C113.378 86.205 114.843 87.7793 114.843 90.4323V101H117.441V90.2562C117.441 85.9408 115.14 83.8712 111.716 83.8712C109.162 83.8712 107.577 85.0161 106.784 86.7334H106.564V84.0914H104.054V101H106.652V90.8286ZM120.638 101H123.236V94.6706L125.052 92.9863L131.382 101H134.685L127.012 91.313L134.156 84.0914H130.942L123.544 91.6212H123.236V78.455H120.638V101Z" fill="#AAABB0"></path></svg>