<svg xmlns="http://www.w3.org/2000/svg" width="202" height="61" viewBox="0 0 202 61" fill="none"><path d="M22.9483 53C10.5505 53 0.50012 42.8985 0.500118 30.4377L22.9483 30.4377L22.9483 53Z" fill="white"></path><path d="M0.499997 8.00013C0.499998 20.3925 10.5504 30.4385 22.9482 30.4385L22.9482 8.00012L0.499997 8.00013Z" fill="#DC1414"></path><path d="M45.4999 30.4894C45.4999 18.097 35.5047 8.05102 23.1751 8.05102L23.1751 30.4894L45.4999 30.4894Z" fill="#D8D8D8"></path><path d="M67.7236 18.9545V41.5H71.6426V25.978H71.8518L78.0826 41.4339H81.0109L87.2417 26.011H87.4509V41.5H91.3699V18.9545H86.372L79.6789 35.2912H79.4147L72.7215 18.9545H67.7236ZM104.869 34.3885C104.869 36.9645 103.03 38.2415 101.269 38.2415C99.3533 38.2415 98.0763 36.8874 98.0763 34.7408V24.5909H94.0912V35.3572C94.0912 39.4194 96.403 41.7202 99.7276 41.7202C102.26 41.7202 104.043 40.3881 104.814 38.4947H104.99V41.5H108.854V24.5909H104.869V34.3885ZM115.387 18.9545H111.402V41.5H115.387V18.9545ZM126.378 24.5909H123.043V20.5398H119.057V24.5909H116.658V27.6733H119.057V37.0746C119.035 40.256 121.347 41.8192 124.342 41.7312C125.475 41.6982 126.257 41.478 126.686 41.3349L126.015 38.2195C125.795 38.2745 125.343 38.3736 124.848 38.3736C123.846 38.3736 123.043 38.0213 123.043 36.4141V27.6733H126.378V24.5909ZM128.161 41.5H132.146V24.5909H128.161V41.5ZM130.164 22.1911C131.43 22.1911 132.465 21.2223 132.465 20.0334C132.465 18.8335 131.43 17.8647 130.164 17.8647C128.888 17.8647 127.853 18.8335 127.853 20.0334C127.853 21.2223 128.888 22.1911 130.164 22.1911Z" fill="white"></path><path d="M135.376 41.5H143.523C148.851 41.5 151.053 38.902 151.053 35.5114C151.053 31.9446 148.587 30.0071 146.517 29.875V29.6548C148.455 29.1264 150.172 27.8494 150.172 24.9432C150.172 21.6406 147.97 18.9545 143.259 18.9545H135.376V41.5ZM138.107 39.0781V31.2401H143.655C146.605 31.2401 148.455 33.2216 148.455 35.5114C148.455 37.4929 147.09 39.0781 143.523 39.0781H138.107ZM138.107 28.8622V21.3764H143.259C146.253 21.3764 147.574 22.9616 147.574 24.9432C147.574 27.321 145.636 28.8622 143.171 28.8622H138.107ZM158.612 41.8963C161.562 41.8963 163.104 40.3111 163.632 39.2102H163.764V41.5H166.362V30.3594C166.362 24.9872 162.267 24.3707 160.109 24.3707C157.555 24.3707 154.649 25.2514 153.328 28.3338L155.794 29.2145C156.366 27.9815 157.72 26.6605 160.197 26.6605C162.586 26.6605 163.764 27.9265 163.764 30.0952V30.1832C163.764 31.4382 162.487 31.3281 159.405 31.7244C156.267 32.1317 152.844 32.8253 152.844 36.7003C152.844 40.0028 155.398 41.8963 158.612 41.8963ZM159.008 39.5625C156.939 39.5625 155.442 38.6378 155.442 36.8324C155.442 34.8509 157.247 34.2344 159.273 33.9702C160.374 33.8381 163.324 33.5298 163.764 33.0014V35.3793C163.764 37.4929 162.091 39.5625 159.008 39.5625ZM172.152 31.3281C172.152 28.3778 173.98 26.7045 176.467 26.7045C178.878 26.7045 180.342 28.2788 180.342 30.9318V41.5H182.94V30.7557C182.94 26.4403 180.64 24.3707 177.216 24.3707C174.662 24.3707 173.077 25.5156 172.284 27.233H172.064V24.5909H169.554V41.5H172.152V31.3281ZM186.138 41.5H188.736V35.1701L190.552 33.4858L196.882 41.5H200.185L192.512 31.8125L199.656 24.5909H196.442L189.044 32.1207H188.736V18.9545H186.138V41.5Z" fill="#AAABB0"></path></svg>